  0
SECTION
  2
HEADER
  9
$ACADVER
  1
AC1009
  9
$DWGCODEPAGE
  3
ansi_1252
  9
$INSBASE
 10
0.0
 20
0.0
 30
0.0
  9
$EXTMIN
 10
8.0
 20
3.761499999999945
 30
0.0
  9
$EXTMAX
 10
180.8008
 20
36.23849999999998
 30
0.0
  9
$LIMMIN
 10
0.0
 20
0.0
  9
$LIMMAX
 10
12.0
 20
9.0
  9
$ORTHOMODE
 70
     0
  9
$REGENMODE
 70
     1
  9
$FILLMODE
 70
     1
  9
$QTEXTMODE
 70
     0
  9
$MIRRTEXT
 70
     0
  9
$DRAGMODE
 70
     2
  9
$LTSCALE
 40
1.0
  9
$OSMODE
 70
    37
  9
$ATTMODE
 70
     1
  9
$TEXTSIZE
 40
0.2
  9
$TRACEWID
 40
0.05
  9
$TEXTSTYLE
  7
STANDARD
  9
$CLAYER
  8
LAYER_1
  9
$CELTYPE
  6
BYLAYER
  9
$CECOLOR
 62
   256
  9
$DIMSCALE
 40
1.0
  9
$DIMASZ
 40
2.5
  9
$DIMEXO
 40
0.625
  9
$DIMDLI
 40
5.0
  9
$DIMRND
 40
0.0
  9
$DIMDLE
 40
0.0
  9
$DIMEXE
 40
1.25
  9
$DIMTP
 40
0.0
  9
$DIMTM
 40
0.0
  9
$DIMTXT
 40
2.5
  9
$DIMCEN
 40
0.09
  9
$DIMTSZ
 40
0.0
  9
$DIMTOL
 70
     0
  9
$DIMLIM
 70
     0
  9
$DIMTIH
 70
     0
  9
$DIMTOH
 70
     1
  9
$DIMSE1
 70
     0
  9
$DIMSE2
 70
     0
  9
$DIMTAD
 70
     1
  9
$DIMZIN
 70
     8
  9
$DIMBLK
  1

  9
$DIMASO
 70
     1
  9
$DIMSHO
 70
     1
  9
$DIMPOST
  1

  9
$DIMAPOST
  1

  9
$DIMALT
 70
     0
  9
$DIMALTD
 70
     2
  9
$DIMALTF
 40
25.4
  9
$DIMLFAC
 40
1.0
  9
$DIMTOFL
 70
     0
  9
$DIMTVP
 40
0.0
  9
$DIMTIX
 70
     0
  9
$DIMSOXD
 70
     0
  9
$DIMSAH
 70
     0
  9
$DIMBLK1
  1

  9
$DIMBLK2
  1

  9
$DIMSTYLE
  2
STANDARD
  9
$DIMCLRD
 70
     0
  9
$DIMCLRE
 70
     0
  9
$DIMCLRT
 70
     0
  9
$DIMTFAC
 40
1.0
  9
$DIMGAP
 40
0.625
  9
$LUNITS
 70
     2
  9
$LUPREC
 70
     4
  9
$SKETCHINC
 40
0.1
  9
$FILLETRAD
 40
0.0
  9
$AUNITS
 70
     0
  9
$AUPREC
 70
     0
  9
$MENU
  1
.
  9
$ELEVATION
 40
0.0
  9
$PELEVATION
 40
0.0
  9
$THICKNESS
 40
0.0
  9
$LIMCHECK
 70
     0
  9
$CHAMFERA
 40
0.0
  9
$CHAMFERB
 40
0.0
  9
$SKPOLY
 70
     0
  9
$TDCREATE
 40
2460044.130686481
  9
$TDUPDATE
 40
2460044.130686933
  9
$TDINDWG
 40
0.0000000116
  9
$TDUSRTIMER
 40
0.0000000116
  9
$USRTIMER
 70
     1
  9
$ANGBASE
 50
0.0
  9
$ANGDIR
 70
     0
  9
$PDMODE
 70
     0
  9
$PDSIZE
 40
0.0
  9
$PLINEWID
 40
0.0
  9
$COORDS
 70
     1
  9
$SPLFRAME
 70
     0
  9
$SPLINETYPE
 70
     6
  9
$SPLINESEGS
 70
     8
  9
$ATTDIA
 70
     0
  9
$ATTREQ
 70
     1
  9
$HANDLING
 70
     1
  9
$HANDSEED
  5
67D
  9
$SURFTAB1
 70
     6
  9
$SURFTAB2
 70
     6
  9
$SURFTYPE
 70
     6
  9
$SURFU
 70
     6
  9
$SURFV
 70
     6
  9
$UCSNAME
  2

  9
$UCSORG
 10
0.0
 20
0.0
 30
0.0
  9
$UCSXDIR
 10
1.0
 20
0.0
 30
0.0
  9
$UCSYDIR
 10
0.0
 20
1.0
 30
0.0
  9
$PUCSNAME
  2

  9
$PUCSORG
 10
0.0
 20
0.0
 30
0.0
  9
$PUCSXDIR
 10
1.0
 20
0.0
 30
0.0
  9
$PUCSYDIR
 10
0.0
 20
1.0
 30
0.0
  9
$USERI1
 70
     0
  9
$USERI2
 70
     0
  9
$USERI3
 70
     0
  9
$USERI4
 70
     0
  9
$USERI5
 70
     0
  9
$USERR1
 40
0.0
  9
$USERR2
 40
0.0
  9
$USERR3
 40
0.0
  9
$USERR4
 40
0.0
  9
$USERR5
 40
0.0
  9
$WORLDVIEW
 70
     1
  9
$SHADEDGE
 70
     3
  9
$SHADEDIF
 70
    70
  9
$TILEMODE
 70
     1
  9
$MAXACTVP
 70
    64
  9
$PLIMCHECK
 70
     0
  9
$PEXTMIN
 10
0.0
 20
0.0
 30
0.0
  9
$PEXTMAX
 10
0.0
 20
0.0
 30
0.0
  9
$PLIMMIN
 10
-20.0
 20
-7.5
  9
$PLIMMAX
 10
277.0
 20
202.5
  9
$UNITMODE
 70
     0
  9
$VISRETAIN
 70
     1
  9
$PLINEGEN
 70
     0
  9
$PSLTSCALE
 70
     1
  0
ENDSEC
  0
SECTION
  2
TABLES
  0
TABLE
  2
VPORT
 70
     1
  0
VPORT
  2
*ACTIVE
 70
     0
 10
0.0
 20
0.0
 11
1.0
 21
1.0
 12
26.33280079863925
 22
29.40663646643446
 13
0.0
 23
0.0
 14
0.5
 24
0.5
 15
0.5
 25
0.5
 16
0.0
 26
0.0
 36
1.0
 17
0.0
 27
0.0
 37
0.0
 40
60.7634300777551
 41
1.358126721763085
 42
50.0
 43
0.0
 44
0.0
 50
0.0
 51
0.0
 71
     0
 72
   100
 73
     1
 74
     3
 75
     0
 76
     0
 77
     0
 78
     0
  0
ENDTAB
  0
TABLE
  2
LTYPE
 70
    48
  0
LTYPE
  2
CONTINUOUS
 70
     0
  3
Solid line
 72
    65
 73
     0
 40
0.0
  0
LTYPE
  2
FENCELINE1
 70
     0
  3
Fenceline circle ----0-----0----0-----0----0-----0--
 72
    65
 73
     4
 40
36.83
 49
6.35
 49
-2.54
 49
-2.54
 49
25.4
  0
LTYPE
  2
DRAINAGE2
 70
     0
  3
Drainage reversed----<----<----<----
 72
    65
 73
     2
 40
10.16
 49
5.08
 49
5.08
  0
LTYPE
  2
TRACKS
 70
     0
  3
Tracks -|-|-|-|-|-|-|-|-|-|-|-|-|-|-|-|-|-|-|-|-|-|-|-|-
 72
    65
 73
     2
 40
7.62
 49
3.81
 49
3.81
  0
LTYPE
  2
PHANTOMX2
 70
     0
  3
Phantom (2x) ____________    ____    ____   _
 72
    65
 73
     6
 40
127.0
 49
63.5
 49
-12.7
 49
12.7
 49
-12.7
 49
12.7
 49
-12.7
  0
LTYPE
  2
ZIGZAG
 70
     0
  3
Zig zag /\/\/\/\/\/\/\/\/\/\/\/\/\/\/\/\/\/\/\/\/\/\/\/
 72
    65
 73
     4
 40
20.32254
 49
0.00254
 49
-5.08
 49
-10.16
 49
-5.08
  0
LTYPE
  2
HOT_WATER_SUPPLY
 70
     0
  3
Hot water supply ---- HW ---- HW ---- HW ----
 72
    65
 73
     3
 40
22.86
 49
12.7
 49
-5.08
 49
-5.08
  0
LTYPE
  2
HIDDENX2
 70
     0
  3
Hidden (2x) ____ ____ ____ ____ ____ ____ ____ 
 72
    65
 73
     2
 40
19.05
 49
12.7
 49
-6.35
  0
LTYPE
  2
PHANTOM2
 70
     0
  3
Phantom (.5x) ___ _ _ ___ _ _ ___ _ _ ___ _ _
 72
    65
 73
     6
 40
31.75
 49
15.875
 49
-3.175
 49
3.175
 49
-3.175
 49
3.175
 49
-3.175
  0
LTYPE
  2
PHANTOM
 70
     0
  3
Phantom ______  __  __  ______  __  __  ______ 
 72
    65
 73
     6
 40
63.50000000000001
 49
31.75
 49
-6.35
 49
6.35
 49
-6.35
 49
6.35
 49
-6.35
  0
LTYPE
  2
ACAD_ISO07W100
 70
     0
  3
ISO dot . . . . . . . . . . . . . . . . . . . . 
 72
    65
 73
     2
 40
3.0
 49
0.0
 49
-3.0
  0
LTYPE
  2
ACAD_ISO06W100
 70
     0
  3
ISO long-dash triple-dot ____ ... ____ ... ____
 72
    65
 73
     8
 40
36.0
 49
24.0
 49
-3.0
 49
0.0
 49
-3.0
 49
0.0
 49
-3.0
 49
0.0
 49
-3.0
  0
LTYPE
  2
ACAD_ISO09W100
 70
     0
  3
ISO long-dash double-short-dash ____ __ __ ____
 72
    65
 73
     6
 40
45.0
 49
24.0
 49
-3.0
 49
6.0
 49
-3.0
 49
6.0
 49
-3.0
  0
LTYPE
  2
ACAD_ISO08W100
 70
     0
  3
ISO long-dash short-dash ____ __ ____ __ ____ _
 72
    65
 73
     4
 40
36.0
 49
24.0
 49
-3.0
 49
6.0
 49
-3.0
  0
LTYPE
  2
ACAD_ISO03W100
 70
     0
  3
ISO dash space __    __    __    __    __    __
 72
    65
 73
     2
 40
30.0
 49
12.0
 49
-18.0
  0
LTYPE
  2
ACAD_ISO02W100
 70
     0
  3
ISO dash __ __ __ __ __ __ __ __ __ __ __ __ __
 72
    65
 73
     2
 40
15.0
 49
12.0
 49
-3.0
  0
LTYPE
  2
ACAD_ISO05W100
 70
     0
  3
ISO long-dash double-dot ____ .. ____ .. ____ . 
 72
    65
 73
     6
 40
33.0
 49
24.0
 49
-3.0
 49
0.0
 49
-3.0
 49
0.0
 49
-3.0
  0
LTYPE
  2
ACAD_ISO04W100
 70
     0
  3
ISO long-dash dot ____ . ____ . ____ . ____ . _
 72
    65
 73
     4
 40
30.0
 49
24.0
 49
-3.0
 49
0.0
 49
-3.0
  0
LTYPE
  2
ACAD_ISO15W100
 70
     0
  3
ISO double-dash triple-dot __ __ . . . __ __ . .
 72
    65
 73
    10
 40
39.0
 49
12.0
 49
-3.0
 49
12.0
 49
-3.0
 49
0.0
 49
-3.0
 49
0.0
 49
-3.0
 49
0.0
 49
-3.0
  0
LTYPE
  2
ACAD_ISO14W100
 70
     0
  3
ISO dash triple-dot __ . . . __ . . . __ . . . _
 72
    65
 73
     8
 40
24.0
 49
12.0
 49
-3.0
 49
0.0
 49
-3.0
 49
0.0
 49
-3.0
 49
0.0
 49
-3.0
  0
LTYPE
  2
BORDER
 70
     0
  3
Border __ __ . __ __ . __ __ . __ __ . __ __ .
 72
    65
 73
     6
 40
44.45
 49
12.7
 49
-6.35
 49
12.7
 49
-6.35
 49
0.0
 49
-6.35
  0
LTYPE
  2
BATTING
 70
     0
  3
Batting SSSSSSSSSSSSSSSSSSSSSSSSSSSSSSSSSSSSSSSSSSSSSSS
 72
    65
 73
     4
 40
10.16254
 49
0.00254
 49
-2.54
 49
-5.08
 49
-2.54
  0
LTYPE
  2
ACAD_ISO11W100
 70
     0
  3
ISO double-dash dot __ __ . __ __ . __ __ . __ _
 72
    65
 73
     6
 40
33.0
 49
12.0
 49
-3.0
 49
12.0
 49
-3.0
 49
0.0
 49
-3.0
  0
LTYPE
  2
ACAD_ISO10W100
 70
     0
  3
ISO dash dot __ . __ . __ . __ . __ . __ . __ . 
 72
    65
 73
     4
 40
18.0
 49
12.0
 49
-3.0
 49
0.0
 49
-3.0
  0
LTYPE
  2
ACAD_ISO13W100
 70
     0
  3
ISO double-dash double-dot __ __ . . __ __ . . _
 72
    65
 73
     8
 40
36.0
 49
12.0
 49
-3.0
 49
12.0
 49
-3.0
 49
0.0
 49
-3.0
 49
0.0
 49
-3.0
  0
LTYPE
  2
ACAD_ISO12W100
 70
     0
  3
ISO dash double-dot __ . . __ . . __ . . __ . . 
 72
    65
 73
     6
 40
21.0
 49
12.0
 49
-3.0
 49
0.0
 49
-3.0
 49
0.0
 49
-3.0
  0
LTYPE
  2
DASHDOT
 70
     0
  3
Dash dot __ . __ . __ . __ . __ . __ . __ . __
 72
    65
 73
     4
 40
25.4
 49
12.7
 49
-6.35
 49
0.0
 49
-6.35
  0
LTYPE
  2
CENTERX2
 70
     0
  3
Center (2x) ________  __  ________  __  _____
 72
    65
 73
     4
 40
101.6
 49
63.5
 49
-12.7
 49
12.7
 49
-12.7
  0
LTYPE
  2
DASHDOTX2
 70
     0
  3
Dash dot (2x) ____  .  ____  .  ____  .  ___
 72
    65
 73
     4
 40
50.8
 49
25.4
 49
-12.7
 49
0.0
 49
-12.7
  0
LTYPE
  2
DASHDOT2
 70
     0
  3
Dash dot (.5x) _._._._._._._._._._._._._._._.
 72
    65
 73
     4
 40
12.7
 49
6.35
 49
-3.175
 49
0.0
 49
-3.175
  0
LTYPE
  2
BORDERX2
 70
     0
  3
Border (2x) ____  ____  .  ____  ____  .  ___
 72
    65
 73
     6
 40
88.89999999999999
 49
25.4
 49
-12.7
 49
25.4
 49
-12.7
 49
0.0
 49
-12.7
  0
LTYPE
  2
BORDER2
 70
     0
  3
Border (.5x) __.__.__.__.__.__.__.__.__.__.__.
 72
    65
 73
     6
 40
22.225
 49
6.35
 49
-3.175
 49
6.35
 49
-3.175
 49
0.0
 49
-3.175
  0
LTYPE
  2
CENTER2
 70
     0
  3
Center (.5x) ___ _ ___ _ ___ _ ___ _ ___ _ ___
 72
    65
 73
     4
 40
28.575
 49
19.05
 49
-3.175
 49
3.175
 49
-3.175
  0
LTYPE
  2
CENTER
 70
     0
  3
Center ____ _ ____ _ ____ _ ____ _ ____ _ ____
 72
    65
 73
     4
 40
50.8
 49
31.75
 49
-6.35
 49
6.35
 49
-6.35
  0
LTYPE
  2
DIVIDEX2
 70
     0
  3
Divide (2x) ________  .  .  ________  .  .  _
 72
    65
 73
     6
 40
63.5
 49
25.4
 49
-12.7
 49
0.0
 49
-12.7
 49
0.0
 49
-12.7
  0
LTYPE
  2
DIVIDE2
 70
     0
  3
Divide (.5x) __..__..__..__..__..__..__..__.._
 72
    65
 73
     6
 40
15.875
 49
6.35
 49
-3.175
 49
0.0
 49
-3.175
 49
0.0
 49
-3.175
  0
LTYPE
  2
DOT2
 70
     0
  3
Dot (.5x) ........................................
 72
    65
 73
     2
 40
3.175
 49
0.0
 49
-3.175
  0
LTYPE
  2
DOT
 70
     0
  3
Dot . . . . . . . . . . . . . . . . . . . . . . . .
 72
    65
 73
     2
 40
6.35
 49
0.0
 49
-6.35
  0
LTYPE
  2
DASHED2
 70
     0
  3
Dashed (.5x) _ _ _ _ _ _ _ _ _ _ _ _ _ _ _ _ _ 
 72
    65
 73
     2
 40
9.524999999999999
 49
6.35
 49
-3.175
  0
LTYPE
  2
DASHED
 70
     0
  3
Dashed __ __ __ __ __ __ __ __ __ __ __ __ __ _
 72
    65
 73
     2
 40
19.05
 49
12.7
 49
-6.35
  0
LTYPE
  2
DIVIDE
 70
     0
  3
Divide ____ . . ____ . . ____ . . ____ . . ____
 72
    65
 73
     6
 40
31.75
 49
12.7
 49
-6.35
 49
0.0
 49
-6.35
 49
0.0
 49
-6.35
  0
LTYPE
  2
DASHEDX2
 70
     0
  3
Dashed (2x) ____  ____  ____  ____  ____  ___
 72
    65
 73
     2
 40
38.09999999999999
 49
25.4
 49
-12.7
  0
LTYPE
  2
GAS_LINE
 70
     0
  3
Gas line ----GAS----GAS----GAS----GAS----GAS----GAS--
 72
    65
 73
     3
 40
24.13
 49
12.7
 49
-5.08
 49
-6.35
  0
LTYPE
  2
FENCELINE2
 70
     0
  3
Fenceline square ----[]-----[]----[]-----[]----[]---
 72
    65
 73
     4
 40
36.83
 49
6.35
 49
-2.54
 49
-2.54
 49
25.4
  0
LTYPE
  2
HIDDEN2
 70
     0
  3
Hidden (.5x) _ _ _ _ _ _ _ _ _ _ _ _ _ _ _ _ _ 
 72
    65
 73
     2
 40
4.762499999999999
 49
3.175
 49
-1.5875
  0
LTYPE
  2
HIDDEN
 70
     0
  3
Hidden __ __ __ __ __ __ __ __ __ __ __ __ __ __
 72
    65
 73
     2
 40
9.524999999999999
 49
6.35
 49
-3.175
  0
LTYPE
  2
DRAINAGE
 70
     0
  3
Drainage ---->---->---->----
 72
    65
 73
     2
 40
10.16
 49
5.08
 49
5.08
  0
LTYPE
  2
DOTX2
 70
     0
  3
Dot (2x) .  .  .  .  .  .  .  .  .  .  .  .  .  .
 72
    65
 73
     2
 40
12.7
 49
0.0
 49
-12.7
  0
ENDTAB
  0
TABLE
  2
LAYER
 70
     2
  0
LAYER
  2
0
 70
     0
 62
     7
  6
CONTINUOUS
  0
LAYER
  2
LAYER_1
 70
     0
 62
     7
  6
CONTINUOUS
  0
ENDTAB
  0
TABLE
  2
STYLE
 70
     4
  0
STYLE
  2
STANDARD
 70
     0
 40
0.0
 41
1.0
 50
0.0
 71
     0
 42
0.2
  3
txt
  4

  0
STYLE
  2
TEXTSTYLE0
 70
     0
 40
0.0
 41
1.0
 50
0.0
 71
     0
 42
0.2
  3
ltypeshp.shx
  4

  0
STYLE
  2
TEXTSTYLE1
 70
     0
 40
0.0
 41
1.0
 50
0.0
 71
     0
 42
0.2
  3
qcadshp.shx
  4

  0
STYLE
  2
TEXTSTYLE2
 70
     0
 40
0.0
 41
1.0
 50
0.0
 71
     0
 42
0.2
  3
STANDARD
  4

  0
ENDTAB
  0
TABLE
  2
VIEW
 70
     0
  0
ENDTAB
  0
TABLE
  2
UCS
 70
     0
  0
ENDTAB
  0
TABLE
  2
APPID
 70
     2
  0
APPID
  2
ACAD
 70
     0
  0
APPID
  2
QCAD
 70
     0
  0
ENDTAB
  0
TABLE
  2
DIMSTYLE
 70
     2
  0
DIMSTYLE
  2
STANDARD
 70
     0
  3

  4

  5

  6

  7

 40
1.0
 41
0.18
 42
0.0625
 43
0.38
 44
0.18
 45
0.0
 46
0.0
 47
0.0
 48
0.0
140
0.18
141
0.09
142
0.0
143
25.4
144
1.0
145
0.0
146
1.0
147
0.09
 71
     0
 72
     0
 73
     1
 74
     1
 75
     0
 76
     0
 77
     0
 78
     0
170
     0
171
     2
172
     0
173
     0
174
     0
175
     0
176
     0
177
     0
178
     0
  0
DIMSTYLE
  2
QCADDIMSTYLE
 70
     0
  3

  4

  5

  6

  7

 40
1.0
 41
2.5
 42
0.625
 43
5.0
 44
1.25
 45
0.0
 46
0.0
 47
0.0
 48
0.0
140
2.5
141
0.09
142
0.0
143
25.4
144
1.0
145
0.0
146
1.0
147
0.625
 71
     0
 72
     0
 73
     0
 74
     1
 75
     0
 76
     0
 77
     1
 78
     8
170
     0
171
     2
172
     0
173
     0
174
     0
175
     0
176
     0
177
     0
178
     0
  0
ENDTAB
  0
ENDSEC
  0
SECTION
  2
BLOCKS
  0
BLOCK
  8
0
  2
$MODEL_SPACE
 70
     0
 10
0.0
 20
0.0
 30
0.0
  3
$MODEL_SPACE
  1

  0
ENDBLK
  5
5CB
  8
0
  0
BLOCK
 67
     1
  8
0
  2
$PAPER_SPACE
 70
     0
 10
0.0
 20
0.0
 30
0.0
  3
$PAPER_SPACE
  1

  0
ENDBLK
  5
5C7
 67
     1
  8
0
  0
ENDSEC
  0
SECTION
  2
ENTITIES
  0
CIRCLE
  5
42F
  8
LAYER_1
 10
10.60000000000001
 20
9.992099999999988
 30
0.0
 40
1.600800000000049
  0
CIRCLE
  5
4A6
  8
LAYER_1
 10
130.6
 20
9.992099999999986
 30
0.0
 40
1.600800000000049
  0
CIRCLE
  5
431
  8
LAYER_1
 10
30.59940000000005
 20
29.99999999999999
 30
0.0
 40
1.600800000000049
  0
CIRCLE
  5
495
  8
LAYER_1
 10
115.9994
 20
20.0
 30
0.0
 40
1.600800000000049
  0
CIRCLE
  5
4A7
  8
LAYER_1
 10
150.5994000000001
 20
30.0
 30
0.0
 40
1.600800000000049
  0
CIRCLE
  5
432
  8
LAYER_1
 10
30.59940000000005
 20
9.992099999999988
 30
0.0
 40
1.600800000000049
  0
CIRCLE
  5
4A8
  8
LAYER_1
 10
150.5994000000001
 20
9.992099999999986
 30
0.0
 40
1.600800000000049
  0
CIRCLE
  5
433
  8
LAYER_1
 10
10.60000000000001
 20
29.99999999999999
 30
0.0
 40
1.600800000000049
  0
CIRCLE
  5
4A9
  8
LAYER_1
 10
130.6
 20
30.0
 30
0.0
 40
1.600800000000049
  0
LINE
  5
43C
  8
LAYER_1
 10
8.000000000000007
 20
9.999999999999998
 30
0.0
 11
8.000000000000007
 21
8.182321789147176
 31
0.0
  0
LINE
  5
451
  8
LAYER_1
 10
8.0
 20
29.99999999999999
 30
0.0
 11
8.0
 21
31.81767821085281
 31
0.0
  0
LINE
  5
4AA
  8
LAYER_1
 10
128.0
 20
10.0
 30
0.0
 11
128.0
 21
8.182321789147174
 31
0.0
  0
LINE
  5
4AB
  8
LAYER_1
 10
128.0
 20
30.0
 30
0.0
 11
128.0
 21
31.81767821085281
 31
0.0
  0
LINE
  5
448
  8
LAYER_1
 10
13.2
 20
9.999999999999998
 30
0.0
 11
13.2
 21
9.981550000000002
 31
0.0
  0
LINE
  5
44A
  8
LAYER_1
 10
28.00000000000001
 20
9.999999999999998
 30
0.0
 11
28.00000000000001
 21
9.981550000000002
 31
0.0
  0
LINE
  5
44C
  8
LAYER_1
 10
33.2
 20
9.999999999999998
 30
0.0
 11
33.2
 21
9.981549999999999
 31
0.0
  0
LINE
  5
44D
  8
LAYER_1
 10
13.2
 20
29.99999999999999
 30
0.0
 11
13.2
 21
30.01844999999998
 31
0.0
  0
LINE
  5
44E
  8
LAYER_1
 10
28.00000000000001
 20
29.99999999999999
 30
0.0
 11
28.00000000000001
 21
30.01844999999999
 31
0.0
  0
LINE
  5
452
  8
LAYER_1
 10
33.2
 20
29.99999999999999
 30
0.0
 11
33.2
 21
30.01844999999999
 31
0.0
  0
LINE
  5
4AC
  8
LAYER_1
 10
133.2
 20
10.0
 30
0.0
 11
133.2
 21
9.981550000000006
 31
0.0
  0
LINE
  5
4AD
  8
LAYER_1
 10
148.0
 20
10.0
 30
0.0
 11
148.0
 21
9.981550000000006
 31
0.0
  0
LINE
  5
4AE
  8
LAYER_1
 10
153.2
 20
10.0
 30
0.0
 11
153.2
 21
9.981549999999999
 31
0.0
  0
LINE
  5
4AF
  8
LAYER_1
 10
133.2
 20
30.0
 30
0.0
 11
133.2
 21
30.01844999999997
 31
0.0
  0
LINE
  5
4B0
  8
LAYER_1
 10
148.0
 20
30.0
 30
0.0
 11
148.0
 21
30.01844999999999
 31
0.0
  0
LINE
  5
4B1
  8
LAYER_1
 10
153.2
 20
30.0
 30
0.0
 11
153.2
 21
30.01845
 31
0.0
  0
ARC
  5
43A
  8
LAYER_1
 10
10.60000000000001
 20
29.99999999999999
 30
0.0
 40
2.599999999999994
 50
180.0
 51
0.0
  0
ARC
  5
43D
  8
LAYER_1
 10
10.60000000000001
 20
9.999999999999998
 30
0.0
 40
2.599999999999994
 50
0.0
 51
180.0
1001
QCAD
1000
reversed:1
  0
ARC
  5
43E
  8
LAYER_1
 10
30.60000000000001
 20
10.0
 30
0.0
 40
2.599999999999994
 50
0.0
 51
180.0
  0
ARC
  5
443
  8
LAYER_1
 10
30.60000000000001
 20
29.99999999999998
 30
0.0
 40
2.599999999999994
 50
180.0
 51
0.0
1001
QCAD
1000
reversed:1
  0
ARC
  5
4B2
  8
LAYER_1
 10
130.6
 20
30.0
 30
0.0
 40
2.599999999999994
 50
180.0
 51
0.0
  0
ARC
  5
4B3
  8
LAYER_1
 10
130.6
 20
10.0
 30
0.0
 40
2.599999999999994
 50
0.0
 51
180.0
1001
QCAD
1000
reversed:1
  0
ARC
  5
4B4
  8
LAYER_1
 10
150.6
 20
10.0
 30
0.0
 40
2.599999999999994
 50
0.0
 51
180.0
  0
ARC
  5
4B5
  8
LAYER_1
 10
150.6
 20
29.99999999999997
 30
0.0
 40
2.599999999999994
 50
180.0
 51
0.0
1001
QCAD
1000
reversed:1
  0
LINE
  5
445
  8
LAYER_1
 10
14.8008
 20
8.380750000000003
 30
0.0
 11
26.39920000000001
 21
8.380750000000003
 31
0.0
  0
LINE
  5
447
  8
LAYER_1
 10
34.8008
 20
8.380749999999999
 30
0.0
 11
38.20000000000002
 21
8.380749999999999
 31
0.0
  0
LINE
  5
44F
  8
LAYER_1
 10
14.8008
 20
31.61924999999999
 30
0.0
 11
26.39920000000001
 21
31.61924999999999
 31
0.0
  0
LINE
  5
450
  8
LAYER_1
 10
34.80080000000001
 20
31.61925
 30
0.0
 11
38.20000000000003
 21
31.61925
 31
0.0
  0
LINE
  5
4B6
  8
LAYER_1
 10
134.8008
 20
8.380749999999999
 30
0.0
 11
146.3992
 21
8.380749999999999
 31
0.0
  0
LINE
  5
4B7
  8
LAYER_1
 10
154.8008
 20
8.380749999999999
 30
0.0
 11
158.2
 21
8.380749999999999
 31
0.0
  0
LINE
  5
4B8
  8
LAYER_1
 10
134.8008
 20
31.61924999999999
 30
0.0
 11
146.3992
 21
31.61924999999999
 31
0.0
  0
LINE
  5
4B9
  8
LAYER_1
 10
154.8008
 20
31.61924999999999
 30
0.0
 11
158.2
 21
31.61924999999999
 31
0.0
  0
LINE
  5
454
  8
LAYER_1
 10
9.410859376343822
 20
33.40645944956471
 30
0.0
 11
50.0
 21
36.23849999999997
 31
0.0
  0
LINE
  5
49A
  8
LAYER_1
 10
9.410859376343815
 20
6.593540550435257
 30
0.0
 11
49.99999999999999
 21
3.761499999999987
 31
0.0
  0
LINE
  5
4BA
  8
LAYER_1
 10
129.4108593763438
 20
33.40645944956472
 30
0.0
 11
163.3502027232456
 21
35.77452132859725
 31
0.0
  0
LINE
  5
4BB
  8
LAYER_1
 10
129.4108593763438
 20
6.593540550435257
 30
0.0
 11
163.61952033647
 21
4.206687477751437
 31
0.0
  0
ARC
  5
455
  8
LAYER_1
 10
14.8008
 20
30.01844999999998
 30
0.0
 40
1.6008
 50
90.0
 51
180.0
1001
QCAD
1000
reversed:1
  0
ARC
  5
4BC
  8
LAYER_1
 10
134.8008
 20
30.01844999999997
 30
0.0
 40
1.6008
 50
90.0
 51
180.0
1001
QCAD
1000
reversed:1
  0
ARC
  5
456
  8
LAYER_1
 10
26.39920000000001
 20
30.01844999999999
 30
0.0
 40
1.6008
 50
0.0
 51
90.0
1001
QCAD
1000
reversed:1
  0
ARC
  5
4BD
  8
LAYER_1
 10
146.3992
 20
30.01844999999999
 30
0.0
 40
1.6008
 50
0.0
 51
90.0
1001
QCAD
1000
reversed:1
  0
ARC
  5
457
  8
LAYER_1
 10
34.80080000000001
 20
30.01844999999999
 30
0.0
 40
1.6008
 50
90.0
 51
180.0
1001
QCAD
1000
reversed:1
  0
ARC
  5
4BE
  8
LAYER_1
 10
154.8008
 20
30.01845
 30
0.0
 40
1.6008
 50
90.0
 51
180.0
1001
QCAD
1000
reversed:1
  0
ARC
  5
458
  8
LAYER_1
 10
14.8008
 20
9.981550000000002
 30
0.0
 40
1.6008
 50
180.0
 51
270.0
  0
ARC
  5
4BF
  8
LAYER_1
 10
134.8008
 20
9.981550000000006
 30
0.0
 40
1.6008
 50
180.0
 51
270.0
  0
ARC
  5
459
  8
LAYER_1
 10
26.39920000000001
 20
9.981550000000002
 30
0.0
 40
1.6008
 50
270.0
 51
0.0
  0
ARC
  5
4C0
  8
LAYER_1
 10
146.3992
 20
9.981550000000006
 30
0.0
 40
1.6008
 50
270.0
 51
0.0
  0
ARC
  5
45A
  8
LAYER_1
 10
34.8008
 20
9.981549999999999
 30
0.0
 40
1.6008
 50
180.0
 51
270.0
  0
ARC
  5
4C1
  8
LAYER_1
 10
154.8008
 20
9.981549999999999
 30
0.0
 40
1.6008
 50
180.0
 51
270.0
  0
LINE
  5
46F
  8
LAYER_1
 10
50.0
 20
36.23849999999997
 30
0.0
 11
105.2572147973795
 21
36.23849999999997
 31
0.0
  0
LINE
  5
4A0
  8
LAYER_1
 10
49.99999999999999
 20
3.761499999999987
 30
0.0
 11
105.2572147973795
 21
3.761499999999945
 31
0.0
  0
LINE
  5
475
  8
LAYER_1
 10
39.80080000000002
 20
30.01845
 30
0.0
 11
39.80080000000002
 21
9.98155
 31
0.0
  0
LINE
  5
4C2
  8
LAYER_1
 10
168.8008
 20
30.01845
 30
0.0
 11
168.8008
 21
9.981549999999999
 31
0.0
  0
LINE
  5
508
  8
LAYER_1
 10
133.866382423187
 20
21.80981477064701
 30
0.0
 11
133.866382423187
 21
17.79136477064702
 31
0.0
  0
LINE
  5
524
  8
LAYER_1
 10
63.86638242318701
 20
21.80981477064701
 30
0.0
 11
63.86638242318701
 21
17.79136477064702
 31
0.0
  0
ARC
  5
476
  8
LAYER_1
 10
38.20000000000003
 20
30.01845
 30
0.0
 40
1.6008
 50
0.0
 51
90.0
1001
QCAD
1000
reversed:1
  0
ARC
  5
4C3
  8
LAYER_1
 10
167.2
 20
30.01845
 30
0.0
 40
1.6008
 50
0.0
 51
90.0
1001
QCAD
1000
reversed:1
  0
ARC
  5
477
  8
LAYER_1
 10
38.20000000000002
 20
9.981549999999999
 30
0.0
 40
1.6008
 50
270.0
 51
0.0
1001
QCAD
1000
reversed:1
  0
ARC
  5
4C4
  8
LAYER_1
 10
167.2
 20
9.981549999999999
 30
0.0
 40
1.6008
 50
270.0
 51
0.0
1001
QCAD
1000
reversed:1
  0
LINE
  5
48B
  8
LAYER_1
 10
51.6008
 20
29.99999999999999
 30
0.0
 11
108.3992
 21
29.99999999999999
 31
0.0
  0
LINE
  5
48C
  8
LAYER_1
 10
110.0
 20
28.39919999999999
 30
0.0
 11
110.0
 21
11.60079999999999
 31
0.0
  0
LINE
  5
48D
  8
LAYER_1
 10
108.3992
 20
9.999999999999986
 30
0.0
 11
51.60079999999999
 21
9.999999999999986
 31
0.0
  0
LINE
  5
4C5
  8
LAYER_1
 10
180.8008
 20
15.07751965030469
 30
0.0
 11
180.8008
 21
24.92248034969529
 31
0.0
  0
LINE
  5
4F7
  8
LAYER_1
 10
50.0
 20
27.98216006855286
 30
0.0
 11
50.0
 21
28.39919999999999
 31
0.0
  0
LINE
  5
4F8
  8
LAYER_1
 10
50.0
 20
11.60079999999999
 30
0.0
 11
50.0
 21
12.01783993144714
 31
0.0
  0
ARC
  5
48F
  8
LAYER_1
 10
51.6008
 20
28.39919999999999
 30
0.0
 40
1.6008
 50
90.0
 51
180.0
1001
QCAD
1000
reversed:1
  0
ARC
  5
490
  8
LAYER_1
 10
51.6008
 20
11.60079999999999
 30
0.0
 40
1.6008
 50
180.0
 51
269.9999999999998
  0
ARC
  5
491
  8
LAYER_1
 10
108.3992
 20
28.39919999999999
 30
0.0
 40
1.6008
 50
0.0
 51
90.0
1001
QCAD
1000
reversed:1
  0
ARC
  5
492
  8
LAYER_1
 10
108.3992
 20
11.60079999999999
 30
0.0
 40
1.6008
 50
270.0
 51
0.0
1001
QCAD
1000
reversed:1
  0
ARC
  5
496
  8
LAYER_1
 10
9.600000000000001
 20
31.81767821085281
 30
0.0
 40
1.6
 50
96.7889745744388
 51
180.0
1001
QCAD
1000
reversed:1
  0
ARC
  5
4C8
  8
LAYER_1
 10
129.6
 20
31.81767821085281
 30
0.0
 40
1.6
 50
96.7889745744388
 51
180.0
1001
QCAD
1000
reversed:1
  0
ARC
  5
497
  8
LAYER_1
 10
9.600000000000009
 20
8.182321789147176
 30
0.0
 40
1.6
 50
180.0
 51
263.2110254255612
  0
ARC
  5
4C9
  8
LAYER_1
 10
129.6
 20
8.182321789147174
 30
0.0
 40
1.6
 50
180.0
 51
263.2110254255612
  0
LINE
  5
49C
  8
LAYER_1
 10
113.0009161349175
 20
32.56582878828121
 30
0.0
 11
117.743701337538
 21
26.76137111805412
 31
0.0
  0
LINE
  5
49F
  8
LAYER_1
 10
113.0009161349175
 20
7.434171211718756
 30
0.0
 11
117.743701337538
 21
13.23862888194585
 31
0.0
  0
ARC
  5
49D
  8
LAYER_1
 10
105.2572147973795
 20
26.23849999999998
 30
0.0
 40
10.0
 50
39.25203841926758
 51
90.0
  0
ARC
  5
49E
  8
LAYER_1
 10
105.2572147973795
 20
13.76149999999999
 30
0.0
 40
10.0
 50
270.0
 51
320.7479615807324
1001
QCAD
1000
reversed:1
  0
LINE
  5
4A2
  8
LAYER_1
 10
120.0
 20
20.43404232977289
 30
0.0
 11
120.0
 21
19.56595767022709
 31
0.0
  0
ARC
  5
4A3
  8
LAYER_1
 10
110.0
 20
20.43404232977289
 30
0.0
 40
10.0
 50
0.0
 51
39.25203841926758
1001
QCAD
1000
reversed:1
  0
ARC
  5
4A4
  8
LAYER_1
 10
110.0
 20
19.56595767022709
 30
0.0
 40
10.0
 50
320.7479615807324
 51
0.0
1001
QCAD
1000
reversed:1
  0
LINE
  5
4DE
  8
LAYER_1
 10
158.2
 20
31.61924999999999
 30
0.0
 11
163.2
 21
31.61924999999999
 31
0.0
  0
LINE
  5
4DF
  8
LAYER_1
 10
158.2
 20
8.380749999999999
 30
0.0
 11
163.2
 21
8.380749999999999
 31
0.0
  0
CIRCLE
  5
4E6
  8
LAYER_1
 10
170.8008
 20
12.0
 30
0.0
 40
1.6
  0
CIRCLE
  5
4EE
  8
LAYER_1
 10
178.8008
 20
12.0
 30
0.0
 40
1.6
  0
CIRCLE
  5
4EF
  8
LAYER_1
 10
170.7352175768131
 20
27.95863522935299
 30
0.0
 40
1.6
  0
CIRCLE
  5
4F0
  8
LAYER_1
 10
178.735014921808
 20
28.00794870612137
 30
0.0
 40
1.6
  0
CIRCLE
  5
509
  8
LAYER_1
 10
135.8008
 20
19.75
 30
0.0
 40
1.6
  0
CIRCLE
  5
50A
  8
LAYER_1
 10
143.800597344995
 20
19.79931347676838
 30
0.0
 40
1.6
  0
CIRCLE
  5
525
  8
LAYER_1
 10
65.80080000000002
 20
19.75
 30
0.0
 40
1.6
  0
CIRCLE
  5
526
  8
LAYER_1
 10
73.80059734499501
 20
19.79931347676838
 30
0.0
 40
1.6
  0
LINE
  5
4E7
  8
LAYER_1
 10
167.8894595325595
 20
35.79754527149672
 30
0.0
 11
175.7224077353113
 21
35.92036887805929
 31
0.0
  0
LINE
  5
4ED
  8
LAYER_1
 10
167.8894595325595
 20
4.202454728503284
 30
0.0
 11
175.7224077353113
 21
4.079631121940707
 31
0.0
  0
LINE
  5
4E8
  8
LAYER_1
 10
180.8008
 20
30.92098345054555
 30
0.0
 11
180.8008
 21
24.92248034969529
 31
0.0
  0
LINE
  5
4EC
  8
LAYER_1
 10
180.8008
 20
9.079016549454458
 30
0.0
 11
180.8008
 21
15.07751965030471
 31
0.0
  0
LINE
  5
50B
  8
LAYER_1
 10
145.866382423187
 20
21.791364770647
 30
0.0
 11
145.866382423187
 21
17.79136477064701
 31
0.0
  0
LINE
  5
527
  8
LAYER_1
 10
75.866382423187
 20
21.791364770647
 30
0.0
 11
75.866382423187
 21
17.79136477064701
 31
0.0
  0
ARC
  5
4E9
  8
LAYER_1
 10
168.0462440619371
 20
25.7987744164692
 30
0.0
 40
10.0
 50
90.89834598951141
 51
93.99125030085439
1001
QCAD
1000
reversed:1
  0
ARC
  5
4EA
  8
LAYER_1
 10
175.8008
 20
30.92098345054555
 30
0.0
 40
5.0
 50
0.0
 51
90.89834598951143
  0
ARC
  5
4EB
  8
LAYER_1
 10
175.8008
 20
9.079016549454458
 30
0.0
 40
5.0
 50
269.1016540104886
 51
0.0
1001
QCAD
1000
reversed:1
  0
LINE
  5
53B
  8
LAYER_1
 10
50.0
 20
27.98216006855286
 30
0.0
 11
50.0
 21
26.40312423743286
 31
0.0
  0
LINE
  5
53E
  8
LAYER_1
 10
50.0
 20
13.59687576256715
 30
0.0
 11
50.0
 21
12.01783993144714
 31
0.0
  0
LINE
  5
504
  8
LAYER_1
 10
163.3502027232456
 20
35.77452132859725
 30
0.0
 11
167.3502027232456
 21
35.77452132859726
 31
0.0
  0
LINE
  5
505
  8
LAYER_1
 10
163.2
 20
31.61924999999999
 30
0.0
 11
167.2
 21
31.61925
 31
0.0
  0
LINE
  5
506
  8
LAYER_1
 10
163.2
 20
8.380749999999999
 30
0.0
 11
167.2
 21
8.380749999999999
 31
0.0
  0
LINE
  5
507
  8
LAYER_1
 10
163.61952033647
 20
4.206687477751437
 30
0.0
 11
167.8894595325595
 21
4.202454728503284
 31
0.0
  0
LINE
  5
50C
  8
LAYER_1
 10
133.866382423187
 20
21.80981477064701
 30
0.0
 11
134.866382423187
 21
22.79136477064701
 31
0.0
  0
LINE
  5
528
  8
LAYER_1
 10
63.86638242318701
 20
21.80981477064701
 30
0.0
 11
64.866382423187
 21
22.79136477064701
 31
0.0
  0
LINE
  5
50D
  8
LAYER_1
 10
134.866382423187
 20
22.79136477064701
 30
0.0
 11
144.866382423187
 21
22.79136477064701
 31
0.0
  0
LINE
  5
529
  8
LAYER_1
 10
64.866382423187
 20
22.79136477064701
 30
0.0
 11
74.866382423187
 21
22.79136477064701
 31
0.0
  0
LINE
  5
50E
  8
LAYER_1
 10
144.866382423187
 20
22.79136477064701
 30
0.0
 11
145.866382423187
 21
21.79136477064701
 31
0.0
  0
LINE
  5
52A
  8
LAYER_1
 10
74.866382423187
 20
22.79136477064701
 30
0.0
 11
75.866382423187
 21
21.79136477064701
 31
0.0
  0
LINE
  5
50F
  8
LAYER_1
 10
133.866382423187
 20
17.79136477064701
 30
0.0
 11
134.866382423187
 21
16.79136477064701
 31
0.0
  0
LINE
  5
52B
  8
LAYER_1
 10
63.86638242318701
 20
17.79136477064701
 30
0.0
 11
64.866382423187
 21
16.79136477064701
 31
0.0
  0
LINE
  5
510
  8
LAYER_1
 10
134.866382423187
 20
16.79136477064701
 30
0.0
 11
144.866382423187
 21
16.79136477064701
 31
0.0
  0
LINE
  5
52C
  8
LAYER_1
 10
64.866382423187
 20
16.79136477064701
 30
0.0
 11
74.866382423187
 21
16.79136477064701
 31
0.0
  0
LINE
  5
511
  8
LAYER_1
 10
144.866382423187
 20
16.79136477064701
 30
0.0
 11
145.866382423187
 21
17.79136477064701
 31
0.0
  0
LINE
  5
52D
  8
LAYER_1
 10
74.866382423187
 20
16.79136477064701
 30
0.0
 11
75.866382423187
 21
17.79136477064701
 31
0.0
  0
LINE
  5
518
  8
LAYER_1
 10
132.866382423187
 20
21.54136477064701
 30
0.0
 11
132.866382423187
 21
23.04136477064701
 31
0.0
  0
LINE
  5
519
  8
LAYER_1
 10
146.866382423187
 20
21.54136477064701
 30
0.0
 11
146.866382423187
 21
23.041364770647
 31
0.0
  0
LINE
  5
51C
  8
LAYER_1
 10
146.866382423187
 20
18.041364770647
 30
0.0
 11
146.866382423187
 21
16.54136477064701
 31
0.0
  0
LINE
  5
51D
  8
LAYER_1
 10
132.866382423187
 20
18.04136477064701
 30
0.0
 11
132.866382423187
 21
16.54136477064701
 31
0.0
  0
LINE
  5
520
  8
LAYER_1
 10
146.866382423187
 20
20.54136477064701
 30
0.0
 11
146.866382423187
 21
19.04136477064701
 31
0.0
  0
LINE
  5
521
  8
LAYER_1
 10
132.866382423187
 20
20.54136477064701
 30
0.0
 11
132.866382423187
 21
19.04136477064701
 31
0.0
  0
LINE
  5
52E
  8
LAYER_1
 10
62.86638242318698
 20
21.54136477064701
 30
0.0
 11
62.86638242318698
 21
23.04136477064701
 31
0.0
  0
LINE
  5
52F
  8
LAYER_1
 10
76.86638242318703
 20
21.54136477064701
 30
0.0
 11
76.86638242318703
 21
23.041364770647
 31
0.0
  0
LINE
  5
530
  8
LAYER_1
 10
76.86638242318703
 20
18.041364770647
 30
0.0
 11
76.86638242318703
 21
16.54136477064701
 31
0.0
  0
LINE
  5
531
  8
LAYER_1
 10
62.86638242318698
 20
18.04136477064701
 30
0.0
 11
62.86638242318698
 21
16.54136477064701
 31
0.0
  0
LINE
  5
532
  8
LAYER_1
 10
76.866382423187
 20
20.54136477064701
 30
0.0
 11
76.866382423187
 21
19.04136477064701
 31
0.0
  0
LINE
  5
533
  8
LAYER_1
 10
62.86638242318695
 20
20.54136477064701
 30
0.0
 11
62.86638242318695
 21
19.04136477064701
 31
0.0
  0
LINE
  5
51A
  8
LAYER_1
 10
132.866382423187
 20
23.04136477064701
 30
0.0
 11
146.866382423187
 21
23.041364770647
 31
0.0
  0
LINE
  5
51F
  8
LAYER_1
 10
132.866382423187
 20
16.54136477064701
 30
0.0
 11
146.866382423187
 21
16.54136477064701
 31
0.0
  0
LINE
  5
522
  8
LAYER_1
 10
132.866382423187
 20
19.04136477064701
 30
0.0
 11
146.866382423187
 21
19.04136477064701
 31
0.0
  0
LINE
  5
534
  8
LAYER_1
 10
62.86638242318698
 20
23.04136477064701
 30
0.0
 11
76.86638242318703
 21
23.041364770647
 31
0.0
  0
LINE
  5
535
  8
LAYER_1
 10
62.86638242318698
 20
16.54136477064701
 30
0.0
 11
76.86638242318703
 21
16.54136477064701
 31
0.0
  0
LINE
  5
536
  8
LAYER_1
 10
62.86638242318695
 20
19.04136477064701
 30
0.0
 11
76.866382423187
 21
19.04136477064701
 31
0.0
  0
LINE
  5
51B
  8
LAYER_1
 10
132.866382423187
 20
21.54136477064701
 30
0.0
 11
146.866382423187
 21
21.54136477064701
 31
0.0
  0
LINE
  5
51E
  8
LAYER_1
 10
132.866382423187
 20
18.04136477064701
 30
0.0
 11
146.866382423187
 21
18.041364770647
 31
0.0
  0
LINE
  5
523
  8
LAYER_1
 10
132.866382423187
 20
20.54136477064701
 30
0.0
 11
146.866382423187
 21
20.54136477064701
 31
0.0
  0
LINE
  5
537
  8
LAYER_1
 10
62.86638242318698
 20
21.54136477064701
 30
0.0
 11
76.86638242318703
 21
21.54136477064701
 31
0.0
  0
LINE
  5
538
  8
LAYER_1
 10
62.86638242318698
 20
18.04136477064701
 30
0.0
 11
76.86638242318703
 21
18.041364770647
 31
0.0
  0
LINE
  5
539
  8
LAYER_1
 10
62.86638242318695
 20
20.54136477064701
 30
0.0
 11
76.866382423187
 21
20.54136477064701
 31
0.0
  0
ARC
  5
53A
  8
LAYER_1
 10
50.00000000000001
 20
20.0
 30
0.0
 40
5.000000000000004
 50
284.0296654012888
 51
75.97033459871128
1001
QCAD
1000
reversed:1
  0
ARC
  5
53F
  8
LAYER_1
 10
51.6
 20
26.40312423743286
 30
0.0
 40
1.6
 50
180.0
 51
255.9703345987111
  0
ARC
  5
540
  8
LAYER_1
 10
51.6
 20
13.59687576256715
 30
0.0
 40
1.6
 50
104.0296654012887
 51
180.0
1001
QCAD
1000
reversed:1
  0
LINE
  5
54B
  8
LAYER_1
 10
54.55
 20
32.56924999999998
 30
0.0
 11
57.45
 21
32.56924999999998
 31
0.0
  0
LINE
  5
56A
  8
LAYER_1
 10
54.55
 20
34.428875
 30
0.0
 11
57.45
 21
34.428875
 31
0.0
  0
LINE
  5
57B
  8
LAYER_1
 10
54.55
 20
31.80962499999993
 30
0.0
 11
57.45
 21
31.80962499999993
 31
0.0
  0
LINE
  5
57C
  8
LAYER_1
 10
54.55
 20
5.571125000000004
 30
0.0
 11
57.45
 21
5.571125000000002
 31
0.0
  0
LINE
  5
57D
  8
LAYER_1
 10
54.55
 20
7.430750000000018
 30
0.0
 11
57.45
 21
7.430750000000019
 31
0.0
  0
LINE
  5
580
  8
LAYER_1
 10
54.55
 20
8.190375000000067
 30
0.0
 11
57.45
 21
8.190375000000067
 31
0.0
  0
CIRCLE
  5
558
  8
LAYER_1
 10
51.0
 20
22.0
 30
0.0
 40
0.9047434111392854
  0
CIRCLE
  5
559
  8
LAYER_1
 10
51.0
 20
18.0
 30
0.0
 40
0.9047434111392854
  0
ARC
  5
55C
  8
LAYER_1
 10
49.49999999999999
 20
20.0
 30
0.0
 40
2.499999999999993
 50
126.8698976458438
 51
233.1301023541561
  0
LINE
  5
55E
  8
LAYER_1
 10
54.55
 20
33.66924999999997
 30
0.0
 11
57.45000000000001
 21
33.66924999999997
 31
0.0
  0
LINE
  5
56B
  8
LAYER_1
 10
54.55
 20
35.52887499999999
 30
0.0
 11
57.45000000000001
 21
35.52887499999999
 31
0.0
  0
LINE
  5
578
  8
LAYER_1
 10
54.55
 20
30.70962499999995
 30
0.0
 11
57.45000000000001
 21
30.70962499999995
 31
0.0
  0
LINE
  5
581
  8
LAYER_1
 10
54.55
 20
4.471125000000017
 30
0.0
 11
57.45000000000001
 21
4.471125000000018
 31
0.0
  0
LINE
  5
584
  8
LAYER_1
 10
54.55
 20
9.290375000000056
 30
0.0
 11
57.45000000000001
 21
9.290375000000056
 31
0.0
  0
LINE
  5
58D
  8
LAYER_1
 10
54.55
 20
6.330750000000032
 30
0.0
 11
57.45000000000001
 21
6.33075000000003
 31
0.0
  0
ARC
  5
55F
  8
LAYER_1
 10
54.55
 20
33.11924999999997
 30
0.0
 40
0.55
 50
90.0
 51
180.0
1001
QCAD
1000
reversed:1
  0
ARC
  5
56C
  8
LAYER_1
 10
54.55
 20
34.97887499999998
 30
0.0
 40
0.55
 50
90.0
 51
180.0
1001
QCAD
1000
reversed:1
  0
ARC
  5
577
  8
LAYER_1
 10
54.55
 20
31.25962499999995
 30
0.0
 40
0.55
 50
180.0
 51
270.0
  0
ARC
  5
57F
  8
LAYER_1
 10
54.55
 20
5.021125000000021
 30
0.0
 40
0.55
 50
180.0
 51
270.0
  0
ARC
  5
585
  8
LAYER_1
 10
54.55
 20
8.740375000000052
 30
0.0
 40
0.55
 50
90.00000000000001
 51
180.0
1001
QCAD
1000
reversed:1
  0
ARC
  5
58A
  8
LAYER_1
 10
54.55
 20
6.880750000000035
 30
0.0
 40
0.55
 50
180.0
 51
270.0
  0
ARC
  5
560
  8
LAYER_1
 10
57.45000000000001
 20
33.11924999999997
 30
0.0
 40
0.55
 50
0.0
 51
90.0
1001
QCAD
1000
reversed:1
  0
ARC
  5
56D
  8
LAYER_1
 10
57.45000000000001
 20
34.97887499999999
 30
0.0
 40
0.55
 50
0.0
 51
90.0
1001
QCAD
1000
reversed:1
  0
ARC
  5
57A
  8
LAYER_1
 10
57.45000000000001
 20
31.25962499999994
 30
0.0
 40
0.55
 50
270.0
 51
0.0
  0
ARC
  5
583
  8
LAYER_1
 10
57.45000000000001
 20
5.021125000000016
 30
0.0
 40
0.55
 50
270.0
 51
0.0
  0
ARC
  5
586
  8
LAYER_1
 10
57.45000000000001
 20
8.740375000000057
 30
0.0
 40
0.55
 50
0.0
 51
90.00000000000001
1001
QCAD
1000
reversed:1
  0
ARC
  5
589
  8
LAYER_1
 10
57.45000000000001
 20
6.880750000000024
 30
0.0
 40
0.55
 50
270.0
 51
0.0
  0
ARC
  5
561
  8
LAYER_1
 10
54.55
 20
33.11924999999998
 30
0.0
 40
0.55
 50
180.0
 51
270.0
  0
ARC
  5
56E
  8
LAYER_1
 10
54.55
 20
34.978875
 30
0.0
 40
0.55
 50
180.0
 51
270.0
  0
ARC
  5
579
  8
LAYER_1
 10
54.55
 20
31.25962499999994
 30
0.0
 40
0.55
 50
90.00000000000001
 51
180.0
1001
QCAD
1000
reversed:1
  0
ARC
  5
582
  8
LAYER_1
 10
54.55
 20
5.021125000000005
 30
0.0
 40
0.55
 50
90.00000000000001
 51
180.0
1001
QCAD
1000
reversed:1
  0
ARC
  5
587
  8
LAYER_1
 10
54.55
 20
8.740375000000066
 30
0.0
 40
0.55
 50
180.0
 51
270.0
  0
ARC
  5
58C
  8
LAYER_1
 10
54.55
 20
6.88075000000002
 30
0.0
 40
0.55
 50
90.00000000000001
 51
180.0
1001
QCAD
1000
reversed:1
  0
ARC
  5
562
  8
LAYER_1
 10
57.45
 20
33.11924999999997
 30
0.0
 40
0.55
 50
270.0
 51
0.0
  0
ARC
  5
56F
  8
LAYER_1
 10
57.45
 20
34.97887499999999
 30
0.0
 40
0.55
 50
270.0
 51
0.0
  0
ARC
  5
576
  8
LAYER_1
 10
57.45
 20
31.25962499999994
 30
0.0
 40
0.55
 50
0.0
 51
90.00000000000001
1001
QCAD
1000
reversed:1
  0
ARC
  5
57E
  8
LAYER_1
 10
57.45
 20
5.021125000000014
 30
0.0
 40
0.55
 50
0.0
 51
90.00000000000001
1001
QCAD
1000
reversed:1
  0
ARC
  5
588
  8
LAYER_1
 10
57.45
 20
8.740375000000059
 30
0.0
 40
0.55
 50
270.0
 51
0.0
  0
ARC
  5
58B
  8
LAYER_1
 10
57.45
 20
6.880750000000029
 30
0.0
 40
0.55
 50
0.0
 51
90.00000000000001
1001
QCAD
1000
reversed:1
  0
ARC
  5
596
  8
LAYER_1
 10
42.42525791533486
 20
18.49999999999999
 30
0.0
 40
1.501860972001101
 50
87.14742193049209
 51
272.8525780695079
1001
QCAD
1000
reversed:1
  0
ARC
  5
5A3
  8
LAYER_1
 10
43.49813902799889
 20
18.49999999999986
 30
0.0
 40
1.501860972001101
 50
267.1474219304975
 51
92.85257806951331
  0
ARC
  5
5A7
  8
LAYER_1
 10
42.5018609720011
 20
26.0
 30
0.0
 40
1.501860972001101
 50
87.14742193049209
 51
272.8525780695079
1001
QCAD
1000
reversed:1
  0
LINE
  5
592
  8
LAYER_1
 10
45.0
 20
23.0
 30
0.0
 11
41.0
 21
23.0
 31
0.0
  0
LINE
  5
594
  8
LAYER_1
 10
41.0
 20
23.0
 30
0.0
 11
41.0
 21
22.0
 31
0.0
  0
LINE
  5
59F
  8
LAYER_1
 10
45.0
 20
16.0
 30
0.0
 11
41.0
 21
15.0
 31
0.0
  0
LINE
  5
5A0
  8
LAYER_1
 10
41.0
 20
15.0
 30
0.0
 11
43.0
 21
14.0
 31
0.0
  0
LINE
  5
5A1
  8
LAYER_1
 10
43.0
 20
14.0
 30
0.0
 11
41.0
 21
13.0
 31
0.0
  0
LINE
  5
5A2
  8
LAYER_1
 10
41.0
 20
13.0
 30
0.0
 11
45.0
 21
12.0
 31
0.0
  0
LINE
  5
5A4
  8
LAYER_1
 10
42.5
 20
19.99999999999999
 30
0.0
 11
43.42339694333361
 21
19.99999999999985
 31
0.0
  0
LINE
  5
5A9
  8
LAYER_1
 10
42.57660305666624
 20
27.5
 30
0.0
 11
43.49999999999985
 21
27.49999999999986
 31
0.0
  0
LINE
  5
5A5
  8
LAYER_1
 10
42.5
 20
16.99999999999999
 30
0.0
 11
43.42339694333389
 21
16.99999999999985
 31
0.0
  0
LINE
  5
5AA
  8
LAYER_1
 10
42.57660305666624
 20
24.5
 30
0.0
 11
42.59999999999999
 21
25.6
 31
0.0
  0
LINE
  5
5A6
  8
LAYER_1
 10
41.0
 20
22.0
 30
0.0
 11
41.0
 21
21.0
 31
0.0
  0
ARC
  5
5AB
  8
LAYER_1
 10
43.57474208466513
 20
25.99999999999986
 30
0.0
 40
1.501860972001097
 50
299.5761928239236
 51
92.85257806951334
1001
QCAD
1000
reversed:1
  0
VIEWPORT
  5
674
 67
     1
  8
0
 10
128.5
 20
97.5
 30
0.0
 40
314.226
 41
222.18
 68
     1
 69
     1
1001
ACAD
1000
MVIEW
1002
{
1070
    16
1010
0.0
1020
0.0
1030
0.0
1010
0.0
1020
0.0
1030
1.0
1040
0.0
1040
222.18
1040
128.5
1040
97.5
1040
50.0
1040
0.0
1040
0.0
1070
     0
1070
   100
1070
     0
1070
     3
1070
     0
1070
     0
1070
     0
1070
     0
1040
0.0
1040
0.0
1040
0.0
1040
10.0
1040
10.0
1040
10.0
1040
10.0
1070
     0
1002
{
1002
}
1002
}
  0
ENDSEC
  0
EOF
