  0
SECTION
  2
HEADER
  9
$ACADVER
  1
AC1027
  9
$ACADMAINTVER
 70
   105
  9
$DWGCODEPAGE
  3
ANSI_1252
  9
$LASTSAVEDBY
  1
nilo
  9
$REQUIREDVERSIONS
160
                 0
  9
$INSBASE
 10
0.0
 20
0.0
 30
0.0
  9
$EXTMIN
 10
0.0
 20
-0.0000000000002842
 30
0.0
  9
$EXTMAX
 10
139.9999999999997
 20
1100.0
 30
0.0
  9
$LIMMIN
 10
0.0
 20
0.0
  9
$LIMMAX
 10
12.0
 20
9.0
  9
$ORTHOMODE
 70
     0
  9
$REGENMODE
 70
     1
  9
$FILLMODE
 70
     1
  9
$QTEXTMODE
 70
     0
  9
$MIRRTEXT
 70
     0
  9
$LTSCALE
 40
1.0
  9
$ATTMODE
 70
     1
  9
$TEXTSIZE
 40
0.2
  9
$TRACEWID
 40
0.05
  9
$TEXTSTYLE
  7
Standard
  9
$CLAYER
  8
0
  9
$CELTYPE
  6
ByLayer
  9
$CECOLOR
 62
   256
  9
$CELTSCALE
 40
1.0
  9
$DISPSILH
 70
     0
  9
$DIMSCALE
 40
1.0
  9
$DIMASZ
 40
2.5
  9
$DIMEXO
 40
0.625
  9
$DIMDLI
 40
5.0
  9
$DIMRND
 40
0.0
  9
$DIMDLE
 40
0.0
  9
$DIMEXE
 40
1.25
  9
$DIMTP
 40
0.0
  9
$DIMTM
 40
0.0
  9
$DIMTXT
 40
2.5
  9
$DIMCEN
 40
0.09
  9
$DIMTSZ
 40
0.0
  9
$DIMTOL
 70
     0
  9
$DIMLIM
 70
     0
  9
$DIMTIH
 70
     0
  9
$DIMTOH
 70
     1
  9
$DIMSE1
 70
     0
  9
$DIMSE2
 70
     0
  9
$DIMTAD
 70
     1
  9
$DIMZIN
 70
     8
  9
$DIMBLK
  1

  9
$DIMASO
 70
     1
  9
$DIMSHO
 70
     1
  9
$DIMPOST
  1

  9
$DIMAPOST
  1

  9
$DIMALT
 70
     0
  9
$DIMALTD
 70
     2
  9
$DIMALTF
 40
25.4
  9
$DIMLFAC
 40
1.0
  9
$DIMTOFL
 70
     0
  9
$DIMTVP
 40
0.0
  9
$DIMTIX
 70
     0
  9
$DIMSOXD
 70
     0
  9
$DIMSAH
 70
     0
  9
$DIMBLK1
  1

  9
$DIMBLK2
  1

  9
$DIMSTYLE
  2
Standard
  9
$DIMCLRD
 70
     0
  9
$DIMCLRE
 70
     0
  9
$DIMCLRT
 70
     0
  9
$DIMTFAC
 40
1.0
  9
$DIMGAP
 40
0.625
  9
$DIMJUST
 70
     0
  9
$DIMSD1
 70
     0
  9
$DIMSD2
 70
     0
  9
$DIMTOLJ
 70
     1
  9
$DIMTZIN
 70
     0
  9
$DIMALTZ
 70
     0
  9
$DIMALTTZ
 70
     0
  9
$DIMUPT
 70
     0
  9
$DIMDEC
 70
     4
  9
$DIMTDEC
 70
     4
  9
$DIMALTU
 70
     2
  9
$DIMALTTD
 70
     2
  9
$DIMTXSTY
  7
Standard
  9
$DIMAUNIT
 70
     0
  9
$DIMADEC
 70
     0
  9
$DIMALTRND
 40
0.0
  9
$DIMAZIN
 70
     2
  9
$DIMDSEP
 70
    46
  9
$DIMATFIT
 70
     0
  9
$DIMFRAC
 70
     0
  9
$DIMLDRBLK
  1

  9
$DIMLUNIT
 70
     2
  9
$DIMLWD
 70
    -2
  9
$DIMLWE
 70
    -2
  9
$DIMTMOVE
 70
     0
  9
$DIMFXL
 40
1.0
  9
$DIMFXLON
 70
     0
  9
$DIMJOGANG
 40
0.7853981633974483
  9
$DIMTFILL
 70
     0
  9
$DIMTFILLCLR
 70
     0
  9
$DIMARCSYM
 70
     0
  9
$DIMLTYPE
  6

  9
$DIMLTEX1
  6

  9
$DIMLTEX2
  6

  9
$DIMTXTDIRECTION
 70
     0
  9
$LUNITS
 70
     2
  9
$LUPREC
 70
     4
  9
$SKETCHINC
 40
0.1
  9
$FILLETRAD
 40
0.0
  9
$AUNITS
 70
     0
  9
$AUPREC
 70
     0
  9
$MENU
  1
.
  9
$ELEVATION
 40
0.0
  9
$PELEVATION
 40
0.0
  9
$THICKNESS
 40
0.0
  9
$LIMCHECK
 70
     0
  9
$CHAMFERA
 40
0.0
  9
$CHAMFERB
 40
0.0
  9
$CHAMFERC
 40
0.0
  9
$CHAMFERD
 40
0.0
  9
$SKPOLY
 70
     0
  9
$TDCREATE
 40
2460043.857617442
  9
$TDUCREATE
 40
2460043.815950776
  9
$TDUPDATE
 40
2460043.857617662
  9
$TDUUPDATE
 40
2460043.815950995
  9
$TDINDWG
 40
0.0000000116
  9
$TDUSRTIMER
 40
0.0000000116
  9
$USRTIMER
 70
     1
  9
$ANGBASE
 50
0.0
  9
$ANGDIR
 70
     0
  9
$PDMODE
 70
     0
  9
$PDSIZE
 40
0.0
  9
$PLINEWID
 40
0.0
  9
$SPLFRAME
 70
     0
  9
$SPLINETYPE
 70
     6
  9
$SPLINESEGS
 70
     8
  9
$HANDSEED
  5
2A0
  9
$SURFTAB1
 70
     6
  9
$SURFTAB2
 70
     6
  9
$SURFTYPE
 70
     6
  9
$SURFU
 70
     6
  9
$SURFV
 70
     6
  9
$UCSBASE
  2

  9
$UCSNAME
  2

  9
$UCSORG
 10
0.0
 20
0.0
 30
0.0
  9
$UCSXDIR
 10
1.0
 20
0.0
 30
0.0
  9
$UCSYDIR
 10
0.0
 20
1.0
 30
0.0
  9
$UCSORTHOREF
  2

  9
$UCSORTHOVIEW
 70
     0
  9
$UCSORGTOP
 10
0.0
 20
0.0
 30
0.0
  9
$UCSORGBOTTOM
 10
0.0
 20
0.0
 30
0.0
  9
$UCSORGLEFT
 10
0.0
 20
0.0
 30
0.0
  9
$UCSORGRIGHT
 10
0.0
 20
0.0
 30
0.0
  9
$UCSORGFRONT
 10
0.0
 20
0.0
 30
0.0
  9
$UCSORGBACK
 10
0.0
 20
0.0
 30
0.0
  9
$PUCSBASE
  2

  9
$PUCSNAME
  2

  9
$PUCSORG
 10
0.0
 20
0.0
 30
0.0
  9
$PUCSXDIR
 10
1.0
 20
0.0
 30
0.0
  9
$PUCSYDIR
 10
0.0
 20
1.0
 30
0.0
  9
$PUCSORTHOREF
  2

  9
$PUCSORTHOVIEW
 70
     0
  9
$PUCSORGTOP
 10
0.0
 20
0.0
 30
0.0
  9
$PUCSORGBOTTOM
 10
0.0
 20
0.0
 30
0.0
  9
$PUCSORGLEFT
 10
0.0
 20
0.0
 30
0.0
  9
$PUCSORGRIGHT
 10
0.0
 20
0.0
 30
0.0
  9
$PUCSORGFRONT
 10
0.0
 20
0.0
 30
0.0
  9
$PUCSORGBACK
 10
0.0
 20
0.0
 30
0.0
  9
$USERI1
 70
     0
  9
$USERI2
 70
     0
  9
$USERI3
 70
     0
  9
$USERI4
 70
     0
  9
$USERI5
 70
     0
  9
$USERR1
 40
0.0
  9
$USERR2
 40
0.0
  9
$USERR3
 40
0.0
  9
$USERR4
 40
0.0
  9
$USERR5
 40
0.0
  9
$WORLDVIEW
 70
     1
  9
$SHADEDGE
 70
     3
  9
$SHADEDIF
 70
    70
  9
$TILEMODE
 70
     1
  9
$MAXACTVP
 70
    64
  9
$PINSBASE
 10
0.0
 20
0.0
 30
0.0
  9
$PLIMCHECK
 70
     0
  9
$PEXTMIN
 10
0.0
 20
0.0
 30
0.0
  9
$PEXTMAX
 10
0.0
 20
0.0
 30
0.0
  9
$PLIMMIN
 10
-20.0
 20
-7.5
  9
$PLIMMAX
 10
277.0
 20
202.5
  9
$UNITMODE
 70
     0
  9
$VISRETAIN
 70
     1
  9
$PLINEGEN
 70
     0
  9
$PSLTSCALE
 70
     1
  9
$TREEDEPTH
 70
  3020
  9
$CMLSTYLE
  2
Standard
  9
$CMLJUST
 70
     0
  9
$CMLSCALE
 40
1.0
  9
$PROXYGRAPHICS
 70
     1
  9
$MEASUREMENT
 70
     1
  9
$CELWEIGHT
370
    -1
  9
$ENDCAPS
280
     0
  9
$JOINSTYLE
280
     0
  9
$LWDISPLAY
290
     0
  9
$INSUNITS
 70
     4
  9
$HYPERLINKBASE
  1

  9
$STYLESHEET
  1

  9
$XEDIT
290
     1
  9
$CEPSNTYPE
380
     0
  9
$PSTYLEMODE
290
     1
  9
$FINGERPRINTGUID
  2
{9db4e829-ba3d-9a44-bbb2-9280432e5120}
  9
$VERSIONGUID
  2
{FAEB1C32-E019-11D5-929B-00C0DF256EC4}
  9
$EXTNAMES
290
     1
  9
$PSVPSCALE
 40
0.0
  9
$OLESTARTUP
290
     0
  9
$SORTENTS
280
   127
  9
$INDEXCTL
280
     0
  9
$HIDETEXT
280
     1
  9
$XCLIPFRAME
280
     2
  9
$HALOGAP
280
     0
  9
$OBSCOLOR
 70
   257
  9
$OBSLTYPE
280
     0
  9
$INTERSECTIONDISPLAY
280
     0
  9
$INTERSECTIONCOLOR
 70
   257
  9
$DIMASSOC
280
     2
  9
$PROJECTNAME
  1

  9
$CAMERADISPLAY
290
     0
  9
$LENSLENGTH
 40
50.0
  9
$CAMERAHEIGHT
 40
0.0
  9
$STEPSPERSEC
 40
2.0
  9
$STEPSIZE
 40
6.0
  9
$3DDWFPREC
 40
2.0
  9
$PSOLWIDTH
 40
0.25
  9
$PSOLHEIGHT
 40
4.0
  9
$LOFTANG1
 40
1.570796326794897
  9
$LOFTANG2
 40
1.570796326794897
  9
$LOFTMAG1
 40
0.0
  9
$LOFTMAG2
 40
0.0
  9
$LOFTPARAM
 70
     7
  9
$LOFTNORMALS
280
     1
  9
$LATITUDE
 40
37.795
  9
$LONGITUDE
 40
-122.394
  9
$NORTHDIRECTION
 40
0.0
  9
$TIMEZONE
 70
 -8000
  9
$LIGHTGLYPHDISPLAY
280
     1
  9
$TILEMODELIGHTSYNCH
280
     1
  9
$CMATERIAL
347
210
  9
$SOLIDHIST
280
     0
  9
$SHOWHIST
280
     1
  9
$DWFFRAME
280
     2
  9
$DGNFRAME
280
     2
  9
$REALWORLDSCALE
290
     1
  9
$INTERFERECOLOR
 62
   256
  9
$CSHADOW
280
     0
  9
$SHADOWPLANELOCATION
 40
0.0
  0
ENDSEC
  0
SECTION
  2
CLASSES
  0
CLASS
  1
ACDBDICTIONARYWDFLT
  2
AcDbDictionaryWithDefault
  3
ObjectDBX Classes
 90
        0
 91
        3
280
     0
281
     0
  0
CLASS
  1
VISUALSTYLE
  2
AcDbVisualStyle
  3
ObjectDBX Classes
 90
     4095
 91
        3
280
     0
281
     0
  0
CLASS
  1
MATERIAL
  2
AcDbMaterial
  3
ObjectDBX Classes
 90
     1153
 91
        3
280
     0
281
     0
  0
CLASS
  1
SCALE
  2
AcDbScale
  3
ObjectDBX Classes
 90
     1153
 91
        3
280
     0
281
     0
  0
CLASS
  1
TABLESTYLE
  2
AcDbTableStyle
  3
ObjectDBX Classes
 90
     4095
 91
        3
280
     0
281
     0
  0
CLASS
  1
MLEADERSTYLE
  2
AcDbMLeaderStyle
  3
ACDB_MLEADERSTYLE_CLASS
 90
     4095
 91
        3
280
     0
281
     0
  0
CLASS
  1
SUN
  2
AcDbSun
  3
SCENEOE
 90
     1153
 91
        3
280
     0
281
     0
  0
CLASS
  1
DICTIONARYVAR
  2
AcDbDictionaryVar
  3
ObjectDBX Classes
 90
        0
 91
        3
280
     0
281
     0
  0
CLASS
  1
CELLSTYLEMAP
  2
AcDbCellStyleMap
  3
ObjectDBX Classes
 90
     1152
 91
        3
280
     0
281
     0
  0
ENDSEC
  0
SECTION
  2
TABLES
  0
TABLE
  2
VPORT
  5
1D5
330
0
100
AcDbSymbolTable
 70
     1
  0
VPORT
  5
1F5
330
1D5
100
AcDbSymbolTableRecord
100
AcDbViewportTableRecord
  2
*Active
 70
     0
 10
0.0
 20
0.0
 11
1.0
 21
1.0
 12
-138.9887544213739
 22
955.9983857327613
 13
0.0
 23
0.0
 14
0.5
 24
0.5
 15
0.5
 25
0.5
 16
0.0
 26
0.0
 36
1.0
 17
0.0
 27
0.0
 37
0.0
 40
523.419930650064
 41
1.358126721763085
 42
50.0
 43
0.0
 44
0.0
 50
0.0
 51
0.0
 71
     0
 72
   100
 73
     1
 74
     3
 75
     0
 76
     0
 77
     0
 78
     0
281
     0
 65
     1
110
0.0
120
0.0
130
0.0
111
1.0
121
0.0
131
0.0
112
0.0
122
1.0
132
0.0
 79
     0
146
0.0
348
1FB
 60
     3
 61
     5
292
     1
282
     1
141
0.0
142
0.0
 63
   250
361
229
  0
ENDTAB
  0
TABLE
  2
LTYPE
  5
1D2
330
0
100
AcDbSymbolTable
 70
    48
  0
LTYPE
  5
1E0
330
1D2
100
AcDbSymbolTableRecord
100
AcDbLinetypeTableRecord
  2
ByBlock
 70
     0
  3

 72
    65
 73
     0
 40
0.0
  0
LTYPE
  5
1E1
330
1D2
100
AcDbSymbolTableRecord
100
AcDbLinetypeTableRecord
  2
ByLayer
 70
     0
  3

 72
    65
 73
     0
 40
0.0
  0
LTYPE
  5
1E2
330
1D2
100
AcDbSymbolTableRecord
100
AcDbLinetypeTableRecord
  2
Continuous
 70
     0
  3
Solid line
 72
    65
 73
     0
 40
0.0
  0
LTYPE
  5
264
330
1D2
100
AcDbSymbolTableRecord
100
AcDbLinetypeTableRecord
  2
FENCELINE1
 70
     0
  3
Fenceline circle ----0-----0----0-----0----0-----0--
 72
    65
 73
     4
 40
36.83
 49
6.35
 74
     0
 49
-2.54
 74
     2
 75
     0
340
263
 46
2.54
 50
0.0
 44
-2.54
 45
0.0
  9
CIRC1
 49
-2.54
 74
     0
 49
25.4
 74
     0
  0
LTYPE
  5
266
330
1D2
100
AcDbSymbolTableRecord
100
AcDbLinetypeTableRecord
  2
DRAINAGE2
 70
     0
  3
Drainage reversed----<----<----<----
 72
    65
 73
     2
 40
10.16
 49
5.08
 74
     2
 75
     0
340
265
 46
2.54
 50
0.0
 44
0.0
 45
0.0
  9
RIGHT_ARROW
 49
5.08
 74
     0
  0
LTYPE
  5
267
330
1D2
100
AcDbSymbolTableRecord
100
AcDbLinetypeTableRecord
  2
TRACKS
 70
     0
  3
Tracks -|-|-|-|-|-|-|-|-|-|-|-|-|-|-|-|-|-|-|-|-|-|-|-|-
 72
    65
 73
     2
 40
7.62
 49
3.81
 74
     2
 75
     0
340
263
 46
6.35
 50
0.0
 44
0.0
 45
0.0
  9
TRACK1
 49
3.81
 74
     0
  0
LTYPE
  5
268
330
1D2
100
AcDbSymbolTableRecord
100
AcDbLinetypeTableRecord
  2
PHANTOMX2
 70
     0
  3
Phantom (2x) ____________    ____    ____   _
 72
    65
 73
     6
 40
127.0
 49
63.5
 74
     0
 49
-12.7
 74
     0
 49
12.7
 74
     0
 49
-12.7
 74
     0
 49
12.7
 74
     0
 49
-12.7
 74
     0
  0
LTYPE
  5
269
330
1D2
100
AcDbSymbolTableRecord
100
AcDbLinetypeTableRecord
  2
ZIGZAG
 70
     0
  3
Zig zag /\/\/\/\/\/\/\/\/\/\/\/\/\/\/\/\/\/\/\/\/\/\/\/
 72
    65
 73
     4
 40
20.32254
 49
0.00254
 74
     0
 49
-5.08
 74
     2
 75
     0
340
263
 46
5.08
 50
0.0
 44
-5.08
 45
0.0
  9
ZIG
 49
-10.16
 74
     2
 75
     0
340
263
 46
5.08
 50
180.0
 44
5.08
 45
0.0
  9
ZIG
 49
-5.08
 74
     0
  0
LTYPE
  5
26B
330
1D2
100
AcDbSymbolTableRecord
100
AcDbLinetypeTableRecord
  2
HOT_WATER_SUPPLY
 70
     0
  3
Hot water supply ---- HW ---- HW ---- HW ----
 72
    65
 73
     3
 40
22.86
 49
12.7
 74
     0
 49
-5.08
 74
     2
 75
     0
340
26A
 46
2.54
 50
0.0
 44
-2.54
 45
-1.27
  9
HW
 49
-5.08
 74
     0
  0
LTYPE
  5
26C
330
1D2
100
AcDbSymbolTableRecord
100
AcDbLinetypeTableRecord
  2
HIDDENX2
 70
     0
  3
Hidden (2x) ____ ____ ____ ____ ____ ____ ____ 
 72
    65
 73
     2
 40
19.05
 49
12.7
 74
     0
 49
-6.35
 74
     0
  0
LTYPE
  5
26D
330
1D2
100
AcDbSymbolTableRecord
100
AcDbLinetypeTableRecord
  2
PHANTOM2
 70
     0
  3
Phantom (.5x) ___ _ _ ___ _ _ ___ _ _ ___ _ _
 72
    65
 73
     6
 40
31.75
 49
15.875
 74
     0
 49
-3.175
 74
     0
 49
3.175
 74
     0
 49
-3.175
 74
     0
 49
3.175
 74
     0
 49
-3.175
 74
     0
  0
LTYPE
  5
26E
330
1D2
100
AcDbSymbolTableRecord
100
AcDbLinetypeTableRecord
  2
PHANTOM
 70
     0
  3
Phantom ______  __  __  ______  __  __  ______ 
 72
    65
 73
     6
 40
63.50000000000001
 49
31.75
 74
     0
 49
-6.35
 74
     0
 49
6.35
 74
     0
 49
-6.35
 74
     0
 49
6.35
 74
     0
 49
-6.35
 74
     0
  0
LTYPE
  5
26F
330
1D2
100
AcDbSymbolTableRecord
100
AcDbLinetypeTableRecord
  2
ACAD_ISO07W100
 70
     0
  3
ISO dot . . . . . . . . . . . . . . . . . . . . 
 72
    65
 73
     2
 40
3.0
 49
0.0
 74
     0
 49
-3.0
 74
     0
  0
LTYPE
  5
270
330
1D2
100
AcDbSymbolTableRecord
100
AcDbLinetypeTableRecord
  2
ACAD_ISO06W100
 70
     0
  3
ISO long-dash triple-dot ____ ... ____ ... ____
 72
    65
 73
     8
 40
36.0
 49
24.0
 74
     0
 49
-3.0
 74
     0
 49
0.0
 74
     0
 49
-3.0
 74
     0
 49
0.0
 74
     0
 49
-3.0
 74
     0
 49
0.0
 74
     0
 49
-3.0
 74
     0
  0
LTYPE
  5
271
330
1D2
100
AcDbSymbolTableRecord
100
AcDbLinetypeTableRecord
  2
ACAD_ISO09W100
 70
     0
  3
ISO long-dash double-short-dash ____ __ __ ____
 72
    65
 73
     6
 40
45.0
 49
24.0
 74
     0
 49
-3.0
 74
     0
 49
6.0
 74
     0
 49
-3.0
 74
     0
 49
6.0
 74
     0
 49
-3.0
 74
     0
  0
LTYPE
  5
272
330
1D2
100
AcDbSymbolTableRecord
100
AcDbLinetypeTableRecord
  2
ACAD_ISO08W100
 70
     0
  3
ISO long-dash short-dash ____ __ ____ __ ____ _
 72
    65
 73
     4
 40
36.0
 49
24.0
 74
     0
 49
-3.0
 74
     0
 49
6.0
 74
     0
 49
-3.0
 74
     0
  0
LTYPE
  5
273
330
1D2
100
AcDbSymbolTableRecord
100
AcDbLinetypeTableRecord
  2
ACAD_ISO03W100
 70
     0
  3
ISO dash space __    __    __    __    __    __
 72
    65
 73
     2
 40
30.0
 49
12.0
 74
     0
 49
-18.0
 74
     0
  0
LTYPE
  5
274
330
1D2
100
AcDbSymbolTableRecord
100
AcDbLinetypeTableRecord
  2
ACAD_ISO02W100
 70
     0
  3
ISO dash __ __ __ __ __ __ __ __ __ __ __ __ __
 72
    65
 73
     2
 40
15.0
 49
12.0
 74
     0
 49
-3.0
 74
     0
  0
LTYPE
  5
275
330
1D2
100
AcDbSymbolTableRecord
100
AcDbLinetypeTableRecord
  2
ACAD_ISO05W100
 70
     0
  3
ISO long-dash double-dot ____ .. ____ .. ____ . 
 72
    65
 73
     6
 40
33.0
 49
24.0
 74
     0
 49
-3.0
 74
     0
 49
0.0
 74
     0
 49
-3.0
 74
     0
 49
0.0
 74
     0
 49
-3.0
 74
     0
  0
LTYPE
  5
276
330
1D2
100
AcDbSymbolTableRecord
100
AcDbLinetypeTableRecord
  2
ACAD_ISO04W100
 70
     0
  3
ISO long-dash dot ____ . ____ . ____ . ____ . _
 72
    65
 73
     4
 40
30.0
 49
24.0
 74
     0
 49
-3.0
 74
     0
 49
0.0
 74
     0
 49
-3.0
 74
     0
  0
LTYPE
  5
277
330
1D2
100
AcDbSymbolTableRecord
100
AcDbLinetypeTableRecord
  2
ACAD_ISO15W100
 70
     0
  3
ISO double-dash triple-dot __ __ . . . __ __ . .
 72
    65
 73
    10
 40
39.0
 49
12.0
 74
     0
 49
-3.0
 74
     0
 49
12.0
 74
     0
 49
-3.0
 74
     0
 49
0.0
 74
     0
 49
-3.0
 74
     0
 49
0.0
 74
     0
 49
-3.0
 74
     0
 49
0.0
 74
     0
 49
-3.0
 74
     0
  0
LTYPE
  5
278
330
1D2
100
AcDbSymbolTableRecord
100
AcDbLinetypeTableRecord
  2
ACAD_ISO14W100
 70
     0
  3
ISO dash triple-dot __ . . . __ . . . __ . . . _
 72
    65
 73
     8
 40
24.0
 49
12.0
 74
     0
 49
-3.0
 74
     0
 49
0.0
 74
     0
 49
-3.0
 74
     0
 49
0.0
 74
     0
 49
-3.0
 74
     0
 49
0.0
 74
     0
 49
-3.0
 74
     0
  0
LTYPE
  5
279
330
1D2
100
AcDbSymbolTableRecord
100
AcDbLinetypeTableRecord
  2
BORDER
 70
     0
  3
Border __ __ . __ __ . __ __ . __ __ . __ __ .
 72
    65
 73
     6
 40
44.45
 49
12.7
 74
     0
 49
-6.35
 74
     0
 49
12.7
 74
     0
 49
-6.35
 74
     0
 49
0.0
 74
     0
 49
-6.35
 74
     0
  0
LTYPE
  5
27A
330
1D2
100
AcDbSymbolTableRecord
100
AcDbLinetypeTableRecord
  2
BATTING
 70
     0
  3
Batting SSSSSSSSSSSSSSSSSSSSSSSSSSSSSSSSSSSSSSSSSSSSSSS
 72
    65
 73
     4
 40
10.16254
 49
0.00254
 74
     0
 49
-2.54
 74
     2
 75
     0
340
263
 46
2.54
 50
0.0
 44
-2.54
 45
0.0
  9
BAT
 49
-5.08
 74
     2
 75
     0
340
263
 46
2.54
 50
180.0
 44
2.54
 45
0.0
  9
BAT
 49
-2.54
 74
     0
  0
LTYPE
  5
27B
330
1D2
100
AcDbSymbolTableRecord
100
AcDbLinetypeTableRecord
  2
ACAD_ISO11W100
 70
     0
  3
ISO double-dash dot __ __ . __ __ . __ __ . __ _
 72
    65
 73
     6
 40
33.0
 49
12.0
 74
     0
 49
-3.0
 74
     0
 49
12.0
 74
     0
 49
-3.0
 74
     0
 49
0.0
 74
     0
 49
-3.0
 74
     0
  0
LTYPE
  5
27C
330
1D2
100
AcDbSymbolTableRecord
100
AcDbLinetypeTableRecord
  2
ACAD_ISO10W100
 70
     0
  3
ISO dash dot __ . __ . __ . __ . __ . __ . __ . 
 72
    65
 73
     4
 40
18.0
 49
12.0
 74
     0
 49
-3.0
 74
     0
 49
0.0
 74
     0
 49
-3.0
 74
     0
  0
LTYPE
  5
27D
330
1D2
100
AcDbSymbolTableRecord
100
AcDbLinetypeTableRecord
  2
ACAD_ISO13W100
 70
     0
  3
ISO double-dash double-dot __ __ . . __ __ . . _
 72
    65
 73
     8
 40
36.0
 49
12.0
 74
     0
 49
-3.0
 74
     0
 49
12.0
 74
     0
 49
-3.0
 74
     0
 49
0.0
 74
     0
 49
-3.0
 74
     0
 49
0.0
 74
     0
 49
-3.0
 74
     0
  0
LTYPE
  5
27E
330
1D2
100
AcDbSymbolTableRecord
100
AcDbLinetypeTableRecord
  2
ACAD_ISO12W100
 70
     0
  3
ISO dash double-dot __ . . __ . . __ . . __ . . 
 72
    65
 73
     6
 40
21.0
 49
12.0
 74
     0
 49
-3.0
 74
     0
 49
0.0
 74
     0
 49
-3.0
 74
     0
 49
0.0
 74
     0
 49
-3.0
 74
     0
  0
LTYPE
  5
27F
330
1D2
100
AcDbSymbolTableRecord
100
AcDbLinetypeTableRecord
  2
DASHDOT
 70
     0
  3
Dash dot __ . __ . __ . __ . __ . __ . __ . __
 72
    65
 73
     4
 40
25.4
 49
12.7
 74
     0
 49
-6.35
 74
     0
 49
0.0
 74
     0
 49
-6.35
 74
     0
  0
LTYPE
  5
280
330
1D2
100
AcDbSymbolTableRecord
100
AcDbLinetypeTableRecord
  2
CENTERX2
 70
     0
  3
Center (2x) ________  __  ________  __  _____
 72
    65
 73
     4
 40
101.6
 49
63.5
 74
     0
 49
-12.7
 74
     0
 49
12.7
 74
     0
 49
-12.7
 74
     0
  0
LTYPE
  5
281
330
1D2
100
AcDbSymbolTableRecord
100
AcDbLinetypeTableRecord
  2
DASHDOTX2
 70
     0
  3
Dash dot (2x) ____  .  ____  .  ____  .  ___
 72
    65
 73
     4
 40
50.8
 49
25.4
 74
     0
 49
-12.7
 74
     0
 49
0.0
 74
     0
 49
-12.7
 74
     0
  0
LTYPE
  5
282
330
1D2
100
AcDbSymbolTableRecord
100
AcDbLinetypeTableRecord
  2
DASHDOT2
 70
     0
  3
Dash dot (.5x) _._._._._._._._._._._._._._._.
 72
    65
 73
     4
 40
12.7
 49
6.35
 74
     0
 49
-3.175
 74
     0
 49
0.0
 74
     0
 49
-3.175
 74
     0
  0
LTYPE
  5
283
330
1D2
100
AcDbSymbolTableRecord
100
AcDbLinetypeTableRecord
  2
BORDERX2
 70
     0
  3
Border (2x) ____  ____  .  ____  ____  .  ___
 72
    65
 73
     6
 40
88.89999999999999
 49
25.4
 74
     0
 49
-12.7
 74
     0
 49
25.4
 74
     0
 49
-12.7
 74
     0
 49
0.0
 74
     0
 49
-12.7
 74
     0
  0
LTYPE
  5
284
330
1D2
100
AcDbSymbolTableRecord
100
AcDbLinetypeTableRecord
  2
BORDER2
 70
     0
  3
Border (.5x) __.__.__.__.__.__.__.__.__.__.__.
 72
    65
 73
     6
 40
22.225
 49
6.35
 74
     0
 49
-3.175
 74
     0
 49
6.35
 74
     0
 49
-3.175
 74
     0
 49
0.0
 74
     0
 49
-3.175
 74
     0
  0
LTYPE
  5
285
330
1D2
100
AcDbSymbolTableRecord
100
AcDbLinetypeTableRecord
  2
CENTER2
 70
     0
  3
Center (.5x) ___ _ ___ _ ___ _ ___ _ ___ _ ___
 72
    65
 73
     4
 40
28.575
 49
19.05
 74
     0
 49
-3.175
 74
     0
 49
3.175
 74
     0
 49
-3.175
 74
     0
  0
LTYPE
  5
286
330
1D2
100
AcDbSymbolTableRecord
100
AcDbLinetypeTableRecord
  2
CENTER
 70
     0
  3
Center ____ _ ____ _ ____ _ ____ _ ____ _ ____
 72
    65
 73
     4
 40
50.8
 49
31.75
 74
     0
 49
-6.35
 74
     0
 49
6.35
 74
     0
 49
-6.35
 74
     0
  0
LTYPE
  5
287
330
1D2
100
AcDbSymbolTableRecord
100
AcDbLinetypeTableRecord
  2
DIVIDEX2
 70
     0
  3
Divide (2x) ________  .  .  ________  .  .  _
 72
    65
 73
     6
 40
63.5
 49
25.4
 74
     0
 49
-12.7
 74
     0
 49
0.0
 74
     0
 49
-12.7
 74
     0
 49
0.0
 74
     0
 49
-12.7
 74
     0
  0
LTYPE
  5
288
330
1D2
100
AcDbSymbolTableRecord
100
AcDbLinetypeTableRecord
  2
DIVIDE2
 70
     0
  3
Divide (.5x) __..__..__..__..__..__..__..__.._
 72
    65
 73
     6
 40
15.875
 49
6.35
 74
     0
 49
-3.175
 74
     0
 49
0.0
 74
     0
 49
-3.175
 74
     0
 49
0.0
 74
     0
 49
-3.175
 74
     0
  0
LTYPE
  5
289
330
1D2
100
AcDbSymbolTableRecord
100
AcDbLinetypeTableRecord
  2
DOT2
 70
     0
  3
Dot (.5x) ........................................
 72
    65
 73
     2
 40
3.175
 49
0.0
 74
     0
 49
-3.175
 74
     0
  0
LTYPE
  5
28A
330
1D2
100
AcDbSymbolTableRecord
100
AcDbLinetypeTableRecord
  2
DOT
 70
     0
  3
Dot . . . . . . . . . . . . . . . . . . . . . . . .
 72
    65
 73
     2
 40
6.35
 49
0.0
 74
     0
 49
-6.35
 74
     0
  0
LTYPE
  5
28B
330
1D2
100
AcDbSymbolTableRecord
100
AcDbLinetypeTableRecord
  2
DASHED2
 70
     0
  3
Dashed (.5x) _ _ _ _ _ _ _ _ _ _ _ _ _ _ _ _ _ 
 72
    65
 73
     2
 40
9.524999999999999
 49
6.35
 74
     0
 49
-3.175
 74
     0
  0
LTYPE
  5
28C
330
1D2
100
AcDbSymbolTableRecord
100
AcDbLinetypeTableRecord
  2
DASHED
 70
     0
  3
Dashed __ __ __ __ __ __ __ __ __ __ __ __ __ _
 72
    65
 73
     2
 40
19.05
 49
12.7
 74
     0
 49
-6.35
 74
     0
  0
LTYPE
  5
28D
330
1D2
100
AcDbSymbolTableRecord
100
AcDbLinetypeTableRecord
  2
DIVIDE
 70
     0
  3
Divide ____ . . ____ . . ____ . . ____ . . ____
 72
    65
 73
     6
 40
31.75
 49
12.7
 74
     0
 49
-6.35
 74
     0
 49
0.0
 74
     0
 49
-6.35
 74
     0
 49
0.0
 74
     0
 49
-6.35
 74
     0
  0
LTYPE
  5
28E
330
1D2
100
AcDbSymbolTableRecord
100
AcDbLinetypeTableRecord
  2
DASHEDX2
 70
     0
  3
Dashed (2x) ____  ____  ____  ____  ____  ___
 72
    65
 73
     2
 40
38.09999999999999
 49
25.4
 74
     0
 49
-12.7
 74
     0
  0
LTYPE
  5
28F
330
1D2
100
AcDbSymbolTableRecord
100
AcDbLinetypeTableRecord
  2
GAS_LINE
 70
     0
  3
Gas line ----GAS----GAS----GAS----GAS----GAS----GAS--
 72
    65
 73
     3
 40
24.13
 49
12.7
 74
     0
 49
-5.08
 74
     2
 75
     0
340
26A
 46
2.54
 50
0.0
 44
-2.54
 45
-1.27
  9
GAS
 49
-6.35
 74
     0
  0
LTYPE
  5
290
330
1D2
100
AcDbSymbolTableRecord
100
AcDbLinetypeTableRecord
  2
FENCELINE2
 70
     0
  3
Fenceline square ----[]-----[]----[]-----[]----[]---
 72
    65
 73
     4
 40
36.83
 49
6.35
 74
     0
 49
-2.54
 74
     2
 75
     0
340
263
 46
2.54
 50
0.0
 44
-2.54
 45
0.0
  9
BOX
 49
-2.54
 74
     0
 49
25.4
 74
     0
  0
LTYPE
  5
291
330
1D2
100
AcDbSymbolTableRecord
100
AcDbLinetypeTableRecord
  2
HIDDEN2
 70
     0
  3
Hidden (.5x) _ _ _ _ _ _ _ _ _ _ _ _ _ _ _ _ _ 
 72
    65
 73
     2
 40
4.762499999999999
 49
3.175
 74
     0
 49
-1.5875
 74
     0
  0
LTYPE
  5
292
330
1D2
100
AcDbSymbolTableRecord
100
AcDbLinetypeTableRecord
  2
HIDDEN
 70
     0
  3
Hidden __ __ __ __ __ __ __ __ __ __ __ __ __ __
 72
    65
 73
     2
 40
9.524999999999999
 49
6.35
 74
     0
 49
-3.175
 74
     0
  0
LTYPE
  5
293
330
1D2
100
AcDbSymbolTableRecord
100
AcDbLinetypeTableRecord
  2
DRAINAGE
 70
     0
  3
Drainage ---->---->---->----
 72
    65
 73
     2
 40
10.16
 49
5.08
 74
     2
 75
     0
340
265
 46
2.54
 50
180.0
 44
0.0
 45
0.0
  9
RIGHT_ARROW
 49
5.08
 74
     0
  0
LTYPE
  5
294
330
1D2
100
AcDbSymbolTableRecord
100
AcDbLinetypeTableRecord
  2
DOTX2
 70
     0
  3
Dot (2x) .  .  .  .  .  .  .  .  .  .  .  .  .  .
 72
    65
 73
     2
 40
12.7
 49
0.0
 74
     0
 49
-12.7
 74
     0
  0
ENDTAB
  0
TABLE
  2
LAYER
  5
1D0
330
0
100
AcDbSymbolTable
 70
     1
  0
LAYER
  5
1DD
330
1D0
100
AcDbSymbolTableRecord
100
AcDbLayerTableRecord
  2
0
 70
     0
 62
     7
  6
Continuous
370
    25
390
1DC
347
212
348
0
  0
ENDTAB
  0
TABLE
  2
STYLE
  5
1D1
330
0
100
AcDbSymbolTable
 70
     4
  0
STYLE
  5
1DE
330
1D1
100
AcDbSymbolTableRecord
100
AcDbTextStyleTableRecord
  2
Standard
 70
     0
 40
0.0
 41
1.0
 50
0.0
 71
     0
 42
0.2
  3
txt
  4

  0
STYLE
  5
263
330
1D1
100
AcDbSymbolTableRecord
100
AcDbTextStyleTableRecord
  2
textstyle0
 70
     0
 40
0.0
 41
1.0
 50
0.0
 71
     0
 42
0.2
  3
ltypeshp.shx
  4

  0
STYLE
  5
265
330
1D1
100
AcDbSymbolTableRecord
100
AcDbTextStyleTableRecord
  2
textstyle1
 70
     0
 40
0.0
 41
1.0
 50
0.0
 71
     0
 42
0.2
  3
qcadshp.shx
  4

  0
STYLE
  5
26A
330
1D1
100
AcDbSymbolTableRecord
100
AcDbTextStyleTableRecord
  2
textstyle2
 70
     0
 40
0.0
 41
1.0
 50
0.0
 71
     0
 42
0.2
  3
STANDARD
  4

  0
ENDTAB
  0
TABLE
  2
VIEW
  5
1D3
330
0
100
AcDbSymbolTable
 70
     0
  0
ENDTAB
  0
TABLE
  2
UCS
  5
1D4
330
0
100
AcDbSymbolTable
 70
     0
  0
ENDTAB
  0
TABLE
  2
APPID
  5
1D6
330
0
100
AcDbSymbolTable
 70
     2
  0
APPID
  5
1DF
330
1D6
100
AcDbSymbolTableRecord
100
AcDbRegAppTableRecord
  2
ACAD
 70
     0
  0
APPID
  5
22A
330
1D6
100
AcDbSymbolTableRecord
100
AcDbRegAppTableRecord
  2
QCAD
 70
     0
  0
ENDTAB
  0
TABLE
  2
DIMSTYLE
  5
1D7
330
0
100
AcDbSymbolTable
 70
     2
100
AcDbDimStyleTable
  0
DIMSTYLE
105
1F3
330
1D7
100
AcDbSymbolTableRecord
100
AcDbDimStyleTableRecord
  2
Standard
 70
     0
178
     0
340
1DE
  0
DIMSTYLE
105
262
330
1D7
100
AcDbSymbolTableRecord
100
AcDbDimStyleTableRecord
  2
QCADDimStyle
 70
     0
 41
2.5
 42
0.625
 43
5.0
 44
1.25
 73
     0
 77
     1
 78
     8
 79
     2
140
2.5
147
0.625
178
     0
279
     2
340
1DE
  0
ENDTAB
  0
TABLE
  2
BLOCK_RECORD
  5
1CF
330
0
100
AcDbSymbolTable
 70
     0
  0
BLOCK_RECORD
  5
1EB
330
1CF
100
AcDbSymbolTableRecord
100
AcDbBlockTableRecord
  2
*Model_Space
340
1EE
 70
     0
280
     1
281
     0
  0
BLOCK_RECORD
  5
1E7
330
1CF
100
AcDbSymbolTableRecord
100
AcDbBlockTableRecord
  2
*Paper_Space
340
1EA
 70
     0
280
     1
281
     0
  0
ENDTAB
  0
ENDSEC
  0
SECTION
  2
BLOCKS
  0
BLOCK
  5
1EC
330
1EB
100
AcDbEntity
  8
0
100
AcDbBlockBegin
  2
*Model_Space
 70
     0
 10
0.0
 20
0.0
 30
0.0
  3
*Model_Space
  1

  0
ENDBLK
  5
1ED
330
1EB
100
AcDbEntity
  8
0
100
AcDbBlockEnd
  0
BLOCK
  5
1E8
330
1E7
100
AcDbEntity
 67
     1
  8
0
100
AcDbBlockBegin
  2
*Paper_Space
 70
     0
 10
0.0
 20
0.0
 30
0.0
  3
*Paper_Space
  1

  0
ENDBLK
  5
1E9
330
1E7
100
AcDbEntity
 67
     1
  8
0
100
AcDbBlockEnd
  0
ENDSEC
  0
SECTION
  2
ENTITIES
  0
LINE
  5
3A
330
1EB
100
AcDbEntity
  8
0
100
AcDbLine
 10
70.0
 20
0.0
 30
0.0
 11
139.9999999999997
 21
0.0
 31
0.0
  0
LINE
  5
3B
330
1EB
100
AcDbEntity
  8
0
100
AcDbLine
 10
139.9999999999997
 20
0.0
 30
0.0
 11
139.9999999999994
 21
1100.0
 31
0.0
  0
LINE
  5
3C
330
1EB
100
AcDbEntity
  8
0
100
AcDbLine
 10
139.9999999999994
 20
1100.0
 30
0.0
 11
70.00000000000017
 21
1100.0
 31
0.0
  0
CIRCLE
  5
3D
330
1EB
100
AcDbEntity
  8
0
100
AcDbCircle
 10
97.0000000000004
 20
1050.0
 30
0.0
 40
1.75
  0
CIRCLE
  5
3E
330
1EB
100
AcDbEntity
  8
0
100
AcDbCircle
 10
97.0000000000004
 20
1025.0
 30
0.0
 40
1.75
  0
CIRCLE
  5
3F
330
1EB
100
AcDbEntity
  8
0
100
AcDbCircle
 10
97.00000000000023
 20
1000.0
 30
0.0
 40
1.75
  0
CIRCLE
  5
40
330
1EB
100
AcDbEntity
  8
0
100
AcDbCircle
 10
97.0000000000004
 20
975.0000000000001
 30
0.0
 40
1.75
  0
CIRCLE
  5
41
330
1EB
100
AcDbEntity
  8
0
100
AcDbCircle
 10
97.0000000000004
 20
950.0000000000001
 30
0.0
 40
1.75
  0
CIRCLE
  5
42
330
1EB
100
AcDbEntity
  8
0
100
AcDbCircle
 10
97.00000000000028
 20
925.0
 30
0.0
 40
1.75
  0
CIRCLE
  5
43
330
1EB
100
AcDbEntity
  8
0
100
AcDbCircle
 10
97.00000000000028
 20
900.0
 30
0.0
 40
1.75
  0
CIRCLE
  5
44
330
1EB
100
AcDbEntity
  8
0
100
AcDbCircle
 10
97.00000000000017
 20
875.0
 30
0.0
 40
1.75
  0
CIRCLE
  5
45
330
1EB
100
AcDbEntity
  8
0
100
AcDbCircle
 10
97.00000000000017
 20
850.0
 30
0.0
 40
1.75
  0
CIRCLE
  5
46
330
1EB
100
AcDbEntity
  8
0
100
AcDbCircle
 10
97.00000000000023
 20
825.0
 30
0.0
 40
1.75
  0
CIRCLE
  5
47
330
1EB
100
AcDbEntity
  8
0
100
AcDbCircle
 10
97.00000000000017
 20
800.0
 30
0.0
 40
1.75
  0
CIRCLE
  5
48
330
1EB
100
AcDbEntity
  8
0
100
AcDbCircle
 10
97.00000000000023
 20
775.0
 30
0.0
 40
1.75
  0
CIRCLE
  5
49
330
1EB
100
AcDbEntity
  8
0
100
AcDbCircle
 10
97.00000000000017
 20
750.0000000000001
 30
0.0
 40
1.75
  0
CIRCLE
  5
4A
330
1EB
100
AcDbEntity
  8
0
100
AcDbCircle
 10
97.00000000000028
 20
725.0000000000001
 30
0.0
 40
1.75
  0
CIRCLE
  5
4B
330
1EB
100
AcDbEntity
  8
0
100
AcDbCircle
 10
97.00000000000023
 20
700.0000000000001
 30
0.0
 40
1.75
  0
CIRCLE
  5
4C
330
1EB
100
AcDbEntity
  8
0
100
AcDbCircle
 10
97.00000000000017
 20
675.0
 30
0.0
 40
1.75
  0
CIRCLE
  5
4D
330
1EB
100
AcDbEntity
  8
0
100
AcDbCircle
 10
97.00000000000017
 20
650.0
 30
0.0
 40
1.75
  0
CIRCLE
  5
4E
330
1EB
100
AcDbEntity
  8
0
100
AcDbCircle
 10
97.00000000000017
 20
625.0000000000001
 30
0.0
 40
1.75
  0
CIRCLE
  5
4F
330
1EB
100
AcDbEntity
  8
0
100
AcDbCircle
 10
97.00000000000017
 20
600.0000000000001
 30
0.0
 40
1.75
  0
CIRCLE
  5
50
330
1EB
100
AcDbEntity
  8
0
100
AcDbCircle
 10
97.00000000000017
 20
575.0
 30
0.0
 40
1.75
  0
CIRCLE
  5
51
330
1EB
100
AcDbEntity
  8
0
100
AcDbCircle
 10
97.00000000000011
 20
550.0000000000001
 30
0.0
 40
1.75
  0
CIRCLE
  5
52
330
1EB
100
AcDbEntity
  8
0
100
AcDbCircle
 10
97.00000000000011
 20
525.0000000000001
 30
0.0
 40
1.75
  0
CIRCLE
  5
53
330
1EB
100
AcDbEntity
  8
0
100
AcDbCircle
 10
97.00000000000017
 20
500.0000000000001
 30
0.0
 40
1.75
  0
CIRCLE
  5
54
330
1EB
100
AcDbEntity
  8
0
100
AcDbCircle
 10
97.00000000000023
 20
474.9999999999999
 30
0.0
 40
1.75
  0
CIRCLE
  5
55
330
1EB
100
AcDbEntity
  8
0
100
AcDbCircle
 10
97.00000000000017
 20
450.0
 30
0.0
 40
1.75
  0
CIRCLE
  5
56
330
1EB
100
AcDbEntity
  8
0
100
AcDbCircle
 10
97.00000000000017
 20
425.0
 30
0.0
 40
1.75
  0
CIRCLE
  5
57
330
1EB
100
AcDbEntity
  8
0
100
AcDbCircle
 10
97.00000000000006
 20
400.0000000000001
 30
0.0
 40
1.75
  0
CIRCLE
  5
58
330
1EB
100
AcDbEntity
  8
0
100
AcDbCircle
 10
97.00000000000017
 20
375.0
 30
0.0
 40
1.75
  0
CIRCLE
  5
59
330
1EB
100
AcDbEntity
  8
0
100
AcDbCircle
 10
97.00000000000011
 20
350.0
 30
0.0
 40
1.75
  0
CIRCLE
  5
5A
330
1EB
100
AcDbEntity
  8
0
100
AcDbCircle
 10
97.00000000000011
 20
325.0
 30
0.0
 40
1.75
  0
CIRCLE
  5
5B
330
1EB
100
AcDbEntity
  8
0
100
AcDbCircle
 10
97.00000000000023
 20
300.0
 30
0.0
 40
1.75
  0
CIRCLE
  5
5C
330
1EB
100
AcDbEntity
  8
0
100
AcDbCircle
 10
97.00000000000017
 20
275.0
 30
0.0
 40
1.75
  0
CIRCLE
  5
5D
330
1EB
100
AcDbEntity
  8
0
100
AcDbCircle
 10
97.00000000000028
 20
250.0
 30
0.0
 40
1.75
  0
CIRCLE
  5
5E
330
1EB
100
AcDbEntity
  8
0
100
AcDbCircle
 10
97.00000000000011
 20
225.0
 30
0.0
 40
1.75
  0
CIRCLE
  5
5F
330
1EB
100
AcDbEntity
  8
0
100
AcDbCircle
 10
96.99999999999994
 20
200.0000000000001
 30
0.0
 40
1.75
  0
CIRCLE
  5
60
330
1EB
100
AcDbEntity
  8
0
100
AcDbCircle
 10
97.00000000000028
 20
175.0
 30
0.0
 40
1.75
  0
CIRCLE
  5
61
330
1EB
100
AcDbEntity
  8
0
100
AcDbCircle
 10
97.00000000000011
 20
150.0000000000001
 30
0.0
 40
1.75
  0
CIRCLE
  5
62
330
1EB
100
AcDbEntity
  8
0
100
AcDbCircle
 10
97.00000000000017
 20
125.0
 30
0.0
 40
1.75
  0
CIRCLE
  5
63
330
1EB
100
AcDbEntity
  8
0
100
AcDbCircle
 10
97.00000000000023
 20
100.0
 30
0.0
 40
1.75
  0
CIRCLE
  5
64
330
1EB
100
AcDbEntity
  8
0
100
AcDbCircle
 10
96.99999999999977
 20
75.0
 30
0.0
 40
1.75
  0
CIRCLE
  5
65
330
1EB
100
AcDbEntity
  8
0
100
AcDbCircle
 10
96.99999999999943
 20
50.0
 30
0.0
 40
1.75
  0
CIRCLE
  5
66
330
1EB
100
AcDbEntity
  8
0
100
AcDbCircle
 10
103.0000000000008
 20
35.0
 30
0.0
 40
1.75
  0
CIRCLE
  5
67
330
1EB
100
AcDbEntity
  8
0
100
AcDbCircle
 10
102.9999999999993
 20
5.000000000000114
 30
0.0
 40
1.75
  0
CIRCLE
  5
68
330
1EB
100
AcDbEntity
  8
0
100
AcDbCircle
 10
132.9999999999997
 20
35.0
 30
0.0
 40
1.75
  0
CIRCLE
  5
69
330
1EB
100
AcDbEntity
  8
0
100
AcDbCircle
 10
133.0000000000003
 20
5.0
 30
0.0
 40
1.75
  0
CIRCLE
  5
6C
330
1EB
100
AcDbEntity
  8
0
100
AcDbCircle
 10
118.0000000000005
 20
20.0
 30
0.0
 40
9.0
  0
CIRCLE
  5
6E
330
1EB
100
AcDbEntity
  8
0
100
AcDbCircle
 10
117.999999999999
 20
1080.0
 30
0.0
 40
1.75
  0
LINE
  5
7B
330
1EB
100
AcDbEntity
  8
0
100
AcDbLine
 10
76.40000000000032
 20
1076.4
 30
0.0
 11
76.40000000000043
 21
1063.6
 31
0.0
  0
LINE
  5
7D
330
1EB
100
AcDbEntity
  8
0
100
AcDbLine
 10
76.40000000000026
 20
1036.4
 30
0.0
 11
76.40000000000032
 21
1023.6
 31
0.0
  0
LINE
  5
82
330
1EB
100
AcDbEntity
  8
0
100
AcDbLine
 10
76.40000000000038
 20
996.4000000000001
 30
0.0
 11
76.40000000000038
 21
983.6000000000001
 31
0.0
  0
LINE
  5
87
330
1EB
100
AcDbEntity
  8
0
100
AcDbLine
 10
76.40000000000032
 20
956.4000000000001
 30
0.0
 11
76.4000000000002
 21
943.6000000000001
 31
0.0
  0
LINE
  5
8C
330
1EB
100
AcDbEntity
  8
0
100
AcDbLine
 10
76.40000000000015
 20
916.4000000000001
 30
0.0
 11
76.4000000000002
 21
903.6000000000001
 31
0.0
  0
LINE
  5
91
330
1EB
100
AcDbEntity
  8
0
100
AcDbLine
 10
76.40000000000015
 20
876.4000000000001
 30
0.0
 11
76.4000000000002
 21
863.6000000000001
 31
0.0
  0
LINE
  5
96
330
1EB
100
AcDbEntity
  8
0
100
AcDbLine
 10
76.40000000000015
 20
836.4000000000001
 30
0.0
 11
76.40000000000026
 21
823.6000000000001
 31
0.0
  0
LINE
  5
9B
330
1EB
100
AcDbEntity
  8
0
100
AcDbLine
 10
76.4000000000002
 20
796.4000000000001
 30
0.0
 11
76.4000000000002
 21
783.6000000000001
 31
0.0
  0
LINE
  5
A0
330
1EB
100
AcDbEntity
  8
0
100
AcDbLine
 10
76.40000000000026
 20
756.4000000000001
 30
0.0
 11
76.4000000000002
 21
743.6000000000001
 31
0.0
  0
LINE
  5
A5
330
1EB
100
AcDbEntity
  8
0
100
AcDbLine
 10
76.4000000000002
 20
716.4000000000001
 30
0.0
 11
76.40000000000015
 21
703.6000000000001
 31
0.0
  0
LINE
  5
AA
330
1EB
100
AcDbEntity
  8
0
100
AcDbLine
 10
76.4000000000002
 20
676.4000000000001
 30
0.0
 11
76.4000000000002
 21
663.6000000000001
 31
0.0
  0
LINE
  5
AF
330
1EB
100
AcDbEntity
  8
0
100
AcDbLine
 10
76.40000000000015
 20
636.4000000000001
 30
0.0
 11
76.40000000000015
 21
623.6000000000001
 31
0.0
  0
LINE
  5
B4
330
1EB
100
AcDbEntity
  8
0
100
AcDbLine
 10
76.40000000000015
 20
596.4000000000001
 30
0.0
 11
76.40000000000015
 21
583.6000000000001
 31
0.0
  0
LINE
  5
B9
330
1EB
100
AcDbEntity
  8
0
100
AcDbLine
 10
76.4000000000002
 20
556.4
 30
0.0
 11
76.40000000000015
 21
543.6000000000001
 31
0.0
  0
LINE
  5
BE
330
1EB
100
AcDbEntity
  8
0
100
AcDbLine
 10
76.40000000000015
 20
516.4000000000001
 30
0.0
 11
76.40000000000015
 21
503.6000000000001
 31
0.0
  0
LINE
  5
C3
330
1EB
100
AcDbEntity
  8
0
100
AcDbLine
 10
76.4000000000002
 20
476.3999999999999
 30
0.0
 11
76.40000000000015
 21
463.6000000000001
 31
0.0
  0
LINE
  5
C8
330
1EB
100
AcDbEntity
  8
0
100
AcDbLine
 10
76.4000000000002
 20
436.4
 30
0.0
 11
76.40000000000015
 21
423.6000000000001
 31
0.0
  0
LINE
  5
CD
330
1EB
100
AcDbEntity
  8
0
100
AcDbLine
 10
76.40000000000009
 20
396.4
 30
0.0
 11
76.40000000000015
 21
383.6000000000001
 31
0.0
  0
LINE
  5
D2
330
1EB
100
AcDbEntity
  8
0
100
AcDbLine
 10
76.4000000000002
 20
356.4
 30
0.0
 11
76.40000000000003
 21
343.6000000000001
 31
0.0
  0
LINE
  5
D7
330
1EB
100
AcDbEntity
  8
0
100
AcDbLine
 10
76.40000000000015
 20
316.4
 30
0.0
 11
76.40000000000015
 21
303.6
 31
0.0
  0
LINE
  5
DC
330
1EB
100
AcDbEntity
  8
0
100
AcDbLine
 10
76.39999999999992
 20
276.4
 30
0.0
 11
76.40000000000026
 21
263.6
 31
0.0
  0
LINE
  5
E1
330
1EB
100
AcDbEntity
  8
0
100
AcDbLine
 10
76.39999999999998
 20
236.4
 30
0.0
 11
76.40000000000003
 21
223.6
 31
0.0
  0
LINE
  5
E6
330
1EB
100
AcDbEntity
  8
0
100
AcDbLine
 10
76.40000000000015
 20
196.4
 30
0.0
 11
76.40000000000015
 21
183.6
 31
0.0
  0
LINE
  5
EB
330
1EB
100
AcDbEntity
  8
0
100
AcDbLine
 10
76.39999999999992
 20
156.4
 30
0.0
 11
76.39999999999992
 21
143.6
 31
0.0
  0
LINE
  5
F0
330
1EB
100
AcDbEntity
  8
0
100
AcDbLine
 10
76.40000000000003
 20
116.4
 30
0.0
 11
76.40000000000003
 21
103.6000000000001
 31
0.0
  0
LINE
  5
F5
330
1EB
100
AcDbEntity
  8
0
100
AcDbLine
 10
76.40000000000026
 20
76.39999999999998
 30
0.0
 11
76.3999999999998
 21
63.59999999999991
 31
0.0
  0
LINE
  5
FA
330
1EB
100
AcDbEntity
  8
0
100
AcDbLine
 10
76.40000000000009
 20
36.40000000000009
 30
0.0
 11
76.40000000000009
 21
23.59999999999991
 31
0.0
  0
LINE
  5
120
330
1EB
100
AcDbEntity
  8
0
100
AcDbLine
 10
23.60000000000088
 20
1056.4
 30
0.0
 11
23.60000000000082
 21
1043.6
 31
0.0
  0
LINE
  5
121
330
1EB
100
AcDbEntity
  8
0
100
AcDbLine
 10
23.6000000000007
 20
1016.4
 30
0.0
 11
23.60000000000082
 21
1003.6
 31
0.0
  0
LINE
  5
122
330
1EB
100
AcDbEntity
  8
0
100
AcDbLine
 10
23.6000000000007
 20
976.3999999999999
 30
0.0
 11
23.60000000000076
 21
963.5999999999999
 31
0.0
  0
LINE
  5
123
330
1EB
100
AcDbEntity
  8
0
100
AcDbLine
 10
23.60000000000076
 20
936.4
 30
0.0
 11
23.60000000000065
 21
923.5999999999999
 31
0.0
  0
LINE
  5
124
330
1EB
100
AcDbEntity
  8
0
100
AcDbLine
 10
23.60000000000127
 20
896.3999999999999
 30
0.0
 11
23.60000000000053
 21
883.5999999999999
 31
0.0
  0
LINE
  5
125
330
1EB
100
AcDbEntity
  8
0
100
AcDbLine
 10
23.60000000000105
 20
856.3999999999999
 30
0.0
 11
23.59999999999962
 21
843.5999999999999
 31
0.0
  0
LINE
  5
126
330
1EB
100
AcDbEntity
  8
0
100
AcDbLine
 10
23.60000000000133
 20
816.3999999999999
 30
0.0
 11
23.60000000000019
 21
803.5999999999999
 31
0.0
  0
LINE
  5
127
330
1EB
100
AcDbEntity
  8
0
100
AcDbLine
 10
23.59999999999849
 20
776.3999999999999
 30
0.0
 11
23.60000000000008
 21
763.5999999999999
 31
0.0
  0
LINE
  5
128
330
1EB
100
AcDbEntity
  8
0
100
AcDbLine
 10
23.60000000000304
 20
736.3999999999999
 30
0.0
 11
23.60000000000122
 21
723.5999999999999
 31
0.0
  0
LINE
  5
129
330
1EB
100
AcDbEntity
  8
0
100
AcDbLine
 10
23.59999999999951
 20
696.3999999999999
 30
0.0
 11
23.60000000000178
 21
683.5999999999999
 31
0.0
  0
LINE
  5
12A
330
1EB
100
AcDbEntity
  8
0
100
AcDbLine
 10
23.60000000000389
 20
656.4
 30
0.0
 11
23.60000000000258
 21
643.5999999999999
 31
0.0
  0
LINE
  5
12B
330
1EB
100
AcDbEntity
  8
0
100
AcDbLine
 10
23.60000000000394
 20
616.3999999999999
 30
0.0
 11
23.59999999999837
 21
603.5999999999999
 31
0.0
  0
LINE
  5
12C
330
1EB
100
AcDbEntity
  8
0
100
AcDbLine
 10
23.60000000000025
 20
576.3999999999997
 30
0.0
 11
23.59999999999548
 21
563.5999999999999
 31
0.0
  0
LINE
  5
12D
330
1EB
100
AcDbEntity
  8
0
100
AcDbLine
 10
23.60000000000093
 20
536.3999999999997
 30
0.0
 11
23.59999999999951
 21
523.5999999999998
 31
0.0
  0
LINE
  5
12E
330
1EB
100
AcDbEntity
  8
0
100
AcDbLine
 10
23.60000000000099
 20
496.3999999999999
 30
0.0
 11
23.6000000000044
 21
483.6
 31
0.0
  0
LINE
  5
12F
330
1EB
100
AcDbEntity
  8
0
100
AcDbLine
 10
23.6000000000036
 20
456.3999999999997
 30
0.0
 11
23.59999999999258
 21
443.5999999999998
 31
0.0
  0
LINE
  5
130
330
1EB
100
AcDbEntity
  8
0
100
AcDbLine
 10
23.60000000000053
 20
416.3999999999998
 30
0.0
 11
23.60000000000184
 21
403.5999999999999
 31
0.0
  0
LINE
  5
131
330
1EB
100
AcDbEntity
  8
0
100
AcDbLine
 10
23.59999999999542
 20
376.3999999999999
 30
0.0
 11
23.60000000000372
 21
363.6
 31
0.0
  0
LINE
  5
132
330
1EB
100
AcDbEntity
  8
0
100
AcDbLine
 10
23.60000000000269
 20
336.3999999999999
 30
0.0
 11
23.600000000004
 21
323.5999999999999
 31
0.0
  0
LINE
  5
133
330
1EB
100
AcDbEntity
  8
0
100
AcDbLine
 10
23.60000000000235
 20
296.3999999999999
 30
0.0
 11
23.60000000000645
 21
283.5999999999999
 31
0.0
  0
LINE
  5
134
330
1EB
100
AcDbEntity
  8
0
100
AcDbLine
 10
23.60000000000923
 20
256.3999999999999
 30
0.0
 11
23.60000000000269
 21
243.5999999999999
 31
0.0
  0
LINE
  5
135
330
1EB
100
AcDbEntity
  8
0
100
AcDbLine
 10
23.60000000000741
 20
216.3999999999999
 30
0.0
 11
23.60000000000565
 21
203.5999999999999
 31
0.0
  0
LINE
  5
136
330
1EB
100
AcDbEntity
  8
0
100
AcDbLine
 10
23.59999999998877
 20
176.3999999999998
 30
0.0
 11
23.60000000000872
 21
163.5999999999999
 31
0.0
  0
LINE
  5
137
330
1EB
100
AcDbEntity
  8
0
100
AcDbLine
 10
23.59999999999872
 20
136.3999999999999
 30
0.0
 11
23.60000000000883
 21
123.5999999999999
 31
0.0
  0
LINE
  5
138
330
1EB
100
AcDbEntity
  8
0
100
AcDbLine
 10
23.60000000001668
 20
96.39999999999992
 30
0.0
 11
23.60000000000144
 21
83.59999999999974
 31
0.0
  0
LINE
  5
139
330
1EB
100
AcDbEntity
  8
0
100
AcDbLine
 10
23.60000000002134
 20
56.39999999999992
 30
0.0
 11
23.59999999999934
 21
43.59999999999974
 31
0.0
  0
LINE
  5
13A
330
1EB
100
AcDbEntity
  8
0
100
AcDbLine
 10
23.60000000001003
 20
16.39999999999992
 30
0.0
 11
23.60000000001043
 21
3.599999999999739
 31
0.0
  0
LINE
  5
1C3
330
1EB
100
AcDbEntity
  8
0
100
AcDbLine
 10
23.60000000000088
 20
1100.0
 30
0.0
 11
23.60000000000088
 21
1083.6
 31
0.0
  0
LINE
  5
1CB
330
1EB
100
AcDbEntity
  8
0
100
AcDbLine
 10
23.60000000000014
 20
-0.0000000000000568
 30
0.0
 11
23.6000000000007
 21
16.40000000000003
 31
0.0
  0
LINE
  5
71
330
1EB
100
AcDbEntity
  8
0
100
AcDbLine
 10
70.00000000000045
 20
1080.0
 30
0.0
 11
76.4000000000002
 21
1080.0
 31
0.0
  0
LINE
  5
7E
330
1EB
100
AcDbEntity
  8
0
100
AcDbLine
 10
70.00000000000017
 20
1040.0
 30
0.0
 11
76.40000000000032
 21
1040.0
 31
0.0
  0
LINE
  5
83
330
1EB
100
AcDbEntity
  8
0
100
AcDbLine
 10
70.00000000000017
 20
1000.0
 30
0.0
 11
76.40000000000026
 21
1000.0
 31
0.0
  0
LINE
  5
88
330
1EB
100
AcDbEntity
  8
0
100
AcDbLine
 10
70.00000000000006
 20
960.0
 30
0.0
 11
76.40000000000043
 21
960.0000000000001
 31
0.0
  0
LINE
  5
8D
330
1EB
100
AcDbEntity
  8
0
100
AcDbLine
 10
70.00000000000028
 20
920.0
 30
0.0
 11
76.40000000000026
 21
920.0000000000001
 31
0.0
  0
LINE
  5
92
330
1EB
100
AcDbEntity
  8
0
100
AcDbLine
 10
70.00000000000023
 20
880.0
 30
0.0
 11
76.40000000000026
 21
880.0
 31
0.0
  0
LINE
  5
97
330
1EB
100
AcDbEntity
  8
0
100
AcDbLine
 10
70.00000000000023
 20
840.0
 30
0.0
 11
76.4000000000002
 21
840.0
 31
0.0
  0
LINE
  5
9C
330
1EB
100
AcDbEntity
  8
0
100
AcDbLine
 10
70.00000000000017
 20
800.0
 30
0.0
 11
76.40000000000026
 21
800.0
 31
0.0
  0
LINE
  5
A1
330
1EB
100
AcDbEntity
  8
0
100
AcDbLine
 10
70.00000000000017
 20
760.0
 30
0.0
 11
76.40000000000026
 21
760.0
 31
0.0
  0
LINE
  5
A6
330
1EB
100
AcDbEntity
  8
0
100
AcDbLine
 10
70.00000000000023
 20
720.0000000000001
 30
0.0
 11
76.4000000000002
 21
720.0
 31
0.0
  0
LINE
  5
AB
330
1EB
100
AcDbEntity
  8
0
100
AcDbLine
 10
70.00000000000017
 20
680.0
 30
0.0
 11
76.4000000000002
 21
680.0000000000001
 31
0.0
  0
LINE
  5
B0
330
1EB
100
AcDbEntity
  8
0
100
AcDbLine
 10
70.00000000000017
 20
640.0
 30
0.0
 11
76.40000000000015
 21
640.0
 31
0.0
  0
LINE
  5
B5
330
1EB
100
AcDbEntity
  8
0
100
AcDbLine
 10
70.00000000000017
 20
600.0000000000001
 30
0.0
 11
76.40000000000015
 21
600.0000000000001
 31
0.0
  0
LINE
  5
BA
330
1EB
100
AcDbEntity
  8
0
100
AcDbLine
 10
70.00000000000017
 20
560.0000000000001
 30
0.0
 11
76.40000000000015
 21
560.0000000000001
 31
0.0
  0
LINE
  5
BF
330
1EB
100
AcDbEntity
  8
0
100
AcDbLine
 10
70.00000000000017
 20
520.0000000000001
 30
0.0
 11
76.40000000000015
 21
520.0
 31
0.0
  0
LINE
  5
C4
330
1EB
100
AcDbEntity
  8
0
100
AcDbLine
 10
70.00000000000017
 20
480.0
 30
0.0
 11
76.40000000000009
 21
480.0000000000001
 31
0.0
  0
LINE
  5
C9
330
1EB
100
AcDbEntity
  8
0
100
AcDbLine
 10
70.00000000000006
 20
440.0000000000001
 30
0.0
 11
76.40000000000015
 21
440.0000000000001
 31
0.0
  0
LINE
  5
CE
330
1EB
100
AcDbEntity
  8
0
100
AcDbLine
 10
70.00000000000017
 20
400.0000000000001
 30
0.0
 11
76.40000000000009
 21
400.0000000000001
 31
0.0
  0
LINE
  5
D3
330
1EB
100
AcDbEntity
  8
0
100
AcDbLine
 10
70.00000000000006
 20
360.0000000000001
 30
0.0
 11
76.40000000000003
 21
360.0000000000001
 31
0.0
  0
LINE
  5
D8
330
1EB
100
AcDbEntity
  8
0
100
AcDbLine
 10
70.00000000000006
 20
320.0000000000001
 30
0.0
 11
76.4000000000002
 21
320.0
 31
0.0
  0
LINE
  5
DD
330
1EB
100
AcDbEntity
  8
0
100
AcDbLine
 10
70.00000000000034
 20
279.9999999999999
 30
0.0
 11
76.40000000000015
 21
280.0
 31
0.0
  0
LINE
  5
E2
330
1EB
100
AcDbEntity
  8
0
100
AcDbLine
 10
70.00000000000011
 20
239.9999999999999
 30
0.0
 11
76.4000000000002
 21
240.0000000000001
 31
0.0
  0
LINE
  5
E7
330
1EB
100
AcDbEntity
  8
0
100
AcDbLine
 10
70.00000000000006
 20
200.0
 30
0.0
 11
76.40000000000015
 21
200.0000000000001
 31
0.0
  0
LINE
  5
EC
330
1EB
100
AcDbEntity
  8
0
100
AcDbLine
 10
70.00000000000006
 20
160.0
 30
0.0
 11
76.40000000000003
 21
160.0000000000001
 31
0.0
  0
LINE
  5
F1
330
1EB
100
AcDbEntity
  8
0
100
AcDbLine
 10
70.00000000000034
 20
120.0
 30
0.0
 11
76.39999999999986
 21
120.0000000000001
 31
0.0
  0
LINE
  5
F6
330
1EB
100
AcDbEntity
  8
0
100
AcDbLine
 10
69.99999999999989
 20
80.0
 30
0.0
 11
76.3999999999998
 21
80.0
 31
0.0
  0
LINE
  5
FB
330
1EB
100
AcDbEntity
  8
0
100
AcDbLine
 10
70.0
 20
40.0
 30
0.0
 11
76.39999999999952
 21
40.00000000000011
 31
0.0
  0
LINE
  5
13B
330
1EB
100
AcDbEntity
  8
0
100
AcDbLine
 10
30.00000000000102
 20
1060.0
 30
0.0
 11
23.60000000000099
 21
1060.0
 31
0.0
  0
LINE
  5
13C
330
1EB
100
AcDbEntity
  8
0
100
AcDbLine
 10
30.00000000000097
 20
1020.0
 30
0.0
 11
23.60000000000099
 21
1020.0
 31
0.0
  0
LINE
  5
13D
330
1EB
100
AcDbEntity
  8
0
100
AcDbLine
 10
30.00000000000097
 20
980.0
 30
0.0
 11
23.60000000000076
 21
979.9999999999998
 31
0.0
  0
LINE
  5
13E
330
1EB
100
AcDbEntity
  8
0
100
AcDbLine
 10
30.00000000000097
 20
939.9999999999999
 30
0.0
 11
23.60000000000076
 21
939.9999999999999
 31
0.0
  0
LINE
  5
13F
330
1EB
100
AcDbEntity
  8
0
100
AcDbLine
 10
30.00000000000097
 20
899.9999999999999
 30
0.0
 11
23.6000000000011
 21
899.9999999999998
 31
0.0
  0
LINE
  5
140
330
1EB
100
AcDbEntity
  8
0
100
AcDbLine
 10
30.00000000000091
 20
859.9999999999998
 30
0.0
 11
23.60000000000184
 21
859.9999999999998
 31
0.0
  0
LINE
  5
141
330
1EB
100
AcDbEntity
  8
0
100
AcDbLine
 10
30.00000000000085
 20
819.9999999999998
 30
0.0
 11
23.60000000000144
 21
819.9999999999998
 31
0.0
  0
LINE
  5
142
330
1EB
100
AcDbEntity
  8
0
100
AcDbLine
 10
30.00000000000085
 20
779.9999999999998
 30
0.0
 11
23.60000000000247
 21
780.0
 31
0.0
  0
LINE
  5
143
330
1EB
100
AcDbEntity
  8
0
100
AcDbLine
 10
30.00000000000091
 20
739.9999999999999
 30
0.0
 11
23.60000000000014
 21
740.0
 31
0.0
  0
LINE
  5
144
330
1EB
100
AcDbEntity
  8
0
100
AcDbLine
 10
30.00000000000085
 20
699.9999999999999
 30
0.0
 11
23.60000000000099
 21
699.9999999999999
 31
0.0
  0
LINE
  5
145
330
1EB
100
AcDbEntity
  8
0
100
AcDbLine
 10
30.00000000000085
 20
659.9999999999998
 30
0.0
 11
23.60000000000218
 21
659.9999999999998
 31
0.0
  0
LINE
  5
146
330
1EB
100
AcDbEntity
  8
0
100
AcDbLine
 10
30.00000000000085
 20
619.9999999999998
 30
0.0
 11
23.60000000000178
 21
619.9999999999999
 31
0.0
  0
LINE
  5
147
330
1EB
100
AcDbEntity
  8
0
100
AcDbLine
 10
30.00000000000085
 20
579.9999999999999
 30
0.0
 11
23.60000000000036
 21
579.9999999999999
 31
0.0
  0
LINE
  5
148
330
1EB
100
AcDbEntity
  8
0
100
AcDbLine
 10
30.00000000000085
 20
539.9999999999999
 30
0.0
 11
23.59999999999815
 21
539.9999999999999
 31
0.0
  0
LINE
  5
149
330
1EB
100
AcDbEntity
  8
0
100
AcDbLine
 10
30.00000000000085
 20
499.9999999999998
 30
0.0
 11
23.59999999999388
 21
499.9999999999998
 31
0.0
  0
LINE
  5
14A
330
1EB
100
AcDbEntity
  8
0
100
AcDbLine
 10
30.00000000000085
 20
459.9999999999998
 30
0.0
 11
23.60000000000332
 21
459.9999999999998
 31
0.0
  0
LINE
  5
14B
330
1EB
100
AcDbEntity
  8
0
100
AcDbLine
 10
30.00000000000085
 20
419.9999999999998
 30
0.0
 11
23.59999999999729
 21
419.9999999999998
 31
0.0
  0
LINE
  5
14C
330
1EB
100
AcDbEntity
  8
0
100
AcDbLine
 10
30.00000000000091
 20
379.9999999999998
 30
0.0
 11
23.60000000000019
 21
379.9999999999999
 31
0.0
  0
LINE
  5
14D
330
1EB
100
AcDbEntity
  8
0
100
AcDbLine
 10
30.00000000000074
 20
339.9999999999999
 30
0.0
 11
23.6000000000019
 21
339.9999999999998
 31
0.0
  0
LINE
  5
14E
330
1EB
100
AcDbEntity
  8
0
100
AcDbLine
 10
30.00000000000068
 20
299.9999999999999
 30
0.0
 11
23.6000000000061
 21
299.9999999999999
 31
0.0
  0
LINE
  5
14F
330
1EB
100
AcDbEntity
  8
0
100
AcDbLine
 10
30.00000000000085
 20
259.9999999999998
 30
0.0
 11
23.60000000000963
 21
260.0
 31
0.0
  0
LINE
  5
150
330
1EB
100
AcDbEntity
  8
0
100
AcDbLine
 10
30.00000000000074
 20
219.9999999999999
 30
0.0
 11
23.60000000000235
 21
219.9999999999998
 31
0.0
  0
LINE
  5
151
330
1EB
100
AcDbEntity
  8
0
100
AcDbLine
 10
30.00000000000074
 20
179.9999999999999
 30
0.0
 11
23.60000000000554
 21
179.9999999999999
 31
0.0
  0
LINE
  5
152
330
1EB
100
AcDbEntity
  8
0
100
AcDbLine
 10
30.00000000000074
 20
139.9999999999999
 30
0.0
 11
23.60000000000628
 21
139.9999999999998
 31
0.0
  0
LINE
  5
153
330
1EB
100
AcDbEntity
  8
0
100
AcDbLine
 10
30.00000000000074
 20
99.99999999999983
 30
0.0
 11
23.59999999999627
 21
99.99999999999983
 31
0.0
  0
LINE
  5
154
330
1EB
100
AcDbEntity
  8
0
100
AcDbLine
 10
30.00000000000074
 20
59.99999999999994
 30
0.0
 11
23.59999999999008
 21
59.99999999999983
 31
0.0
  0
LINE
  5
155
330
1EB
100
AcDbEntity
  8
0
100
AcDbLine
 10
30.0000000000008
 20
19.99999999999983
 30
0.0
 11
23.60000000000292
 21
19.99999999999983
 31
0.0
  0
LINE
  5
72
330
1EB
100
AcDbEntity
  8
0
100
AcDbLine
 10
70.00000000000023
 20
1060.0
 30
0.0
 11
76.40000000000049
 21
1060.0
 31
0.0
  0
LINE
  5
7F
330
1EB
100
AcDbEntity
  8
0
100
AcDbLine
 10
70.00000000000006
 20
1020.0
 30
0.0
 11
76.40000000000026
 21
1020.0
 31
0.0
  0
LINE
  5
84
330
1EB
100
AcDbEntity
  8
0
100
AcDbLine
 10
70.0000000000004
 20
980.0000000000001
 30
0.0
 11
76.40000000000015
 21
980.0
 31
0.0
  0
LINE
  5
89
330
1EB
100
AcDbEntity
  8
0
100
AcDbLine
 10
70.00000000000028
 20
940.0
 30
0.0
 11
76.40000000000015
 21
940.0
 31
0.0
  0
LINE
  5
8E
330
1EB
100
AcDbEntity
  8
0
100
AcDbLine
 10
70.00000000000017
 20
900.0000000000001
 30
0.0
 11
76.40000000000026
 21
900.0
 31
0.0
  0
LINE
  5
93
330
1EB
100
AcDbEntity
  8
0
100
AcDbLine
 10
70.00000000000017
 20
860.0000000000001
 30
0.0
 11
76.40000000000032
 21
860.0000000000001
 31
0.0
  0
LINE
  5
98
330
1EB
100
AcDbEntity
  8
0
100
AcDbLine
 10
70.00000000000017
 20
820.0
 30
0.0
 11
76.4000000000002
 21
820.0
 31
0.0
  0
LINE
  5
9D
330
1EB
100
AcDbEntity
  8
0
100
AcDbLine
 10
70.00000000000023
 20
780.0000000000001
 30
0.0
 11
76.4000000000002
 21
780.0
 31
0.0
  0
LINE
  5
A2
330
1EB
100
AcDbEntity
  8
0
100
AcDbLine
 10
70.00000000000017
 20
740.0000000000001
 30
0.0
 11
76.40000000000026
 21
740.0000000000001
 31
0.0
  0
LINE
  5
A7
330
1EB
100
AcDbEntity
  8
0
100
AcDbLine
 10
70.00000000000017
 20
700.0
 30
0.0
 11
76.40000000000015
 21
700.0
 31
0.0
  0
LINE
  5
AC
330
1EB
100
AcDbEntity
  8
0
100
AcDbLine
 10
70.00000000000017
 20
660.0
 30
0.0
 11
76.40000000000015
 21
660.0
 31
0.0
  0
LINE
  5
B1
330
1EB
100
AcDbEntity
  8
0
100
AcDbLine
 10
70.00000000000017
 20
620.0
 30
0.0
 11
76.4000000000002
 21
620.0000000000001
 31
0.0
  0
LINE
  5
B6
330
1EB
100
AcDbEntity
  8
0
100
AcDbLine
 10
70.00000000000017
 20
580.0000000000001
 30
0.0
 11
76.4000000000002
 21
580.0
 31
0.0
  0
LINE
  5
BB
330
1EB
100
AcDbEntity
  8
0
100
AcDbLine
 10
70.00000000000017
 20
540.0000000000001
 30
0.0
 11
76.40000000000015
 21
540.0000000000001
 31
0.0
  0
LINE
  5
C0
330
1EB
100
AcDbEntity
  8
0
100
AcDbLine
 10
70.00000000000017
 20
500.0
 30
0.0
 11
76.4000000000002
 21
500.0
 31
0.0
  0
LINE
  5
C5
330
1EB
100
AcDbEntity
  8
0
100
AcDbLine
 10
70.00000000000017
 20
460.0
 30
0.0
 11
76.40000000000015
 21
460.0000000000001
 31
0.0
  0
LINE
  5
CA
330
1EB
100
AcDbEntity
  8
0
100
AcDbLine
 10
70.00000000000017
 20
420.0
 30
0.0
 11
76.40000000000015
 21
420.0
 31
0.0
  0
LINE
  5
CF
330
1EB
100
AcDbEntity
  8
0
100
AcDbLine
 10
70.00000000000011
 20
380.0
 30
0.0
 11
76.40000000000009
 21
380.0000000000001
 31
0.0
  0
LINE
  5
D4
330
1EB
100
AcDbEntity
  8
0
100
AcDbLine
 10
70.00000000000017
 20
340.0
 30
0.0
 11
76.40000000000026
 21
340.0
 31
0.0
  0
LINE
  5
D9
330
1EB
100
AcDbEntity
  8
0
100
AcDbLine
 10
70.00000000000011
 20
300.0
 30
0.0
 11
76.40000000000003
 21
300.0
 31
0.0
  0
LINE
  5
DE
330
1EB
100
AcDbEntity
  8
0
100
AcDbLine
 10
70.0000000000004
 20
259.9999999999999
 30
0.0
 11
76.39999999999992
 21
260.0000000000001
 31
0.0
  0
LINE
  5
E3
330
1EB
100
AcDbEntity
  8
0
100
AcDbLine
 10
70.00000000000028
 20
220.0
 30
0.0
 11
76.4000000000002
 21
220.0
 31
0.0
  0
LINE
  5
E8
330
1EB
100
AcDbEntity
  8
0
100
AcDbLine
 10
70.0
 20
180.0
 30
0.0
 11
76.40000000000032
 21
180.0
 31
0.0
  0
LINE
  5
ED
330
1EB
100
AcDbEntity
  8
0
100
AcDbLine
 10
70.00000000000011
 20
140.0
 30
0.0
 11
76.40000000000015
 21
140.0000000000001
 31
0.0
  0
LINE
  5
F2
330
1EB
100
AcDbEntity
  8
0
100
AcDbLine
 10
69.99999999999977
 20
100.0000000000001
 30
0.0
 11
76.40000000000015
 21
100.0
 31
0.0
  0
LINE
  5
F7
330
1EB
100
AcDbEntity
  8
0
100
AcDbLine
 10
69.99999999999989
 20
60.00000000000011
 30
0.0
 11
76.4000000000002
 21
60.0
 31
0.0
  0
LINE
  5
FC
330
1EB
100
AcDbEntity
  8
0
100
AcDbLine
 10
69.99999999999989
 20
20.0
 30
0.0
 11
76.3999999999998
 21
20.00000000000011
 31
0.0
  0
LINE
  5
156
330
1EB
100
AcDbEntity
  8
0
100
AcDbLine
 10
30.00000000000085
 20
1040.0
 30
0.0
 11
23.60000000000088
 21
1040.0
 31
0.0
  0
LINE
  5
157
330
1EB
100
AcDbEntity
  8
0
100
AcDbLine
 10
30.00000000000085
 20
1000.0
 30
0.0
 11
23.60000000000099
 21
1000.0
 31
0.0
  0
LINE
  5
158
330
1EB
100
AcDbEntity
  8
0
100
AcDbLine
 10
30.00000000000097
 20
960.0
 30
0.0
 11
23.60000000000082
 21
959.9999999999999
 31
0.0
  0
LINE
  5
159
330
1EB
100
AcDbEntity
  8
0
100
AcDbLine
 10
30.00000000000085
 20
919.9999999999999
 30
0.0
 11
23.60000000000099
 21
919.9999999999999
 31
0.0
  0
LINE
  5
15A
330
1EB
100
AcDbEntity
  8
0
100
AcDbLine
 10
30.00000000000085
 20
879.9999999999999
 30
0.0
 11
23.60000000000139
 21
879.9999999999999
 31
0.0
  0
LINE
  5
15B
330
1EB
100
AcDbEntity
  8
0
100
AcDbLine
 10
30.00000000000097
 20
839.9999999999999
 30
0.0
 11
23.60000000000053
 21
840.0
 31
0.0
  0
LINE
  5
15C
330
1EB
100
AcDbEntity
  8
0
100
AcDbLine
 10
30.00000000000085
 20
799.9999999999998
 30
0.0
 11
23.59999999999894
 21
799.9999999999998
 31
0.0
  0
LINE
  5
15D
330
1EB
100
AcDbEntity
  8
0
100
AcDbLine
 10
30.00000000000085
 20
759.9999999999998
 30
0.0
 11
23.60000000000019
 21
759.9999999999998
 31
0.0
  0
LINE
  5
15E
330
1EB
100
AcDbEntity
  8
0
100
AcDbLine
 10
30.00000000000085
 20
719.9999999999998
 30
0.0
 11
23.60000000000167
 21
719.9999999999999
 31
0.0
  0
LINE
  5
15F
330
1EB
100
AcDbEntity
  8
0
100
AcDbLine
 10
30.00000000000085
 20
679.9999999999998
 30
0.0
 11
23.59999999999928
 21
679.9999999999999
 31
0.0
  0
LINE
  5
160
330
1EB
100
AcDbEntity
  8
0
100
AcDbLine
 10
30.00000000000085
 20
639.9999999999998
 30
0.0
 11
23.600000000004
 21
640.0
 31
0.0
  0
LINE
  5
161
330
1EB
100
AcDbEntity
  8
0
100
AcDbLine
 10
30.00000000000085
 20
599.9999999999999
 30
0.0
 11
23.60000000000315
 21
599.9999999999999
 31
0.0
  0
LINE
  5
162
330
1EB
100
AcDbEntity
  8
0
100
AcDbLine
 10
30.00000000000085
 20
559.9999999999999
 30
0.0
 11
23.5999999999965
 21
559.9999999999999
 31
0.0
  0
LINE
  5
163
330
1EB
100
AcDbEntity
  8
0
100
AcDbLine
 10
30.00000000000085
 20
519.9999999999999
 30
0.0
 11
23.59999999999513
 21
519.9999999999998
 31
0.0
  0
LINE
  5
164
330
1EB
100
AcDbEntity
  8
0
100
AcDbLine
 10
30.00000000000085
 20
479.9999999999999
 30
0.0
 11
23.59999999999519
 21
479.9999999999998
 31
0.0
  0
LINE
  5
165
330
1EB
100
AcDbEntity
  8
0
100
AcDbLine
 10
30.00000000000085
 20
439.9999999999999
 30
0.0
 11
23.59999999999246
 21
439.9999999999998
 31
0.0
  0
LINE
  5
166
330
1EB
100
AcDbEntity
  8
0
100
AcDbLine
 10
30.0000000000008
 20
399.9999999999998
 30
0.0
 11
23.59999999999508
 21
399.9999999999999
 31
0.0
  0
LINE
  5
167
330
1EB
100
AcDbEntity
  8
0
100
AcDbLine
 10
30.00000000000085
 20
359.9999999999998
 30
0.0
 11
23.59999999999883
 21
359.9999999999999
 31
0.0
  0
LINE
  5
168
330
1EB
100
AcDbEntity
  8
0
100
AcDbLine
 10
30.00000000000085
 20
319.9999999999998
 30
0.0
 11
23.6000000000011
 21
319.9999999999999
 31
0.0
  0
LINE
  5
169
330
1EB
100
AcDbEntity
  8
0
100
AcDbLine
 10
30.00000000000063
 20
279.9999999999999
 30
0.0
 11
23.59999999999746
 21
279.9999999999999
 31
0.0
  0
LINE
  5
16A
330
1EB
100
AcDbEntity
  8
0
100
AcDbLine
 10
30.00000000000085
 20
239.9999999999998
 30
0.0
 11
23.60000000000844
 21
240.0
 31
0.0
  0
LINE
  5
16B
330
1EB
100
AcDbEntity
  8
0
100
AcDbLine
 10
30.0000000000008
 20
199.9999999999999
 30
0.0
 11
23.60000000000406
 21
199.9999999999999
 31
0.0
  0
LINE
  5
16C
330
1EB
100
AcDbEntity
  8
0
100
AcDbLine
 10
30.00000000000074
 20
159.9999999999998
 30
0.0
 11
23.59999999999718
 21
159.9999999999999
 31
0.0
  0
LINE
  5
16D
330
1EB
100
AcDbEntity
  8
0
100
AcDbLine
 10
30.00000000000063
 20
119.9999999999999
 30
0.0
 11
23.60000000000781
 21
119.9999999999998
 31
0.0
  0
LINE
  5
16E
330
1EB
100
AcDbEntity
  8
0
100
AcDbLine
 10
30.0000000000008
 20
79.99999999999983
 30
0.0
 11
23.60000000000252
 21
79.99999999999983
 31
0.0
  0
LINE
  5
16F
330
1EB
100
AcDbEntity
  8
0
100
AcDbLine
 10
30.00000000000063
 20
39.99999999999994
 30
0.0
 11
23.60000000000127
 21
39.99999999999983
 31
0.0
  0
LINE
  5
1C5
330
1EB
100
AcDbEntity
  8
0
100
AcDbLine
 10
30.00000000000097
 20
1080.0
 30
0.0
 11
23.60000000000088
 21
1080.0
 31
0.0
  0
ARC
  5
77
330
1EB
100
AcDbEntity
  8
0
100
AcDbCircle
 10
76.40000000000032
 20
1078.2
 30
0.0
 40
1.799999999999999
100
AcDbArc
 50
270.0
 51
90.0
1001
QCAD
1000
reversed:1
  0
ARC
  5
78
330
1EB
100
AcDbEntity
  8
0
100
AcDbCircle
 10
76.39999999999998
 20
1061.8
 30
0.0
 40
1.799999999999999
100
AcDbArc
 50
270.0
 51
90.0
1001
QCAD
1000
reversed:1
  0
ARC
  5
80
330
1EB
100
AcDbEntity
  8
0
100
AcDbCircle
 10
76.40000000000026
 20
1038.2
 30
0.0
 40
1.799999999999999
100
AcDbArc
 50
270.0
 51
90.0
1001
QCAD
1000
reversed:1
  0
ARC
  5
81
330
1EB
100
AcDbEntity
  8
0
100
AcDbCircle
 10
76.40000000000003
 20
1021.8
 30
0.0
 40
1.799999999999999
100
AcDbArc
 50
270.0
 51
90.0
1001
QCAD
1000
reversed:1
  0
ARC
  5
85
330
1EB
100
AcDbEntity
  8
0
100
AcDbCircle
 10
76.40000000000026
 20
998.2
 30
0.0
 40
1.799999999999999
100
AcDbArc
 50
270.0
 51
90.0
1001
QCAD
1000
reversed:1
  0
ARC
  5
86
330
1EB
100
AcDbEntity
  8
0
100
AcDbCircle
 10
76.4000000000002
 20
981.8000000000001
 30
0.0
 40
1.799999999999999
100
AcDbArc
 50
270.0
 51
90.0
1001
QCAD
1000
reversed:1
  0
ARC
  5
8A
330
1EB
100
AcDbEntity
  8
0
100
AcDbCircle
 10
76.40000000000026
 20
958.2
 30
0.0
 40
1.799999999999999
100
AcDbArc
 50
270.0
 51
90.0
1001
QCAD
1000
reversed:1
  0
ARC
  5
8B
330
1EB
100
AcDbEntity
  8
0
100
AcDbCircle
 10
76.40000000000032
 20
941.8000000000002
 30
0.0
 40
1.799999999999999
100
AcDbArc
 50
270.0
 51
90.0
1001
QCAD
1000
reversed:1
  0
ARC
  5
8F
330
1EB
100
AcDbEntity
  8
0
100
AcDbCircle
 10
76.40000000000026
 20
918.2
 30
0.0
 40
1.799999999999999
100
AcDbArc
 50
270.0
 51
90.0
1001
QCAD
1000
reversed:1
  0
ARC
  5
90
330
1EB
100
AcDbEntity
  8
0
100
AcDbCircle
 10
76.40000000000032
 20
901.8000000000002
 30
0.0
 40
1.799999999999999
100
AcDbArc
 50
270.0
 51
90.0
1001
QCAD
1000
reversed:1
  0
ARC
  5
94
330
1EB
100
AcDbEntity
  8
0
100
AcDbCircle
 10
76.40000000000026
 20
878.2
 30
0.0
 40
1.799999999999999
100
AcDbArc
 50
270.0
 51
90.0
1001
QCAD
1000
reversed:1
  0
ARC
  5
95
330
1EB
100
AcDbEntity
  8
0
100
AcDbCircle
 10
76.40000000000015
 20
861.8000000000001
 30
0.0
 40
1.799999999999999
100
AcDbArc
 50
270.0
 51
90.0
1001
QCAD
1000
reversed:1
  0
ARC
  5
99
330
1EB
100
AcDbEntity
  8
0
100
AcDbCircle
 10
76.4000000000002
 20
838.2
 30
0.0
 40
1.799999999999999
100
AcDbArc
 50
270.0
 51
90.0
1001
QCAD
1000
reversed:1
  0
ARC
  5
9A
330
1EB
100
AcDbEntity
  8
0
100
AcDbCircle
 10
76.4000000000002
 20
821.8000000000001
 30
0.0
 40
1.799999999999999
100
AcDbArc
 50
270.0
 51
90.0
1001
QCAD
1000
reversed:1
  0
ARC
  5
9E
330
1EB
100
AcDbEntity
  8
0
100
AcDbCircle
 10
76.40000000000026
 20
798.2
 30
0.0
 40
1.799999999999999
100
AcDbArc
 50
270.0
 51
90.0
1001
QCAD
1000
reversed:1
  0
ARC
  5
9F
330
1EB
100
AcDbEntity
  8
0
100
AcDbCircle
 10
76.40000000000026
 20
781.8000000000002
 30
0.0
 40
1.799999999999999
100
AcDbArc
 50
270.0
 51
90.0
1001
QCAD
1000
reversed:1
  0
ARC
  5
A3
330
1EB
100
AcDbEntity
  8
0
100
AcDbCircle
 10
76.4000000000002
 20
758.2
 30
0.0
 40
1.799999999999999
100
AcDbArc
 50
270.0
 51
90.0
1001
QCAD
1000
reversed:1
  0
ARC
  5
A4
330
1EB
100
AcDbEntity
  8
0
100
AcDbCircle
 10
76.40000000000026
 20
741.8000000000002
 30
0.0
 40
1.799999999999999
100
AcDbArc
 50
270.0
 51
90.0
1001
QCAD
1000
reversed:1
  0
ARC
  5
A8
330
1EB
100
AcDbEntity
  8
0
100
AcDbCircle
 10
76.40000000000015
 20
718.2
 30
0.0
 40
1.799999999999999
100
AcDbArc
 50
270.0
 51
90.0
1001
QCAD
1000
reversed:1
  0
ARC
  5
A9
330
1EB
100
AcDbEntity
  8
0
100
AcDbCircle
 10
76.4000000000002
 20
701.8000000000001
 30
0.0
 40
1.799999999999999
100
AcDbArc
 50
270.0
 51
90.0
1001
QCAD
1000
reversed:1
  0
ARC
  5
AD
330
1EB
100
AcDbEntity
  8
0
100
AcDbCircle
 10
76.4000000000002
 20
678.2
 30
0.0
 40
1.799999999999999
100
AcDbArc
 50
270.0
 51
90.0
1001
QCAD
1000
reversed:1
  0
ARC
  5
AE
330
1EB
100
AcDbEntity
  8
0
100
AcDbCircle
 10
76.4000000000002
 20
661.8000000000001
 30
0.0
 40
1.799999999999999
100
AcDbArc
 50
270.0
 51
90.0
1001
QCAD
1000
reversed:1
  0
ARC
  5
B2
330
1EB
100
AcDbEntity
  8
0
100
AcDbCircle
 10
76.40000000000015
 20
638.2
 30
0.0
 40
1.799999999999999
100
AcDbArc
 50
270.0
 51
90.0
1001
QCAD
1000
reversed:1
  0
ARC
  5
B3
330
1EB
100
AcDbEntity
  8
0
100
AcDbCircle
 10
76.4000000000002
 20
621.8000000000001
 30
0.0
 40
1.799999999999999
100
AcDbArc
 50
270.0
 51
90.0
1001
QCAD
1000
reversed:1
  0
ARC
  5
B7
330
1EB
100
AcDbEntity
  8
0
100
AcDbCircle
 10
76.40000000000015
 20
598.2
 30
0.0
 40
1.799999999999999
100
AcDbArc
 50
270.0
 51
90.0
1001
QCAD
1000
reversed:1
  0
ARC
  5
B8
330
1EB
100
AcDbEntity
  8
0
100
AcDbCircle
 10
76.40000000000015
 20
581.8000000000001
 30
0.0
 40
1.799999999999999
100
AcDbArc
 50
270.0
 51
90.0
1001
QCAD
1000
reversed:1
  0
ARC
  5
BC
330
1EB
100
AcDbEntity
  8
0
100
AcDbCircle
 10
76.40000000000015
 20
558.2000000000002
 30
0.0
 40
1.799999999999999
100
AcDbArc
 50
270.0
 51
90.0
1001
QCAD
1000
reversed:1
  0
ARC
  5
BD
330
1EB
100
AcDbEntity
  8
0
100
AcDbCircle
 10
76.40000000000015
 20
541.8000000000001
 30
0.0
 40
1.799999999999999
100
AcDbArc
 50
270.0
 51
90.0
1001
QCAD
1000
reversed:1
  0
ARC
  5
C1
330
1EB
100
AcDbEntity
  8
0
100
AcDbCircle
 10
76.40000000000015
 20
518.2000000000002
 30
0.0
 40
1.799999999999999
100
AcDbArc
 50
270.0
 51
90.0
1001
QCAD
1000
reversed:1
  0
ARC
  5
C2
330
1EB
100
AcDbEntity
  8
0
100
AcDbCircle
 10
76.40000000000015
 20
501.8
 30
0.0
 40
1.799999999999999
100
AcDbArc
 50
270.0
 51
90.0
1001
QCAD
1000
reversed:1
  0
ARC
  5
C6
330
1EB
100
AcDbEntity
  8
0
100
AcDbCircle
 10
76.40000000000015
 20
478.2000000000001
 30
0.0
 40
1.799999999999999
100
AcDbArc
 50
270.0
 51
90.0
1001
QCAD
1000
reversed:1
  0
ARC
  5
C7
330
1EB
100
AcDbEntity
  8
0
100
AcDbCircle
 10
76.40000000000015
 20
461.8
 30
0.0
 40
1.799999999999999
100
AcDbArc
 50
270.0
 51
90.0
1001
QCAD
1000
reversed:1
  0
ARC
  5
CB
330
1EB
100
AcDbEntity
  8
0
100
AcDbCircle
 10
76.40000000000009
 20
438.2000000000001
 30
0.0
 40
1.799999999999999
100
AcDbArc
 50
270.0
 51
90.0
1001
QCAD
1000
reversed:1
  0
ARC
  5
CC
330
1EB
100
AcDbEntity
  8
0
100
AcDbCircle
 10
76.40000000000015
 20
421.8
 30
0.0
 40
1.799999999999999
100
AcDbArc
 50
270.0
 51
90.0
1001
QCAD
1000
reversed:1
  0
ARC
  5
D0
330
1EB
100
AcDbEntity
  8
0
100
AcDbCircle
 10
76.40000000000026
 20
398.2
 30
0.0
 40
1.799999999999999
100
AcDbArc
 50
270.0
 51
90.0
1001
QCAD
1000
reversed:1
  0
ARC
  5
D1
330
1EB
100
AcDbEntity
  8
0
100
AcDbCircle
 10
76.4000000000002
 20
381.8
 30
0.0
 40
1.799999999999999
100
AcDbArc
 50
270.0
 51
90.0
1001
QCAD
1000
reversed:1
  0
ARC
  5
D5
330
1EB
100
AcDbEntity
  8
0
100
AcDbCircle
 10
76.40000000000003
 20
358.2000000000001
 30
0.0
 40
1.799999999999999
100
AcDbArc
 50
270.0
 51
90.0
1001
QCAD
1000
reversed:1
  0
ARC
  5
D6
330
1EB
100
AcDbEntity
  8
0
100
AcDbCircle
 10
76.40000000000003
 20
341.8
 30
0.0
 40
1.799999999999999
100
AcDbArc
 50
270.0
 51
90.0
1001
QCAD
1000
reversed:1
  0
ARC
  5
DA
330
1EB
100
AcDbEntity
  8
0
100
AcDbCircle
 10
76.39999999999998
 20
318.2000000000001
 30
0.0
 40
1.799999999999999
100
AcDbArc
 50
270.0
 51
90.0
1001
QCAD
1000
reversed:1
  0
ARC
  5
DB
330
1EB
100
AcDbEntity
  8
0
100
AcDbCircle
 10
76.40000000000003
 20
301.8
 30
0.0
 40
1.799999999999999
100
AcDbArc
 50
270.0
 51
90.0
1001
QCAD
1000
reversed:1
  0
ARC
  5
DF
330
1EB
100
AcDbEntity
  8
0
100
AcDbCircle
 10
76.40000000000003
 20
278.2
 30
0.0
 40
1.799999999999999
100
AcDbArc
 50
270.0
 51
90.0
1001
QCAD
1000
reversed:1
  0
ARC
  5
E0
330
1EB
100
AcDbEntity
  8
0
100
AcDbCircle
 10
76.40000000000015
 20
261.8
 30
0.0
 40
1.799999999999999
100
AcDbArc
 50
270.0
 51
90.0
1001
QCAD
1000
reversed:1
  0
ARC
  5
E4
330
1EB
100
AcDbEntity
  8
0
100
AcDbCircle
 10
76.39999999999986
 20
238.2000000000001
 30
0.0
 40
1.799999999999999
100
AcDbArc
 50
270.0
 51
90.0
1001
QCAD
1000
reversed:1
  0
ARC
  5
E5
330
1EB
100
AcDbEntity
  8
0
100
AcDbCircle
 10
76.40000000000032
 20
221.8
 30
0.0
 40
1.799999999999999
100
AcDbArc
 50
270.0
 51
90.0
1001
QCAD
1000
reversed:1
  0
ARC
  5
E9
330
1EB
100
AcDbEntity
  8
0
100
AcDbCircle
 10
76.40000000000003
 20
198.2000000000001
 30
0.0
 40
1.799999999999999
100
AcDbArc
 50
270.0
 51
90.0
1001
QCAD
1000
reversed:1
  0
ARC
  5
EA
330
1EB
100
AcDbEntity
  8
0
100
AcDbCircle
 10
76.40000000000003
 20
181.8
 30
0.0
 40
1.799999999999999
100
AcDbArc
 50
270.0
 51
90.0
1001
QCAD
1000
reversed:1
  0
ARC
  5
EE
330
1EB
100
AcDbEntity
  8
0
100
AcDbCircle
 10
76.40000000000038
 20
158.2
 30
0.0
 40
1.799999999999999
100
AcDbArc
 50
270.0
 51
90.0
1001
QCAD
1000
reversed:1
  0
ARC
  5
EF
330
1EB
100
AcDbEntity
  8
0
100
AcDbCircle
 10
76.4000000000002
 20
141.8
 30
0.0
 40
1.799999999999999
100
AcDbArc
 50
270.0
 51
90.0
1001
QCAD
1000
reversed:1
  0
ARC
  5
F3
330
1EB
100
AcDbEntity
  8
0
100
AcDbCircle
 10
76.3999999999998
 20
118.2000000000001
 30
0.0
 40
1.799999999999999
100
AcDbArc
 50
270.0
 51
90.0
1001
QCAD
1000
reversed:1
  0
ARC
  5
F4
330
1EB
100
AcDbEntity
  8
0
100
AcDbCircle
 10
76.40000000000009
 20
101.8
 30
0.0
 40
1.799999999999999
100
AcDbArc
 50
270.0
 51
90.0
1001
QCAD
1000
reversed:1
  0
ARC
  5
F8
330
1EB
100
AcDbEntity
  8
0
100
AcDbCircle
 10
76.40000000000043
 20
78.20000000000005
 30
0.0
 40
1.799999999999999
100
AcDbArc
 50
270.0
 51
90.0
1001
QCAD
1000
reversed:1
  0
ARC
  5
F9
330
1EB
100
AcDbEntity
  8
0
100
AcDbCircle
 10
76.39999999999986
 20
61.80000000000007
 30
0.0
 40
1.799999999999999
100
AcDbArc
 50
270.0
 51
90.0
1001
QCAD
1000
reversed:1
  0
ARC
  5
FD
330
1EB
100
AcDbEntity
  8
0
100
AcDbCircle
 10
76.39999999999992
 20
38.20000000000005
 30
0.0
 40
1.799999999999999
100
AcDbArc
 50
270.0
 51
90.0
1001
QCAD
1000
reversed:1
  0
ARC
  5
FE
330
1EB
100
AcDbEntity
  8
0
100
AcDbCircle
 10
76.3999999999998
 20
21.79999999999995
 30
0.0
 40
1.799999999999999
100
AcDbArc
 50
270.0
 51
90.0
1001
QCAD
1000
reversed:1
  0
ARC
  5
171
330
1EB
100
AcDbEntity
  8
0
100
AcDbCircle
 10
23.60000000000093
 20
1058.2
 30
0.0
 40
1.799999999999999
100
AcDbArc
 50
90.0
 51
270.0
  0
ARC
  5
172
330
1EB
100
AcDbEntity
  8
0
100
AcDbCircle
 10
23.60000000000088
 20
1041.8
 30
0.0
 40
1.799999999999999
100
AcDbArc
 50
90.0
 51
270.0
  0
ARC
  5
173
330
1EB
100
AcDbEntity
  8
0
100
AcDbCircle
 10
23.60000000000093
 20
1018.2
 30
0.0
 40
1.799999999999999
100
AcDbArc
 50
90.0
 51
270.0
  0
ARC
  5
174
330
1EB
100
AcDbEntity
  8
0
100
AcDbCircle
 10
23.60000000000076
 20
1001.8
 30
0.0
 40
1.799999999999999
100
AcDbArc
 50
90.0
 51
270.0
  0
ARC
  5
175
330
1EB
100
AcDbEntity
  8
0
100
AcDbCircle
 10
23.60000000000076
 20
978.1999999999998
 30
0.0
 40
1.799999999999999
100
AcDbArc
 50
90.0
 51
270.0
  0
ARC
  5
176
330
1EB
100
AcDbEntity
  8
0
100
AcDbCircle
 10
23.60000000000122
 20
961.8
 30
0.0
 40
1.799999999999999
100
AcDbArc
 50
90.0
 51
270.0
  0
ARC
  5
177
330
1EB
100
AcDbEntity
  8
0
100
AcDbCircle
 10
23.60000000000065
 20
938.1999999999998
 30
0.0
 40
1.799999999999999
100
AcDbArc
 50
90.0
 51
270.0
  0
ARC
  5
178
330
1EB
100
AcDbEntity
  8
0
100
AcDbCircle
 10
23.60000000000144
 20
921.8
 30
0.0
 40
1.799999999999999
100
AcDbArc
 50
90.0
 51
270.0
  0
ARC
  5
179
330
1EB
100
AcDbEntity
  8
0
100
AcDbCircle
 10
23.60000000000099
 20
898.1999999999999
 30
0.0
 40
1.799999999999999
100
AcDbArc
 50
90.0
 51
270.0
  0
ARC
  5
17A
330
1EB
100
AcDbEntity
  8
0
100
AcDbCircle
 10
23.60000000000133
 20
881.8
 30
0.0
 40
1.799999999999999
100
AcDbArc
 50
90.0
 51
270.0
  0
ARC
  5
17B
330
1EB
100
AcDbEntity
  8
0
100
AcDbCircle
 10
23.60000000000133
 20
858.1999999999998
 30
0.0
 40
1.799999999999999
100
AcDbArc
 50
90.0
 51
270.0
  0
ARC
  5
17C
330
1EB
100
AcDbEntity
  8
0
100
AcDbCircle
 10
23.60000000000156
 20
841.8
 30
0.0
 40
1.799999999999999
100
AcDbArc
 50
90.0
 51
270.0
  0
ARC
  5
17D
330
1EB
100
AcDbEntity
  8
0
100
AcDbCircle
 10
23.59999999999923
 20
818.1999999999999
 30
0.0
 40
1.799999999999999
100
AcDbArc
 50
90.0
 51
270.0
  0
ARC
  5
17E
330
1EB
100
AcDbEntity
  8
0
100
AcDbCircle
 10
23.59999999999991
 20
801.8
 30
0.0
 40
1.799999999999999
100
AcDbArc
 50
90.0
 51
270.0
  0
ARC
  5
17F
330
1EB
100
AcDbEntity
  8
0
100
AcDbCircle
 10
23.59999999999962
 20
778.1999999999998
 30
0.0
 40
1.799999999999999
100
AcDbArc
 50
90.0
 51
270.0
  0
ARC
  5
180
330
1EB
100
AcDbEntity
  8
0
100
AcDbCircle
 10
23.60000000000088
 20
761.7999999999997
 30
0.0
 40
1.799999999999999
100
AcDbArc
 50
90.0
 51
270.0
  0
ARC
  5
181
330
1EB
100
AcDbEntity
  8
0
100
AcDbCircle
 10
23.5999999999994
 20
738.1999999999999
 30
0.0
 40
1.799999999999999
100
AcDbArc
 50
90.0
 51
270.0
  0
ARC
  5
182
330
1EB
100
AcDbEntity
  8
0
100
AcDbCircle
 10
23.60000000000122
 20
721.7999999999998
 30
0.0
 40
1.799999999999999
100
AcDbArc
 50
90.0
 51
270.0
  0
ARC
  5
183
330
1EB
100
AcDbEntity
  8
0
100
AcDbCircle
 10
23.60000000000042
 20
698.1999999999998
 30
0.0
 40
1.799999999999999
100
AcDbArc
 50
90.0
 51
270.0
  0
ARC
  5
184
330
1EB
100
AcDbEntity
  8
0
100
AcDbCircle
 10
23.60000000000031
 20
681.8
 30
0.0
 40
1.799999999999999
100
AcDbArc
 50
90.0
 51
270.0
  0
ARC
  5
185
330
1EB
100
AcDbEntity
  8
0
100
AcDbCircle
 10
23.59999999999951
 20
658.1999999999998
 30
0.0
 40
1.799999999999999
100
AcDbArc
 50
90.0
 51
270.0
  0
ARC
  5
186
330
1EB
100
AcDbEntity
  8
0
100
AcDbCircle
 10
23.60000000000281
 20
641.8
 30
0.0
 40
1.799999999999999
100
AcDbArc
 50
90.0
 51
270.0
  0
ARC
  5
187
330
1EB
100
AcDbEntity
  8
0
100
AcDbCircle
 10
23.60000000000076
 20
618.1999999999999
 30
0.0
 40
1.799999999999999
100
AcDbArc
 50
90.0
 51
270.0
  0
ARC
  5
188
330
1EB
100
AcDbEntity
  8
0
100
AcDbCircle
 10
23.59999999999951
 20
601.8
 30
0.0
 40
1.799999999999999
100
AcDbArc
 50
90.0
 51
270.0
  0
ARC
  5
189
330
1EB
100
AcDbEntity
  8
0
100
AcDbCircle
 10
23.59999999999997
 20
578.1999999999998
 30
0.0
 40
1.799999999999999
100
AcDbArc
 50
90.0
 51
270.0
  0
ARC
  5
18A
330
1EB
100
AcDbEntity
  8
0
100
AcDbCircle
 10
23.60000000000139
 20
561.7999999999998
 30
0.0
 40
1.799999999999999
100
AcDbArc
 50
90.0
 51
270.0
  0
ARC
  5
18B
330
1EB
100
AcDbEntity
  8
0
100
AcDbCircle
 10
23.60000000000463
 20
538.1999999999998
 30
0.0
 40
1.799999999999999
100
AcDbArc
 50
90.0
 51
270.0
  0
ARC
  5
18C
330
1EB
100
AcDbEntity
  8
0
100
AcDbCircle
 10
23.60000000000338
 20
521.7999999999997
 30
0.0
 40
1.799999999999999
100
AcDbArc
 50
90.0
 51
270.0
  0
ARC
  5
18D
330
1EB
100
AcDbEntity
  8
0
100
AcDbCircle
 10
23.59999999999837
 20
498.1999999999998
 30
0.0
 40
1.799999999999999
100
AcDbArc
 50
90.0
 51
270.0
  0
ARC
  5
18E
330
1EB
100
AcDbEntity
  8
0
100
AcDbCircle
 10
23.59999999999951
 20
481.7999999999998
 30
0.0
 40
1.799999999999999
100
AcDbArc
 50
90.0
 51
270.0
  0
ARC
  5
18F
330
1EB
100
AcDbEntity
  8
0
100
AcDbCircle
 10
23.59999999999746
 20
458.1999999999999
 30
0.0
 40
1.799999999999999
100
AcDbArc
 50
90.0
 51
270.0
  0
ARC
  5
190
330
1EB
100
AcDbEntity
  8
0
100
AcDbCircle
 10
23.59999999999906
 20
441.7999999999997
 30
0.0
 40
1.799999999999999
100
AcDbArc
 50
90.0
 51
270.0
  0
ARC
  5
191
330
1EB
100
AcDbEntity
  8
0
100
AcDbCircle
 10
23.59999999999928
 20
418.1999999999999
 30
0.0
 40
1.799999999999999
100
AcDbArc
 50
90.0
 51
270.0
  0
ARC
  5
192
330
1EB
100
AcDbEntity
  8
0
100
AcDbCircle
 10
23.59999999999991
 20
401.7999999999999
 30
0.0
 40
1.799999999999999
100
AcDbArc
 50
90.0
 51
270.0
  0
ARC
  5
193
330
1EB
100
AcDbEntity
  8
0
100
AcDbCircle
 10
23.59999999999184
 20
378.2
 30
0.0
 40
1.799999999999999
100
AcDbArc
 50
90.0
 51
270.0
  0
ARC
  5
194
330
1EB
100
AcDbEntity
  8
0
100
AcDbCircle
 10
23.60000000000429
 20
361.7999999999998
 30
0.0
 40
1.799999999999999
100
AcDbArc
 50
90.0
 51
270.0
  0
ARC
  5
195
330
1EB
100
AcDbEntity
  8
0
100
AcDbCircle
 10
23.60000000000281
 20
338.2
 30
0.0
 40
1.799999999999999
100
AcDbArc
 50
90.0
 51
270.0
  0
ARC
  5
196
330
1EB
100
AcDbEntity
  8
0
100
AcDbCircle
 10
23.60000000000525
 20
321.7999999999998
 30
0.0
 40
1.799999999999999
100
AcDbArc
 50
90.0
 51
270.0
  0
ARC
  5
197
330
1EB
100
AcDbEntity
  8
0
100
AcDbCircle
 10
23.60000000000491
 20
298.1999999999998
 30
0.0
 40
1.799999999999999
100
AcDbArc
 50
90.0
 51
270.0
  0
ARC
  5
198
330
1EB
100
AcDbEntity
  8
0
100
AcDbCircle
 10
23.60000000000986
 20
281.7999999999998
 30
0.0
 40
1.799999999999999
100
AcDbArc
 50
90.0
 51
270.0
  0
ARC
  5
199
330
1EB
100
AcDbEntity
  8
0
100
AcDbCircle
 10
23.60000000000838
 20
258.1999999999998
 30
0.0
 40
1.799999999999999
100
AcDbArc
 50
90.0
 51
270.0
  0
ARC
  5
19A
330
1EB
100
AcDbEntity
  8
0
100
AcDbCircle
 10
23.60000000000565
 20
241.7999999999997
 30
0.0
 40
1.799999999999999
100
AcDbArc
 50
90.0
 51
270.0
  0
ARC
  5
19B
330
1EB
100
AcDbEntity
  8
0
100
AcDbCircle
 10
23.60000000000463
 20
218.1999999999998
 30
0.0
 40
1.799999999999999
100
AcDbArc
 50
90.0
 51
270.0
  0
ARC
  5
19C
330
1EB
100
AcDbEntity
  8
0
100
AcDbCircle
 10
23.60000000000019
 20
201.7999999999998
 30
0.0
 40
1.799999999999999
100
AcDbArc
 50
90.0
 51
270.0
  0
ARC
  5
19D
330
1EB
100
AcDbEntity
  8
0
100
AcDbCircle
 10
23.60000000001003
 20
178.2
 30
0.0
 40
1.799999999999999
100
AcDbArc
 50
90.0
 51
270.0
  0
ARC
  5
19E
330
1EB
100
AcDbEntity
  8
0
100
AcDbCircle
 10
23.59999999999485
 20
161.7999999999998
 30
0.0
 40
1.799999999999999
100
AcDbArc
 50
90.0
 51
270.0
  0
ARC
  5
19F
330
1EB
100
AcDbEntity
  8
0
100
AcDbCircle
 10
23.60000000001702
 20
138.1999999999999
 30
0.0
 40
1.799999999999999
100
AcDbArc
 50
90.0
 51
270.0
  0
ARC
  5
1A0
330
1EB
100
AcDbEntity
  8
0
100
AcDbCircle
 10
23.59999999999923
 20
121.7999999999998
 30
0.0
 40
1.799999999999999
100
AcDbArc
 50
90.0
 51
270.0
  0
ARC
  5
1A1
330
1EB
100
AcDbEntity
  8
0
100
AcDbCircle
 10
23.60000000000497
 20
98.19999999999993
 30
0.0
 40
1.799999999999999
100
AcDbArc
 50
90.0
 51
270.0
  0
ARC
  5
1A2
330
1EB
100
AcDbEntity
  8
0
100
AcDbCircle
 10
23.60000000000099
 20
81.79999999999978
 30
0.0
 40
1.799999999999999
100
AcDbArc
 50
90.0
 51
270.0
  0
ARC
  5
1A3
330
1EB
100
AcDbEntity
  8
0
100
AcDbCircle
 10
23.60000000000838
 20
58.19999999999999
 30
0.0
 40
1.799999999999999
100
AcDbArc
 50
90.0
 51
270.0
  0
ARC
  5
1A4
330
1EB
100
AcDbEntity
  8
0
100
AcDbCircle
 10
23.59999999999553
 20
41.7999999999999
 30
0.0
 40
1.799999999999999
100
AcDbArc
 50
90.0
 51
270.0
  0
ARC
  5
1A5
330
1EB
100
AcDbEntity
  8
0
100
AcDbCircle
 10
23.59999999999371
 20
18.19999999999987
 30
0.0
 40
1.799999999999999
100
AcDbArc
 50
90.0
 51
270.0
  0
ARC
  5
1C7
330
1EB
100
AcDbEntity
  8
0
100
AcDbCircle
 10
23.60000000000099
 20
1081.8
 30
0.0
 40
1.799999999999999
100
AcDbArc
 50
90.0
 51
270.0
  0
LINE
  5
FF
330
1EB
100
AcDbEntity
  8
0
100
AcDbLine
 10
70.0
 20
0.0
 30
0.0
 11
69.99999999999989
 21
20.0
 31
0.0
  0
LINE
  5
100
330
1EB
100
AcDbEntity
  8
0
100
AcDbLine
 10
70.0
 20
40.0
 30
0.0
 11
69.99999999999989
 21
60.00000000000011
 31
0.0
  0
LINE
  5
1A8
330
1EB
100
AcDbEntity
  8
0
100
AcDbLine
 10
30.0000000000008
 20
19.99999999999983
 30
0.0
 11
30.00000000000063
 21
39.99999999999994
 31
0.0
  0
LINE
  5
101
330
1EB
100
AcDbEntity
  8
0
100
AcDbLine
 10
69.99999999999989
 20
80.0
 30
0.0
 11
69.99999999999977
 21
100.0000000000001
 31
0.0
  0
LINE
  5
1A9
330
1EB
100
AcDbEntity
  8
0
100
AcDbLine
 10
30.00000000000074
 20
59.99999999999994
 30
0.0
 11
30.0000000000008
 21
79.99999999999983
 31
0.0
  0
LINE
  5
102
330
1EB
100
AcDbEntity
  8
0
100
AcDbLine
 10
70.00000000000034
 20
120.0
 30
0.0
 11
70.00000000000011
 21
140.0
 31
0.0
  0
LINE
  5
1AA
330
1EB
100
AcDbEntity
  8
0
100
AcDbLine
 10
30.00000000000074
 20
99.99999999999983
 30
0.0
 11
30.00000000000063
 21
119.9999999999999
 31
0.0
  0
LINE
  5
103
330
1EB
100
AcDbEntity
  8
0
100
AcDbLine
 10
70.00000000000006
 20
160.0
 30
0.0
 11
70.0
 21
180.0
 31
0.0
  0
LINE
  5
1AB
330
1EB
100
AcDbEntity
  8
0
100
AcDbLine
 10
30.00000000000074
 20
139.9999999999999
 30
0.0
 11
30.00000000000074
 21
159.9999999999998
 31
0.0
  0
LINE
  5
104
330
1EB
100
AcDbEntity
  8
0
100
AcDbLine
 10
70.00000000000028
 20
220.0
 30
0.0
 11
70.00000000000006
 21
200.0
 31
0.0
  0
LINE
  5
1AC
330
1EB
100
AcDbEntity
  8
0
100
AcDbLine
 10
30.0000000000008
 20
199.9999999999999
 30
0.0
 11
30.00000000000074
 21
179.9999999999999
 31
0.0
  0
LINE
  5
105
330
1EB
100
AcDbEntity
  8
0
100
AcDbLine
 10
70.00000000000011
 20
239.9999999999999
 30
0.0
 11
70.0000000000004
 21
259.9999999999999
 31
0.0
  0
LINE
  5
1AD
330
1EB
100
AcDbEntity
  8
0
100
AcDbLine
 10
30.00000000000074
 20
219.9999999999999
 30
0.0
 11
30.00000000000085
 21
239.9999999999998
 31
0.0
  0
LINE
  5
106
330
1EB
100
AcDbEntity
  8
0
100
AcDbLine
 10
70.00000000000034
 20
279.9999999999999
 30
0.0
 11
70.00000000000011
 21
300.0
 31
0.0
  0
LINE
  5
107
330
1EB
100
AcDbEntity
  8
0
100
AcDbLine
 10
70.00000000000006
 20
320.0000000000001
 30
0.0
 11
70.00000000000017
 21
340.0
 31
0.0
  0
LINE
  5
108
330
1EB
100
AcDbEntity
  8
0
100
AcDbLine
 10
70.00000000000006
 20
360.0000000000001
 30
0.0
 11
70.00000000000011
 21
380.0
 31
0.0
  0
LINE
  5
109
330
1EB
100
AcDbEntity
  8
0
100
AcDbLine
 10
70.00000000000017
 20
400.0000000000001
 30
0.0
 11
70.00000000000017
 21
420.0
 31
0.0
  0
LINE
  5
10A
330
1EB
100
AcDbEntity
  8
0
100
AcDbLine
 10
70.00000000000006
 20
440.0000000000001
 30
0.0
 11
70.00000000000017
 21
460.0
 31
0.0
  0
LINE
  5
10B
330
1EB
100
AcDbEntity
  8
0
100
AcDbLine
 10
70.00000000000017
 20
480.0
 30
0.0
 11
70.00000000000017
 21
500.0
 31
0.0
  0
LINE
  5
10C
330
1EB
100
AcDbEntity
  8
0
100
AcDbLine
 10
70.00000000000017
 20
520.0000000000001
 30
0.0
 11
70.00000000000017
 21
540.0000000000001
 31
0.0
  0
LINE
  5
10D
330
1EB
100
AcDbEntity
  8
0
100
AcDbLine
 10
70.00000000000017
 20
560.0000000000001
 30
0.0
 11
70.00000000000017
 21
580.0000000000001
 31
0.0
  0
LINE
  5
10E
330
1EB
100
AcDbEntity
  8
0
100
AcDbLine
 10
70.00000000000017
 20
600.0000000000001
 30
0.0
 11
70.00000000000017
 21
620.0
 31
0.0
  0
LINE
  5
10F
330
1EB
100
AcDbEntity
  8
0
100
AcDbLine
 10
70.00000000000017
 20
640.0
 30
0.0
 11
70.00000000000017
 21
660.0
 31
0.0
  0
LINE
  5
110
330
1EB
100
AcDbEntity
  8
0
100
AcDbLine
 10
70.00000000000017
 20
680.0
 30
0.0
 11
70.00000000000017
 21
700.0
 31
0.0
  0
LINE
  5
111
330
1EB
100
AcDbEntity
  8
0
100
AcDbLine
 10
70.00000000000023
 20
720.0000000000001
 30
0.0
 11
70.00000000000017
 21
740.0000000000001
 31
0.0
  0
LINE
  5
112
330
1EB
100
AcDbEntity
  8
0
100
AcDbLine
 10
70.00000000000017
 20
760.0
 30
0.0
 11
70.00000000000023
 21
780.0000000000001
 31
0.0
  0
LINE
  5
113
330
1EB
100
AcDbEntity
  8
0
100
AcDbLine
 10
70.00000000000017
 20
800.0
 30
0.0
 11
70.00000000000017
 21
820.0
 31
0.0
  0
LINE
  5
114
330
1EB
100
AcDbEntity
  8
0
100
AcDbLine
 10
70.00000000000023
 20
840.0
 30
0.0
 11
70.00000000000017
 21
860.0000000000001
 31
0.0
  0
LINE
  5
115
330
1EB
100
AcDbEntity
  8
0
100
AcDbLine
 10
70.00000000000023
 20
880.0
 30
0.0
 11
70.00000000000017
 21
900.0000000000001
 31
0.0
  0
LINE
  5
116
330
1EB
100
AcDbEntity
  8
0
100
AcDbLine
 10
70.00000000000028
 20
920.0
 30
0.0
 11
70.00000000000028
 21
940.0
 31
0.0
  0
LINE
  5
117
330
1EB
100
AcDbEntity
  8
0
100
AcDbLine
 10
70.00000000000006
 20
960.0
 30
0.0
 11
70.0000000000004
 21
980.0000000000001
 31
0.0
  0
LINE
  5
118
330
1EB
100
AcDbEntity
  8
0
100
AcDbLine
 10
70.00000000000017
 20
1000.0
 30
0.0
 11
70.00000000000006
 21
1020.0
 31
0.0
  0
LINE
  5
119
330
1EB
100
AcDbEntity
  8
0
100
AcDbLine
 10
70.00000000000017
 20
1040.0
 30
0.0
 11
70.00000000000023
 21
1060.0
 31
0.0
  0
LINE
  5
11A
330
1EB
100
AcDbEntity
  8
0
100
AcDbLine
 10
70.00000000000045
 20
1080.0
 30
0.0
 11
70.00000000000017
 21
1100.0
 31
0.0
  0
LINE
  5
1AE
330
1EB
100
AcDbEntity
  8
0
100
AcDbLine
 10
30.00000000000085
 20
259.9999999999998
 30
0.0
 11
30.00000000000063
 21
279.9999999999999
 31
0.0
  0
LINE
  5
1AF
330
1EB
100
AcDbEntity
  8
0
100
AcDbLine
 10
30.00000000000068
 20
299.9999999999999
 30
0.0
 11
30.00000000000085
 21
319.9999999999998
 31
0.0
  0
LINE
  5
1B0
330
1EB
100
AcDbEntity
  8
0
100
AcDbLine
 10
30.00000000000074
 20
339.9999999999999
 30
0.0
 11
30.00000000000085
 21
359.9999999999998
 31
0.0
  0
LINE
  5
1B1
330
1EB
100
AcDbEntity
  8
0
100
AcDbLine
 10
30.00000000000091
 20
379.9999999999998
 30
0.0
 11
30.0000000000008
 21
399.9999999999998
 31
0.0
  0
LINE
  5
1B2
330
1EB
100
AcDbEntity
  8
0
100
AcDbLine
 10
30.00000000000085
 20
419.9999999999998
 30
0.0
 11
30.00000000000085
 21
439.9999999999999
 31
0.0
  0
LINE
  5
1B3
330
1EB
100
AcDbEntity
  8
0
100
AcDbLine
 10
30.00000000000085
 20
459.9999999999998
 30
0.0
 11
30.00000000000085
 21
479.9999999999999
 31
0.0
  0
LINE
  5
1B4
330
1EB
100
AcDbEntity
  8
0
100
AcDbLine
 10
30.00000000000085
 20
499.9999999999998
 30
0.0
 11
30.00000000000085
 21
519.9999999999999
 31
0.0
  0
LINE
  5
1B5
330
1EB
100
AcDbEntity
  8
0
100
AcDbLine
 10
30.00000000000085
 20
539.9999999999999
 30
0.0
 11
30.00000000000085
 21
559.9999999999999
 31
0.0
  0
LINE
  5
1B6
330
1EB
100
AcDbEntity
  8
0
100
AcDbLine
 10
30.00000000000085
 20
579.9999999999999
 30
0.0
 11
30.00000000000085
 21
599.9999999999999
 31
0.0
  0
LINE
  5
1B7
330
1EB
100
AcDbEntity
  8
0
100
AcDbLine
 10
30.00000000000085
 20
619.9999999999998
 30
0.0
 11
30.00000000000085
 21
639.9999999999998
 31
0.0
  0
LINE
  5
1B8
330
1EB
100
AcDbEntity
  8
0
100
AcDbLine
 10
30.00000000000085
 20
659.9999999999998
 30
0.0
 11
30.00000000000085
 21
679.9999999999998
 31
0.0
  0
LINE
  5
1B9
330
1EB
100
AcDbEntity
  8
0
100
AcDbLine
 10
30.00000000000085
 20
699.9999999999999
 30
0.0
 11
30.00000000000085
 21
719.9999999999998
 31
0.0
  0
LINE
  5
1BA
330
1EB
100
AcDbEntity
  8
0
100
AcDbLine
 10
30.00000000000091
 20
739.9999999999999
 30
0.0
 11
30.00000000000085
 21
759.9999999999998
 31
0.0
  0
LINE
  5
1BB
330
1EB
100
AcDbEntity
  8
0
100
AcDbLine
 10
30.00000000000085
 20
779.9999999999998
 30
0.0
 11
30.00000000000085
 21
799.9999999999998
 31
0.0
  0
LINE
  5
1BC
330
1EB
100
AcDbEntity
  8
0
100
AcDbLine
 10
30.00000000000085
 20
819.9999999999998
 30
0.0
 11
30.00000000000097
 21
839.9999999999999
 31
0.0
  0
LINE
  5
1BD
330
1EB
100
AcDbEntity
  8
0
100
AcDbLine
 10
30.00000000000091
 20
859.9999999999998
 30
0.0
 11
30.00000000000085
 21
879.9999999999999
 31
0.0
  0
LINE
  5
1BE
330
1EB
100
AcDbEntity
  8
0
100
AcDbLine
 10
30.00000000000097
 20
899.9999999999999
 30
0.0
 11
30.00000000000085
 21
919.9999999999999
 31
0.0
  0
LINE
  5
1BF
330
1EB
100
AcDbEntity
  8
0
100
AcDbLine
 10
30.00000000000097
 20
939.9999999999999
 30
0.0
 11
30.00000000000097
 21
960.0
 31
0.0
  0
LINE
  5
1C0
330
1EB
100
AcDbEntity
  8
0
100
AcDbLine
 10
30.00000000000097
 20
980.0
 30
0.0
 11
30.00000000000085
 21
1000.0
 31
0.0
  0
LINE
  5
1C1
330
1EB
100
AcDbEntity
  8
0
100
AcDbLine
 10
30.00000000000097
 20
1020.0
 30
0.0
 11
30.00000000000085
 21
1040.0
 31
0.0
  0
LINE
  5
1C2
330
1EB
100
AcDbEntity
  8
0
100
AcDbLine
 10
30.00000000000102
 20
1060.0
 30
0.0
 11
30.00000000000097
 21
1080.0
 31
0.0
  0
LINE
  5
1C8
330
1EB
100
AcDbEntity
  8
0
100
AcDbLine
 10
23.60000000000088
 20
1100.0
 30
0.0
 11
0.0000000000006821
 21
1100.0
 31
0.0
  0
LINE
  5
1CC
330
1EB
100
AcDbEntity
  8
0
100
AcDbLine
 10
23.60000000000122
 20
-0.0000000000002842
 30
0.0
 11
0.0
 21
-0.0000000000000568
 31
0.0
  0
LINE
  5
1CD
330
1EB
100
AcDbEntity
  8
0
100
AcDbLine
 10
0.0000000000006821
 20
1100.0
 30
0.0
 11
0.0
 21
-0.0000000000000568
 31
0.0
  0
VIEWPORT
  5
295
330
1E7
100
AcDbEntity
 67
     1
  8
0
100
AcDbViewport
 10
128.5
 20
97.5
 30
0.0
 40
314.226
 41
222.18
 68
     1
 69
     1
 12
128.5
 22
97.5
 13
0.0
 23
0.0
 14
10.0
 24
10.0
 15
10.0
 25
10.0
 16
0.0
 26
0.0
 36
1.0
 17
0.0
 27
0.0
 37
0.0
 42
50.0
 43
0.0
 44
0.0
 45
222.18
 50
0.0
 51
0.0
 72
   100
 90
   557152
  1

281
     0
 71
     1
 74
     0
110
0.0
120
0.0
130
0.0
111
1.0
121
0.0
131
0.0
112
0.0
122
1.0
132
0.0
 79
     0
146
0.0
170
     0
 61
     5
348
1FB
292
     1
282
     1
141
0.0
142
0.0
 63
   256
361
296
  0
ENDSEC
  0
SECTION
  2
OBJECTS
  0
DICTIONARY
  5
1D9
330
0
100
AcDbDictionary
281
     1
  3
ACAD_DETAILVIEWSTYLE
350
29E
  3
ACAD_GROUP
350
1DA
  3
ACAD_LAYOUT
350
1E6
  3
ACAD_MATERIAL
350
20F
  3
ACAD_MLEADERSTYLE
350
227
  3
ACAD_MLINESTYLE
350
1E3
  3
ACAD_PLOTSETTINGS
350
1E5
  3
ACAD_PLOTSTYLENAME
350
1DB
  3
ACAD_SCALELIST
350
213
  3
ACAD_SECTIONVIEWSTYLE
350
29F
  3
ACAD_TABLESTYLE
350
225
  3
ACAD_VISUALSTYLE
350
1F6
  3
AcDbVariableDictionary
350
297
  3
ACDB_RECOMPOSE_DATA
350
29B
  3
QCAD_OBJECTS
350
22B
  0
SUN
  5
229
330
1F5
100
AcDbSun
 90
        1
290
     0
 63
     7
421
 16777215
 40
1.0
291
     1
 91
  2455826
 92
 54000000
292
     0
 70
     2
 71
   256
280
     1
  0
SUN
  5
296
330
295
100
AcDbSun
 90
        1
290
     0
 63
     7
421
 16777215
 40
1.0
291
     1
 91
  2455826
 92
 54000000
292
     0
 70
     2
 71
   256
280
     1
  0
DICTIONARY
  5
29E
102
{ACAD_REACTORS
330
1D9
102
}
330
1D9
100
AcDbDictionary
281
     1
  0
DICTIONARY
  5
1DA
102
{ACAD_REACTORS
330
1D9
102
}
330
1D9
100
AcDbDictionary
281
     1
  0
DICTIONARY
  5
1E6
102
{ACAD_REACTORS
330
1D9
102
}
330
1D9
100
AcDbDictionary
281
     1
  3
Layout1
350
1EA
  3
Model
350
1EE
  0
DICTIONARY
  5
20F
102
{ACAD_REACTORS
330
1D9
102
}
330
1D9
100
AcDbDictionary
281
     1
  3
ByBlock
350
211
  3
ByLayer
350
210
  3
Global
350
212
  0
DICTIONARY
  5
227
102
{ACAD_REACTORS
330
1D9
102
}
330
1D9
100
AcDbDictionary
281
     1
  3
Standard
350
228
  0
DICTIONARY
  5
1E3
102
{ACAD_REACTORS
330
1D9
102
}
330
1D9
100
AcDbDictionary
281
     1
  3
Standard
350
1E4
  0
DICTIONARY
  5
1E5
102
{ACAD_REACTORS
330
1D9
102
}
330
1D9
100
AcDbDictionary
281
     1
  0
ACDBDICTIONARYWDFLT
  5
1DB
102
{ACAD_REACTORS
330
1D9
102
}
330
1D9
100
AcDbDictionary
281
     1
  3
Normal
350
1DC
100
AcDbDictionaryWithDefault
340
1DC
  0
DICTIONARY
  5
213
102
{ACAD_REACTORS
330
1D9
102
}
330
1D9
100
AcDbDictionary
281
     1
  3
A0
350
214
  3
A1
350
215
  3
A2
350
216
  3
A3
350
217
  3
A4
350
218
  3
A5
350
219
  3
A6
350
21A
  3
A7
350
21B
  3
A8
350
21C
  3
A9
350
21D
  3
B1
350
21E
  3
B2
350
21F
  3
B3
350
220
  3
B4
350
221
  3
B5
350
222
  3
B6
350
223
  3
B7
350
224
  0
DICTIONARY
  5
29F
102
{ACAD_REACTORS
330
1D9
102
}
330
1D9
100
AcDbDictionary
281
     1
  0
DICTIONARY
  5
225
102
{ACAD_REACTORS
330
1D9
102
}
330
1D9
100
AcDbDictionary
281
     1
  3
Standard
350
226
  0
DICTIONARY
  5
1F6
102
{ACAD_REACTORS
330
1D9
102
}
330
1D9
100
AcDbDictionary
281
     1
  3
2dWireframe
350
1FB
  3
Basic
350
1FE
  3
Brighten
350
202
  3
ColorChange
350
206
  3
Conceptual
350
200
  3
Dim
350
201
  3
EdgeColorOff
350
209
  3
Facepattern
350
205
  3
Flat
350
1F7
  3
FlatWithEdges
350
1F8
  3
Gouraud
350
1F9
  3
GouraudWithEdges
350
1FA
  3
Hidden
350
1FD
  3
JitterOff
350
207
  3
Linepattern
350
204
  3
OverhangOff
350
208
  3
Realistic
350
1FF
  3
Shaded
350
20E
  3
Shaded with edges
350
20D
  3
Shades of Gray
350
20A
  3
Sketchy
350
20B
  3
Thicken
350
203
  3
Wireframe
350
1FC
  3
X-Ray
350
20C
  0
DICTIONARY
  5
297
102
{ACAD_REACTORS
330
1D9
102
}
330
1D9
100
AcDbDictionary
281
     1
  3
CANNOSCALE
350
298
  3
CMLEADERSTYLE
350
29D
  3
CTABLESTYLE
350
29C
  0
XRECORD
  5
29B
102
{ACAD_REACTORS
330
1D9
102
}
330
1D9
100
AcDbXrecord
280
     1
 90
        1
330
226
  0
DICTIONARY
  5
22B
102
{ACAD_REACTORS
330
1D9
102
}
330
1D9
100
AcDbDictionary
281
     1
  3
ColorSettings/BackgroundColor
350
22D
  3
ColorSettings/ColorMode
350
22E
  3
Grid/DisplayGrid00
350
22F
  3
Grid/DisplayGrid01
350
230
  3
Grid/DisplayGrid02
350
231
  3
Grid/DisplayGrid03
350
232
  3
Grid/GridSpacingX00
350
233
  3
Grid/GridSpacingX01
350
234
  3
Grid/GridSpacingX02
350
235
  3
Grid/GridSpacingX03
350
236
  3
Grid/GridSpacingY00
350
237
  3
Grid/GridSpacingY01
350
238
  3
Grid/GridSpacingY02
350
239
  3
Grid/GridSpacingY03
350
23A
  3
Grid/IsometricGrid00
350
23B
  3
Grid/IsometricGrid01
350
23C
  3
Grid/IsometricGrid02
350
23D
  3
Grid/IsometricGrid03
350
23E
  3
Grid/IsometricProjection00
350
23F
  3
Grid/IsometricProjection01
350
240
  3
Grid/IsometricProjection02
350
241
  3
Grid/IsometricProjection03
350
242
  3
Grid/MetaGridSpacingX00
350
243
  3
Grid/MetaGridSpacingX01
350
244
  3
Grid/MetaGridSpacingX02
350
245
  3
Grid/MetaGridSpacingX03
350
246
  3
Grid/MetaGridSpacingY00
350
247
  3
Grid/MetaGridSpacingY01
350
248
  3
Grid/MetaGridSpacingY02
350
249
  3
Grid/MetaGridSpacingY03
350
24A
  3
MultiPageSettings/Columns
350
24B
  3
MultiPageSettings/GlueMarginsBottom
350
24C
  3
MultiPageSettings/GlueMarginsLeft
350
24D
  3
MultiPageSettings/GlueMarginsRight
350
24E
  3
MultiPageSettings/GlueMarginsTop
350
24F
  3
MultiPageSettings/PrintCropMarks
350
250
  3
MultiPageSettings/Rows
350
251
  3
PageSettings/OffsetX
350
252
  3
PageSettings/OffsetY
350
253
  3
PageSettings/PageOrientation
350
254
  3
PageSettings/PaperHeight
350
255
  3
PageSettings/PaperWidth
350
256
  3
PageSettings/Scale
350
257
  3
PageSettings/ShowPaperBorders
350
258
  3
PageTagSettings/EnablePageTags
350
259
  3
PageTagSettings/TagAlignment
350
25A
  3
PageTagSettings/TagFont
350
25B
  3
PageTagSettings/TagPosition
350
25C
  3
QCADVersion
350
25D
  3
UnitSettings/PaperUnit
350
25E
  3
ViewportCenter
350
25F
  3
ViewportHeight
350
260
  3
ViewportWidth
350
261
  0
LAYOUT
  5
1EA
102
{ACAD_REACTORS
330
1E6
102
}
330
1E6
100
AcDbPlotSettings
  1

  2
none_device
  4
ISO_A4_(210.00_x_297.00_MM)
  6

 40
7.5
 41
20.0
 42
7.5
 43
20.0
 44
210.0
 45
297.0
 46
0.0
 47
0.0
 48
0.0
 49
0.0
140
0.0
141
0.0
142
1.0
143
128.0
 70
   688
 72
     1
 73
     1
 74
     5
  7

 75
     5
 76
     0
 77
     2
 78
   300
147
0.0078125
148
0.0
149
0.0
100
AcDbLayout
  1
Layout1
 70
     1
 71
     0
 10
-20.0
 20
-7.5
 11
277.0
 21
202.5
 12
0.0
 22
0.0
 32
0.0
 14
0.0
 24
0.0
 34
0.0
 15
0.0
 25
0.0
 35
0.0
146
0.0
 13
0.0
 23
0.0
 33
0.0
 16
1.0
 26
0.0
 36
0.0
 17
0.0
 27
1.0
 37
0.0
 76
     0
330
1E7
331
295
  0
LAYOUT
  5
1EE
102
{ACAD_REACTORS
330
1E6
102
}
330
1E6
100
AcDbPlotSettings
  1

  2
none_device
  4
Letter_(8.50_x_11.00_Inches)
  6

 40
6.35
 41
6.35
 42
6.35000508
 43
6.35000508
 44
215.9
 45
279.4
 46
0.0
 47
0.0
 48
0.0
 49
0.0
140
0.0
141
0.0
142
1.0
143
1.0
 70
  1712
 72
     0
 73
     0
 74
     0
  7

 75
     0
 76
     0
 77
     2
 78
   300
147
1.0
148
0.0
149
0.0
100
AcDbLayout
  1
Model
 70
     1
 71
     0
 10
0.0
 20
0.0
 11
12.0
 21
9.0
 12
0.0
 22
0.0
 32
0.0
 14
0.0
 24
-0.0000000000002842
 34
0.0
 15
139.9999999999997
 25
1100.0
 35
0.0
146
0.0
 13
0.0
 23
0.0
 33
0.0
 16
1.0
 26
0.0
 36
0.0
 17
0.0
 27
1.0
 37
0.0
 76
     0
330
1EB
331
1F5
  0
MATERIAL
  5
211
102
{ACAD_REACTORS
330
20F
102
}
330
20F
100
AcDbMaterial
  1
ByBlock
 72
     1
 94
      127
  0
MATERIAL
  5
210
102
{ACAD_REACTORS
330
20F
102
}
330
20F
100
AcDbMaterial
  1
ByLayer
 72
     1
 94
      127
  0
MATERIAL
  5
212
102
{ACAD_REACTORS
330
20F
102
}
330
20F
100
AcDbMaterial
  1
Global
 72
     1
 94
      127
  0
MLEADERSTYLE
  5
228
102
{ACAD_REACTORS
330
227
102
}
330
227
100
AcDbMLeaderStyle
179
     2
170
     2
171
     1
172
     0
 90
        2
 40
0.0
 41
0.0
173
     1
 91
-1056964608
340
1E0
 92
       -2
290
     1
 42
0.09
291
     1
 43
0.36
  3
Standard
341
0
 44
0.18
300

342
1DE
174
     1
178
     6
175
     1
176
     0
 93
-1056964608
 45
0.18
292
     0
297
     0
 46
0.18
343
0
 94
-1056964608
 47
1.0
 49
1.0
140
1.0
293
     1
141
0.0
294
     1
177
     0
142
1.0
295
     0
296
     0
143
0.125
271
     0
272
     9
273
     9
298
     0
  0
MLINESTYLE
  5
1E4
102
{ACAD_REACTORS
330
1E3
102
}
330
1E3
100
AcDbMlineStyle
  2
Standard
 70
     0
  3

 62
   256
 51
90.0
 52
90.0
 71
     2
 49
0.5
 62
   256
  6
BYLAYER
 49
-0.5
 62
   256
  6
BYLAYER
  0
ACDBPLACEHOLDER
  5
1DC
102
{ACAD_REACTORS
330
1DB
102
}
330
1DB
  0
SCALE
  5
214
102
{ACAD_REACTORS
330
213
102
}
330
213
100
AcDbScale
 70
     0
300
1:1
140
1.0
141
1.0
290
     1
  0
SCALE
  5
215
102
{ACAD_REACTORS
330
213
102
}
330
213
100
AcDbScale
 70
     0
300
1/128" = 1'-0"
140
0.0078125
141
12.0
290
     0
  0
SCALE
  5
216
102
{ACAD_REACTORS
330
213
102
}
330
213
100
AcDbScale
 70
     0
300
1/64" = 1'-0"
140
0.015625
141
12.0
290
     0
  0
SCALE
  5
217
102
{ACAD_REACTORS
330
213
102
}
330
213
100
AcDbScale
 70
     0
300
1/32" = 1'-0"
140
0.03125
141
12.0
290
     0
  0
SCALE
  5
218
102
{ACAD_REACTORS
330
213
102
}
330
213
100
AcDbScale
 70
     0
300
1/16" = 1'-0"
140
0.0625
141
12.0
290
     0
  0
SCALE
  5
219
102
{ACAD_REACTORS
330
213
102
}
330
213
100
AcDbScale
 70
     0
300
3/32" = 1'-0"
140
0.09375
141
12.0
290
     0
  0
SCALE
  5
21A
102
{ACAD_REACTORS
330
213
102
}
330
213
100
AcDbScale
 70
     0
300
1/8" = 1'-0"
140
0.125
141
12.0
290
     0
  0
SCALE
  5
21B
102
{ACAD_REACTORS
330
213
102
}
330
213
100
AcDbScale
 70
     0
300
3/16" = 1'-0"
140
0.1875
141
12.0
290
     0
  0
SCALE
  5
21C
102
{ACAD_REACTORS
330
213
102
}
330
213
100
AcDbScale
 70
     0
300
1/4" = 1'-0"
140
0.25
141
12.0
290
     0
  0
SCALE
  5
21D
102
{ACAD_REACTORS
330
213
102
}
330
213
100
AcDbScale
 70
     0
300
3/8" = 1'-0"
140
0.375
141
12.0
290
     0
  0
SCALE
  5
21E
102
{ACAD_REACTORS
330
213
102
}
330
213
100
AcDbScale
 70
     0
300
1/2" = 1'-0"
140
0.5
141
12.0
290
     0
  0
SCALE
  5
21F
102
{ACAD_REACTORS
330
213
102
}
330
213
100
AcDbScale
 70
     0
300
3/4" = 1'-0"
140
0.75
141
12.0
290
     0
  0
SCALE
  5
220
102
{ACAD_REACTORS
330
213
102
}
330
213
100
AcDbScale
 70
     0
300
1" = 1'-0"
140
1.0
141
12.0
290
     0
  0
SCALE
  5
221
102
{ACAD_REACTORS
330
213
102
}
330
213
100
AcDbScale
 70
     0
300
1-1/2" = 1'-0"
140
1.5
141
12.0
290
     0
  0
SCALE
  5
222
102
{ACAD_REACTORS
330
213
102
}
330
213
100
AcDbScale
 70
     0
300
3" = 1'-0"
140
3.0
141
12.0
290
     0
  0
SCALE
  5
223
102
{ACAD_REACTORS
330
213
102
}
330
213
100
AcDbScale
 70
     0
300
6" = 1'-0"
140
6.0
141
12.0
290
     0
  0
SCALE
  5
224
102
{ACAD_REACTORS
330
213
102
}
330
213
100
AcDbScale
 70
     0
300
1'-0" = 1'-0"
140
12.0
141
12.0
290
     0
  0
TABLESTYLE
  5
226
102
{ACAD_REACTORS
330
225
102
}
102
{ACAD_XDICTIONARY
360
299
102
}
330
225
100
AcDbTableStyle
  3
Standard
 70
     0
 71
     0
 40
0.06
 41
0.06
280
     0
281
     0
  7
Standard
140
0.18
170
     2
 62
     0
 63
   257
283
     0
 90
        4
 91
        0
  1

274
    -2
284
     1
 64
     0
275
    -2
285
     1
 65
     0
276
    -2
286
     1
 66
     0
277
    -2
287
     1
 67
     0
278
    -2
288
     1
 68
     0
279
    -2
289
     1
 69
     0
  7
Standard
140
0.25
170
     5
 62
     0
 63
   257
283
     0
 90
        4
 91
        0
  1

274
    -2
284
     1
 64
     0
275
    -2
285
     1
 65
     0
276
    -2
286
     1
 66
     0
277
    -2
287
     1
 67
     0
278
    -2
288
     1
 68
     0
279
    -2
289
     1
 69
     0
  7
Standard
140
0.18
170
     5
 62
     0
 63
   257
283
     0
 90
        4
 91
        0
  1

274
    -2
284
     1
 64
     0
275
    -2
285
     1
 65
     0
276
    -2
286
     1
 66
     0
277
    -2
287
     1
 67
     0
278
    -2
288
     1
 68
     0
279
    -2
289
     1
 69
     0
  0
VISUALSTYLE
  5
1FB
102
{ACAD_REACTORS
330
1F6
102
}
330
1F6
100
AcDbVisualStyle
  2
2dWireframe
 70
     4
177
     3
291
     0
 70
    58
 90
        0
176
     1
 90
        2
176
     1
 90
        0
176
     1
 90
        0
176
     1
 40
0.6
176
     1
 40
30.0
176
     1
 62
     7
420
 16777215
176
     1
 90
        1
176
     1
 90
        4
176
     1
 62
     7
176
     1
 62
   257
176
     1
 90
        1
176
     1
 90
        1
176
     1
 40
1.0
176
     1
 90
        0
176
     1
 62
   257
176
     1
 40
1.0
176
     1
 90
        1
176
     1
 90
        6
176
     1
 90
        2
176
     1
 62
     7
176
     1
 90
        5
176
     1
 90
        0
176
     1
 90
        0
176
     1
290
     0
176
     1
 90
        1
176
     1
 40
0.0
176
     1
 90
        0
176
     1
290
     1
176
     1
290
     1
176
     1
290
     0
176
     1
290
     0
176
     1
290
     0
176
     1
290
     0
176
     1
290
     0
176
     1
290
     0
176
     1
290
     0
176
     1
 90
       50
176
     1
 40
0.0
176
     1
 40
1.0
176
     1
 90
        0
176
     1
 62
    18
420
        0
176
     1
 90
       50
176
     1
 90
        3
176
     1
 62
     5
420
      255
176
     1
290
     0
176
     1
 90
       50
176
     1
 90
       50
176
     1
 90
       50
176
     1
290
     0
176
     1
 90
       50
176
     1
 62
   256
176
     0
 40
1.0
176
     0
 90
        2
176
     1
  1
strokes_ogs.tif
176
     1
290
     0
176
     1
 40
1.0
176
     1
 40
1.0
176
     1
  0
VISUALSTYLE
  5
1FE
102
{ACAD_REACTORS
330
1F6
102
}
330
1F6
100
AcDbVisualStyle
  2
Basic
 70
     7
177
     3
291
     1
 70
    58
 90
        1
176
     1
 90
        0
176
     1
 90
        1
176
     1
 90
        0
176
     1
 40
0.6
176
     1
 40
30.0
176
     1
 62
     7
420
 16777215
176
     1
 90
        0
176
     1
 90
        4
176
     1
 62
     7
176
     1
 62
   257
176
     1
 90
        1
176
     1
 90
        1
176
     1
 40
1.0
176
     1
 90
        8
176
     1
 62
     7
176
     1
 40
1.0
176
     1
 90
        1
176
     1
 90
        6
176
     1
 90
        2
176
     1
 62
     7
176
     1
 90
        5
176
     1
 90
        0
176
     1
 90
        0
176
     1
290
     0
176
     1
 90
        1
176
     1
 40
0.0
176
     1
 90
        0
176
     1
290
     0
176
     1
290
     1
176
     1
290
     1
176
     1
290
     0
176
     1
290
     0
176
     1
290
     0
176
     1
290
     0
176
     1
290
     0
176
     1
290
     0
176
     1
 90
       50
176
     1
 40
0.0
176
     1
 40
1.0
176
     1
 90
        0
176
     1
 62
    18
420
        0
176
     1
 90
       50
176
     1
 90
        3
176
     1
 62
     5
420
      255
176
     1
290
     0
176
     1
 90
       50
176
     1
 90
       50
176
     1
 90
       50
176
     1
290
     0
176
     1
 90
       50
176
     1
 62
   256
176
     0
 40
1.0
176
     0
 90
        2
176
     1
  1
strokes_ogs.tif
176
     1
290
     0
176
     1
 40
1.0
176
     1
 40
1.0
176
     1
  0
VISUALSTYLE
  5
202
102
{ACAD_REACTORS
330
1F6
102
}
330
1F6
100
AcDbVisualStyle
  2
Brighten
 70
    12
177
     3
291
     1
 70
    58
 90
        2
176
     1
 90
        2
176
     1
 90
        0
176
     1
 90
        0
176
     1
 40
0.6
176
     1
 40
30.0
176
     1
 62
     7
420
 16777215
176
     1
 90
        1
176
     1
 90
        4
176
     1
 62
     7
176
     1
 62
   257
176
     1
 90
        1
176
     1
 90
        1
176
     1
 40
1.0
176
     1
 90
        8
176
     1
 62
     7
176
     1
 40
1.0
176
     1
 90
        1
176
     1
 90
        6
176
     1
 90
        2
176
     1
 62
     7
176
     1
 90
        5
176
     1
 90
        0
176
     1
 90
        0
176
     1
290
     0
176
     1
 90
        1
176
     1
 40
50.0
176
     1
 90
        0
176
     1
290
     0
176
     1
290
     1
176
     1
290
     1
176
     1
290
     0
176
     1
290
     0
176
     1
290
     0
176
     1
290
     0
176
     1
290
     0
176
     1
290
     0
176
     1
 90
       50
176
     1
 40
0.0
176
     1
 40
1.0
176
     1
 90
        0
176
     1
 62
    18
420
        0
176
     1
 90
       50
176
     1
 90
        3
176
     1
 62
     5
420
      255
176
     1
290
     0
176
     1
 90
       50
176
     1
 90
       50
176
     1
 90
       50
176
     1
290
     0
176
     1
 90
       50
176
     1
 62
   256
176
     0
 40
1.0
176
     0
 90
        2
176
     1
  1
strokes_ogs.tif
176
     1
290
     0
176
     1
 40
1.0
176
     1
 40
1.0
176
     1
  0
VISUALSTYLE
  5
206
102
{ACAD_REACTORS
330
1F6
102
}
330
1F6
100
AcDbVisualStyle
  2
ColorChange
 70
    16
177
     3
291
     1
 70
    58
 90
        2
176
     1
 90
        2
176
     1
 90
        3
176
     1
 90
        0
176
     1
 40
0.6
176
     1
 40
30.0
176
     1
 62
     8
420
  8421504
176
     1
 90
        1
176
     1
 90
        4
176
     1
 62
     7
176
     1
 62
   257
176
     1
 90
        1
176
     1
 90
        1
176
     1
 40
1.0
176
     1
 90
        8
176
     1
 62
     8
420
  8421504
176
     1
 40
1.0
176
     1
 90
        1
176
     1
 90
        6
176
     1
 90
        2
176
     1
 62
     7
176
     1
 90
        5
176
     1
 90
        0
176
     1
 90
        0
176
     1
290
     0
176
     1
 90
        1
176
     1
 40
0.0
176
     1
 90
        0
176
     1
290
     0
176
     1
290
     1
176
     1
290
     1
176
     1
290
     0
176
     1
290
     0
176
     1
290
     0
176
     1
290
     0
176
     1
290
     0
176
     1
290
     0
176
     1
 90
       50
176
     1
 40
0.0
176
     1
 40
1.0
176
     1
 90
        0
176
     1
 62
    18
420
        0
176
     1
 90
       50
176
     1
 90
        3
176
     1
 62
     5
420
      255
176
     1
290
     0
176
     1
 90
       50
176
     1
 90
       50
176
     1
 90
       50
176
     1
290
     0
176
     1
 90
       50
176
     1
 62
   256
176
     0
 40
1.0
176
     0
 90
        2
176
     1
  1
strokes_ogs.tif
176
     1
290
     0
176
     1
 40
1.0
176
     1
 40
1.0
176
     1
  0
VISUALSTYLE
  5
200
102
{ACAD_REACTORS
330
1F6
102
}
330
1F6
100
AcDbVisualStyle
  2
Conceptual
 70
     9
177
     3
291
     0
 70
    58
 90
        3
176
     1
 90
        2
176
     1
 90
        0
176
     1
 90
        0
176
     1
 40
0.6
176
     1
 40
30.0
176
     1
 62
     7
420
 16777215
176
     1
 90
        2
176
     1
 90
        2
176
     1
 62
     7
176
     1
 62
   257
176
     1
 90
        1
176
     1
 90
        1
176
     1
 40
179.0
176
     1
 90
        8
176
     1
 62
     7
176
     1
 40
1.0
176
     1
 90
        1
176
     1
 90
        6
176
     1
 90
        2
176
     1
 62
     7
176
     1
 90
        3
176
     1
 90
        0
176
     1
 90
        0
176
     1
290
     0
176
     1
 90
        1
176
     1
 40
0.0
176
     1
 90
        0
176
     1
290
     0
176
     1
290
     1
176
     1
290
     1
176
     1
290
     0
176
     1
290
     0
176
     1
290
     0
176
     1
290
     0
176
     1
290
     0
176
     1
290
     0
176
     1
 90
       50
176
     1
 40
0.0
176
     1
 40
1.0
176
     1
 90
        0
176
     1
 62
    18
420
        0
176
     1
 90
       50
176
     1
 90
        3
176
     1
 62
     5
420
      255
176
     1
290
     0
176
     1
 90
       50
176
     1
 90
       50
176
     1
 90
       50
176
     1
290
     0
176
     1
 90
       50
176
     1
 62
   256
176
     0
 40
1.0
176
     0
 90
        2
176
     1
  1
strokes_ogs.tif
176
     1
290
     0
176
     1
 40
1.0
176
     1
 40
1.0
176
     1
  0
VISUALSTYLE
  5
201
102
{ACAD_REACTORS
330
1F6
102
}
330
1F6
100
AcDbVisualStyle
  2
Dim
 70
    11
177
     3
291
     1
 70
    58
 90
        2
176
     1
 90
        2
176
     1
 90
        0
176
     1
 90
        0
176
     1
 40
0.6
176
     1
 40
30.0
176
     1
 62
     7
420
 16777215
176
     1
 90
        1
176
     1
 90
        4
176
     1
 62
     7
176
     1
 62
   257
176
     1
 90
        1
176
     1
 90
        1
176
     1
 40
1.0
176
     1
 90
        8
176
     1
 62
     7
176
     1
 40
1.0
176
     1
 90
        1
176
     1
 90
        6
176
     1
 90
        2
176
     1
 62
     7
176
     1
 90
        5
176
     1
 90
        0
176
     1
 90
        0
176
     1
290
     0
176
     1
 90
        1
176
     1
 40
-50.0
176
     1
 90
        0
176
     1
290
     0
176
     1
290
     1
176
     1
290
     1
176
     1
290
     0
176
     1
290
     0
176
     1
290
     0
176
     1
290
     0
176
     1
290
     0
176
     1
290
     0
176
     1
 90
       50
176
     1
 40
0.0
176
     1
 40
1.0
176
     1
 90
        0
176
     1
 62
    18
420
        0
176
     1
 90
       50
176
     1
 90
        3
176
     1
 62
     5
420
      255
176
     1
290
     0
176
     1
 90
       50
176
     1
 90
       50
176
     1
 90
       50
176
     1
290
     0
176
     1
 90
       50
176
     1
 62
   256
176
     0
 40
1.0
176
     0
 90
        2
176
     1
  1
strokes_ogs.tif
176
     1
290
     0
176
     1
 40
1.0
176
     1
 40
1.0
176
     1
  0
VISUALSTYLE
  5
209
102
{ACAD_REACTORS
330
1F6
102
}
330
1F6
100
AcDbVisualStyle
  2
EdgeColorOff
 70
    22
177
     3
291
     1
 70
    58
 90
        2
176
     0
 90
        2
176
     0
 90
        0
176
     0
 90
        0
176
     0
 40
0.6
176
     0
 40
30.0
176
     0
 62
     7
420
 16777215
176
     0
 90
        1
176
     0
 90
        4
176
     0
 62
     7
176
     0
 62
   257
176
     0
 90
        1
176
     0
 90
        1
176
     0
 40
1.0
176
     0
 90
        8
176
     2
 62
     7
176
     0
 40
1.0
176
     0
 90
        1
176
     0
 90
        6
176
     0
 90
        2
176
     0
 62
     7
176
     0
 90
        5
176
     0
 90
        0
176
     0
 90
        0
176
     0
290
     0
176
     0
 90
        1
176
     0
 40
0.0
176
     0
 90
        0
176
     0
290
     0
176
     0
290
     1
176
     0
290
     1
176
     0
290
     0
176
     0
290
     0
176
     0
290
     0
176
     0
290
     0
176
     0
290
     0
176
     0
290
     0
176
     0
 90
       50
176
     0
 40
0.0
176
     0
 40
1.0
176
     0
 90
        0
176
     0
 62
    18
420
        0
176
     0
 90
       50
176
     0
 90
        3
176
     0
 62
     5
420
      255
176
     0
290
     0
176
     0
 90
       50
176
     0
 90
       50
176
     0
 90
       50
176
     0
290
     0
176
     0
 90
       50
176
     0
 62
   256
176
     0
 40
1.0
176
     0
 90
        2
176
     0
  1
strokes_ogs.tif
176
     0
290
     0
176
     0
 40
1.0
176
     0
 40
1.0
176
     0
  0
VISUALSTYLE
  5
205
102
{ACAD_REACTORS
330
1F6
102
}
330
1F6
100
AcDbVisualStyle
  2
Facepattern
 70
    15
177
     3
291
     1
 70
    58
 90
        2
176
     1
 90
        2
176
     1
 90
        0
176
     1
 90
        0
176
     1
 40
0.6
176
     1
 40
30.0
176
     1
 62
     7
420
 16777215
176
     1
 90
        1
176
     1
 90
        4
176
     1
 62
     7
176
     1
 62
   257
176
     1
 90
        1
176
     1
 90
        1
176
     1
 40
1.0
176
     1
 90
        8
176
     1
 62
     7
176
     1
 40
1.0
176
     1
 90
        1
176
     1
 90
        6
176
     1
 90
        2
176
     1
 62
     7
176
     1
 90
        5
176
     1
 90
        0
176
     1
 90
        0
176
     1
290
     0
176
     1
 90
        1
176
     1
 40
0.0
176
     1
 90
        0
176
     1
290
     0
176
     1
290
     1
176
     1
290
     1
176
     1
290
     0
176
     1
290
     0
176
     1
290
     0
176
     1
290
     0
176
     1
290
     0
176
     1
290
     0
176
     1
 90
       50
176
     1
 40
0.0
176
     1
 40
1.0
176
     1
 90
        0
176
     1
 62
    18
420
        0
176
     1
 90
       50
176
     1
 90
        3
176
     1
 62
     5
420
      255
176
     1
290
     0
176
     1
 90
       50
176
     1
 90
       50
176
     1
 90
       50
176
     1
290
     0
176
     1
 90
       50
176
     1
 62
   256
176
     0
 40
1.0
176
     0
 90
        2
176
     1
  1
strokes_ogs.tif
176
     1
290
     0
176
     1
 40
1.0
176
     1
 40
1.0
176
     1
  0
VISUALSTYLE
  5
1F7
102
{ACAD_REACTORS
330
1F6
102
}
330
1F6
100
AcDbVisualStyle
  2
Flat
 70
     0
177
     3
291
     1
 70
    58
 90
        2
176
     1
 90
        1
176
     1
 90
        1
176
     1
 90
        2
176
     1
 40
0.6
176
     1
 40
30.0
176
     1
 62
     7
420
 16777215
176
     1
 90
        0
176
     1
 90
        0
176
     1
 62
     7
176
     1
 62
   257
176
     1
 90
        1
176
     1
 90
        1
176
     1
 40
1.0
176
     1
 90
        8
176
     1
 62
     7
176
     1
 40
1.0
176
     1
 90
        1
176
     1
 90
        6
176
     1
 90
        2
176
     1
 62
     7
176
     1
 90
        5
176
     1
 90
        0
176
     1
 90
        0
176
     1
290
     0
176
     1
 90
       13
176
     1
 40
0.0
176
     1
 90
        0
176
     1
290
     0
176
     1
290
     1
176
     1
290
     1
176
     1
290
     0
176
     1
290
     0
176
     1
290
     0
176
     1
290
     0
176
     1
290
     0
176
     1
290
     0
176
     1
 90
       50
176
     1
 40
0.0
176
     1
 40
1.0
176
     1
 90
        0
176
     1
 62
    18
420
        0
176
     1
 90
       50
176
     1
 90
        3
176
     1
 62
     5
420
      255
176
     1
290
     0
176
     1
 90
       50
176
     1
 90
       50
176
     1
 90
       50
176
     1
290
     0
176
     1
 90
       50
176
     1
 62
   256
176
     0
 40
1.0
176
     0
 90
        2
176
     1
  1
strokes_ogs.tif
176
     1
290
     0
176
     1
 40
1.0
176
     1
 40
1.0
176
     1
  0
VISUALSTYLE
  5
1F8
102
{ACAD_REACTORS
330
1F6
102
}
330
1F6
100
AcDbVisualStyle
  2
FlatWithEdges
 70
     1
177
     3
291
     1
 70
    58
 90
        2
176
     1
 90
        1
176
     1
 90
        1
176
     1
 90
        2
176
     1
 40
0.6
176
     1
 40
30.0
176
     1
 62
     7
420
 16777215
176
     1
 90
        1
176
     1
 90
        0
176
     1
 62
     7
176
     1
 62
   257
176
     1
 90
        1
176
     1
 90
        1
176
     1
 40
1.0
176
     1
 90
        0
176
     1
 62
   257
176
     1
 40
1.0
176
     1
 90
        1
176
     1
 90
        6
176
     1
 90
        2
176
     1
 62
     7
176
     1
 90
        5
176
     1
 90
        0
176
     1
 90
        0
176
     1
290
     0
176
     1
 90
       13
176
     1
 40
0.0
176
     1
 90
        0
176
     1
290
     0
176
     1
290
     1
176
     1
290
     1
176
     1
290
     0
176
     1
290
     0
176
     1
290
     0
176
     1
290
     0
176
     1
290
     0
176
     1
290
     0
176
     1
 90
       50
176
     1
 40
0.0
176
     1
 40
1.0
176
     1
 90
        0
176
     1
 62
    18
420
        0
176
     1
 90
       50
176
     1
 90
        3
176
     1
 62
     5
420
      255
176
     1
290
     0
176
     1
 90
       50
176
     1
 90
       50
176
     1
 90
       50
176
     1
290
     0
176
     1
 90
       50
176
     1
 62
   256
176
     0
 40
1.0
176
     0
 90
        2
176
     1
  1
strokes_ogs.tif
176
     1
290
     0
176
     1
 40
1.0
176
     1
 40
1.0
176
     1
  0
VISUALSTYLE
  5
1F9
102
{ACAD_REACTORS
330
1F6
102
}
330
1F6
100
AcDbVisualStyle
  2
Gouraud
 70
     2
177
     3
291
     1
 70
    58
 90
        2
176
     1
 90
        2
176
     1
 90
        1
176
     1
 90
        2
176
     1
 40
0.6
176
     1
 40
30.0
176
     1
 62
     7
420
 16777215
176
     1
 90
        0
176
     1
 90
        0
176
     1
 62
     7
176
     1
 62
   257
176
     1
 90
        1
176
     1
 90
        1
176
     1
 40
1.0
176
     1
 90
        0
176
     1
 62
     7
176
     1
 40
1.0
176
     1
 90
        1
176
     1
 90
        6
176
     1
 90
        2
176
     1
 62
     7
176
     1
 90
        5
176
     1
 90
        0
176
     1
 90
        0
176
     1
290
     0
176
     1
 90
       13
176
     1
 40
0.0
176
     1
 90
        0
176
     1
290
     0
176
     1
290
     1
176
     1
290
     1
176
     1
290
     0
176
     1
290
     0
176
     1
290
     0
176
     1
290
     0
176
     1
290
     0
176
     1
290
     0
176
     1
 90
       50
176
     1
 40
0.0
176
     1
 40
1.0
176
     1
 90
        0
176
     1
 62
    18
420
        0
176
     1
 90
       50
176
     1
 90
        3
176
     1
 62
     5
420
      255
176
     1
290
     0
176
     1
 90
       50
176
     1
 90
       50
176
     1
 90
       50
176
     1
290
     0
176
     1
 90
       50
176
     1
 62
   256
176
     0
 40
1.0
176
     0
 90
        2
176
     1
  1
strokes_ogs.tif
176
     1
290
     0
176
     1
 40
1.0
176
     1
 40
1.0
176
     1
  0
VISUALSTYLE
  5
1FA
102
{ACAD_REACTORS
330
1F6
102
}
330
1F6
100
AcDbVisualStyle
  2
GouraudWithEdges
 70
     3
177
     3
291
     1
 70
    58
 90
        2
176
     1
 90
        2
176
     1
 90
        1
176
     1
 90
        2
176
     1
 40
0.6
176
     1
 40
30.0
176
     1
 62
     7
420
 16777215
176
     1
 90
        1
176
     1
 90
        0
176
     1
 62
     7
176
     1
 62
   257
176
     1
 90
        1
176
     1
 90
        1
176
     1
 40
1.0
176
     1
 90
        0
176
     1
 62
   257
176
     1
 40
1.0
176
     1
 90
        1
176
     1
 90
        6
176
     1
 90
        2
176
     1
 62
     7
176
     1
 90
        5
176
     1
 90
        0
176
     1
 90
        0
176
     1
290
     0
176
     1
 90
       13
176
     1
 40
0.0
176
     1
 90
        0
176
     1
290
     0
176
     1
290
     1
176
     1
290
     1
176
     1
290
     0
176
     1
290
     0
176
     1
290
     0
176
     1
290
     0
176
     1
290
     0
176
     1
290
     0
176
     1
 90
       50
176
     1
 40
0.0
176
     1
 40
1.0
176
     1
 90
        0
176
     1
 62
    18
420
        0
176
     1
 90
       50
176
     1
 90
        3
176
     1
 62
     5
420
      255
176
     1
290
     0
176
     1
 90
       50
176
     1
 90
       50
176
     1
 90
       50
176
     1
290
     0
176
     1
 90
       50
176
     1
 62
   256
176
     0
 40
1.0
176
     0
 90
        2
176
     1
  1
strokes_ogs.tif
176
     1
290
     0
176
     1
 40
1.0
176
     1
 40
1.0
176
     1
  0
VISUALSTYLE
  5
1FD
102
{ACAD_REACTORS
330
1F6
102
}
330
1F6
100
AcDbVisualStyle
  2
Hidden
 70
     6
177
     3
291
     0
 70
    58
 90
        1
176
     1
 90
        2
176
     1
 90
        2
176
     1
 90
        0
176
     1
 40
0.6
176
     1
 40
30.0
176
     1
 62
     7
420
 16777215
176
     1
 90
        2
176
     1
 90
        2
176
     1
 62
     7
176
     1
 62
   257
176
     1
 90
        2
176
     1
 90
        1
176
     1
 40
40.0
176
     1
 90
        0
176
     1
 62
   257
176
     1
 40
1.0
176
     1
 90
        1
176
     1
 90
        6
176
     1
 90
        2
176
     1
 62
     7
176
     1
 90
        3
176
     1
 90
        0
176
     1
 90
        0
176
     1
290
     0
176
     1
 90
        1
176
     1
 40
0.0
176
     1
 90
        0
176
     1
290
     0
176
     1
290
     1
176
     1
290
     1
176
     1
290
     0
176
     1
290
     0
176
     1
290
     0
176
     1
290
     0
176
     1
290
     0
176
     1
290
     0
176
     1
 90
       50
176
     1
 40
0.0
176
     1
 40
1.0
176
     1
 90
        0
176
     1
 62
    18
420
        0
176
     1
 90
       50
176
     1
 90
        3
176
     1
 62
     5
420
      255
176
     1
290
     0
176
     1
 90
       50
176
     1
 90
       50
176
     1
 90
       50
176
     1
290
     0
176
     1
 90
       50
176
     1
 62
   256
176
     0
 40
1.0
176
     0
 90
        2
176
     1
  1
strokes_ogs.tif
176
     1
290
     0
176
     1
 40
1.0
176
     1
 40
1.0
176
     1
  0
VISUALSTYLE
  5
207
102
{ACAD_REACTORS
330
1F6
102
}
330
1F6
100
AcDbVisualStyle
  2
JitterOff
 70
    20
177
     3
291
     1
 70
    58
 90
        2
176
     0
 90
        2
176
     0
 90
        0
176
     0
 90
        0
176
     0
 40
0.6
176
     0
 40
30.0
176
     0
 62
     7
420
 16777215
176
     0
 90
        1
176
     0
 90
        4
176
     0
 62
     7
176
     0
 62
   257
176
     0
 90
        1
176
     0
 90
        1
176
     0
 40
1.0
176
     0
 90
       10
176
     2
 62
     7
176
     0
 40
1.0
176
     0
 90
        1
176
     0
 90
        6
176
     0
 90
        2
176
     0
 62
     7
176
     0
 90
        5
176
     0
 90
        0
176
     0
 90
        0
176
     0
290
     0
176
     0
 90
        1
176
     0
 40
0.0
176
     0
 90
        0
176
     0
290
     0
176
     0
290
     1
176
     0
290
     1
176
     0
290
     0
176
     0
290
     0
176
     0
290
     0
176
     0
290
     0
176
     0
290
     0
176
     0
290
     0
176
     0
 90
       50
176
     0
 40
0.0
176
     0
 40
1.0
176
     0
 90
        0
176
     0
 62
    18
420
        0
176
     0
 90
       50
176
     0
 90
        3
176
     0
 62
     5
420
      255
176
     0
290
     0
176
     0
 90
       50
176
     0
 90
       50
176
     0
 90
       50
176
     0
290
     0
176
     0
 90
       50
176
     0
 62
   256
176
     0
 40
1.0
176
     0
 90
        2
176
     0
  1
strokes_ogs.tif
176
     0
290
     0
176
     0
 40
1.0
176
     0
 40
1.0
176
     0
  0
VISUALSTYLE
  5
204
102
{ACAD_REACTORS
330
1F6
102
}
330
1F6
100
AcDbVisualStyle
  2
Linepattern
 70
    14
177
     3
291
     1
 70
    58
 90
        2
176
     1
 90
        2
176
     1
 90
        0
176
     1
 90
        0
176
     1
 40
0.6
176
     1
 40
30.0
176
     1
 62
     7
420
 16777215
176
     1
 90
        1
176
     1
 90
        4
176
     1
 62
     7
176
     1
 62
   257
176
     1
 90
        7
176
     1
 90
        7
176
     1
 40
1.0
176
     1
 90
        8
176
     1
 62
     7
176
     1
 40
1.0
176
     1
 90
        1
176
     1
 90
        6
176
     1
 90
        2
176
     1
 62
     7
176
     1
 90
        5
176
     1
 90
        0
176
     1
 90
        0
176
     1
290
     0
176
     1
 90
        1
176
     1
 40
0.0
176
     1
 90
        0
176
     1
290
     0
176
     1
290
     1
176
     1
290
     1
176
     1
290
     0
176
     1
290
     0
176
     1
290
     0
176
     1
290
     0
176
     1
290
     0
176
     1
290
     0
176
     1
 90
       50
176
     1
 40
0.0
176
     1
 40
1.0
176
     1
 90
        0
176
     1
 62
    18
420
        0
176
     1
 90
       50
176
     1
 90
        3
176
     1
 62
     5
420
      255
176
     1
290
     0
176
     1
 90
       50
176
     1
 90
       50
176
     1
 90
       50
176
     1
290
     0
176
     1
 90
       50
176
     1
 62
   256
176
     0
 40
1.0
176
     0
 90
        2
176
     1
  1
strokes_ogs.tif
176
     1
290
     0
176
     1
 40
1.0
176
     1
 40
1.0
176
     1
  0
VISUALSTYLE
  5
208
102
{ACAD_REACTORS
330
1F6
102
}
330
1F6
100
AcDbVisualStyle
  2
OverhangOff
 70
    21
177
     3
291
     1
 70
    58
 90
        2
176
     0
 90
        2
176
     0
 90
        0
176
     0
 90
        0
176
     0
 40
0.6
176
     0
 40
30.0
176
     0
 62
     7
420
 16777215
176
     0
 90
        1
176
     0
 90
        4
176
     0
 62
     7
176
     0
 62
   257
176
     0
 90
        1
176
     0
 90
        1
176
     0
 40
1.0
176
     0
 90
        9
176
     2
 62
     7
176
     0
 40
1.0
176
     0
 90
        1
176
     0
 90
        6
176
     0
 90
        2
176
     0
 62
     7
176
     0
 90
        5
176
     0
 90
        0
176
     0
 90
        0
176
     0
290
     0
176
     0
 90
        1
176
     0
 40
0.0
176
     0
 90
        0
176
     0
290
     0
176
     0
290
     1
176
     0
290
     1
176
     0
290
     0
176
     0
290
     0
176
     0
290
     0
176
     0
290
     0
176
     0
290
     0
176
     0
290
     0
176
     0
 90
       50
176
     0
 40
0.0
176
     0
 40
1.0
176
     0
 90
        0
176
     0
 62
    18
420
        0
176
     0
 90
       50
176
     0
 90
        3
176
     0
 62
     5
420
      255
176
     0
290
     0
176
     0
 90
       50
176
     0
 90
       50
176
     0
 90
       50
176
     0
290
     0
176
     0
 90
       50
176
     0
 62
   256
176
     0
 40
1.0
176
     0
 90
        2
176
     0
  1
strokes_ogs.tif
176
     0
290
     0
176
     0
 40
1.0
176
     0
 40
1.0
176
     0
  0
VISUALSTYLE
  5
1FF
102
{ACAD_REACTORS
330
1F6
102
}
330
1F6
100
AcDbVisualStyle
  2
Realistic
 70
     8
177
     3
291
     0
 70
    58
 90
        2
176
     1
 90
        3
176
     1
 90
        0
176
     1
 90
        2
176
     1
 40
0.6
176
     1
 40
30.0
176
     1
 62
     7
420
 16777215
176
     1
 90
        0
176
     1
 90
        0
176
     1
 62
     7
176
     1
 62
   257
176
     1
 90
        1
176
     1
 90
        1
176
     1
 40
1.0
176
     1
 90
        8
176
     1
 62
   257
176
     1
 40
1.0
176
     1
 90
        1
176
     1
 90
        6
176
     1
 90
        2
176
     1
 62
     7
176
     1
 90
        3
176
     1
 90
        0
176
     1
 90
        0
176
     1
290
     0
176
     1
 90
       13
176
     1
 40
0.0
176
     1
 90
        0
176
     1
290
     0
176
     1
290
     1
176
     1
290
     1
176
     1
290
     0
176
     1
290
     0
176
     1
290
     0
176
     1
290
     0
176
     1
290
     0
176
     1
290
     0
176
     1
 90
       50
176
     1
 40
0.0
176
     1
 40
1.0
176
     1
 90
        0
176
     1
 62
    18
420
        0
176
     1
 90
       50
176
     1
 90
        3
176
     1
 62
     5
420
      255
176
     1
290
     0
176
     1
 90
       50
176
     1
 90
       50
176
     1
 90
       50
176
     1
290
     0
176
     1
 90
       50
176
     1
 62
   256
176
     0
 40
1.0
176
     0
 90
        2
176
     1
  1
strokes_ogs.tif
176
     1
290
     0
176
     1
 40
1.0
176
     1
 40
1.0
176
     1
  0
VISUALSTYLE
  5
20E
102
{ACAD_REACTORS
330
1F6
102
}
330
1F6
100
AcDbVisualStyle
  2
Shaded
 70
    27
177
     3
291
     0
 70
    58
 90
        2
176
     1
 90
        2
176
     1
 90
        1
176
     1
 90
        2
176
     1
 40
0.6
176
     1
 40
30.0
176
     1
 62
     7
420
 16777215
176
     1
 90
        0
176
     1
 90
        4
176
     1
 62
     7
176
     1
 62
   257
176
     1
 90
        1
176
     1
 90
        1
176
     1
 40
1.0
176
     1
 90
        8
176
     1
 62
   257
176
     1
 40
1.0
176
     1
 90
        1
176
     1
 90
        6
176
     1
 90
        2
176
     1
 62
     8
420
  7895160
176
     1
 90
        3
176
     1
 90
        0
176
     1
 90
        0
176
     1
290
     0
176
     1
 90
        5
176
     1
 40
0.0
176
     1
 90
        0
176
     1
290
     0
176
     1
290
     1
176
     1
290
     1
176
     1
290
     0
176
     1
290
     0
176
     1
290
     0
176
     1
290
     0
176
     1
290
     0
176
     1
290
     0
176
     1
 90
       50
176
     1
 40
0.0
176
     1
 40
1.0
176
     1
 90
        0
176
     1
 62
    18
420
        0
176
     1
 90
       50
176
     1
 90
        3
176
     1
 62
     5
420
      255
176
     1
290
     0
176
     1
 90
       50
176
     1
 90
       50
176
     1
 90
       50
176
     1
290
     0
176
     1
 90
       50
176
     1
 62
   256
176
     0
 40
1.0
176
     0
 90
        2
176
     1
  1
strokes_ogs.tif
176
     1
290
     0
176
     1
 40
1.0
176
     1
 40
1.0
176
     1
  0
VISUALSTYLE
  5
20D
102
{ACAD_REACTORS
330
1F6
102
}
330
1F6
100
AcDbVisualStyle
  2
Shaded with edges
 70
    26
177
     3
291
     0
 70
    58
 90
        2
176
     1
 90
        2
176
     1
 90
        1
176
     1
 90
        2
176
     1
 40
0.6
176
     1
 40
30.0
176
     1
 62
     7
420
 16777215
176
     1
 90
        1
176
     1
 90
       10
176
     1
 62
     7
176
     1
 62
   257
176
     1
 90
        2
176
     1
 90
        1
176
     1
 40
1.0
176
     1
 90
        8
176
     1
 62
   257
176
     1
 40
1.0
176
     1
 90
        1
176
     1
 90
        6
176
     1
 90
        2
176
     1
 62
     7
176
     1
 90
        3
176
     1
 90
        0
176
     1
 90
        0
176
     1
290
     0
176
     1
 90
        5
176
     1
 40
0.0
176
     1
 90
        0
176
     1
290
     0
176
     1
290
     1
176
     1
290
     1
176
     1
290
     0
176
     1
290
     0
176
     1
290
     0
176
     1
290
     0
176
     1
290
     0
176
     1
290
     0
176
     1
 90
       50
176
     1
 40
0.0
176
     1
 40
1.0
176
     1
 90
        0
176
     1
 62
    18
420
        0
176
     1
 90
       50
176
     1
 90
        3
176
     1
 62
     5
420
      255
176
     1
290
     0
176
     1
 90
       50
176
     1
 90
       50
176
     1
 90
       50
176
     1
290
     0
176
     1
 90
       50
176
     1
 62
   256
176
     0
 40
1.0
176
     0
 90
        2
176
     1
  1
strokes_ogs.tif
176
     1
290
     0
176
     1
 40
1.0
176
     1
 40
1.0
176
     1
  0
VISUALSTYLE
  5
20A
102
{ACAD_REACTORS
330
1F6
102
}
330
1F6
100
AcDbVisualStyle
  2
Shades of Gray
 70
    23
177
     3
291
     0
 70
    58
 90
        2
176
     1
 90
        2
176
     1
 90
        3
176
     1
 90
        0
176
     1
 40
0.6
176
     1
 40
30.0
176
     1
 62
     7
420
 16777215
176
     1
 90
        2
176
     1
 90
        2
176
     1
 62
     7
176
     1
 62
     7
176
     1
 90
        1
176
     1
 90
        1
176
     1
 40
40.0
176
     1
 90
        8
176
     1
 62
     7
176
     1
 40
1.0
176
     1
 90
        1
176
     1
 90
        6
176
     1
 90
        2
176
     1
 62
     7
176
     1
 90
        3
176
     1
 90
        0
176
     1
 90
        0
176
     1
290
     0
176
     1
 90
        1
176
     1
 40
0.0
176
     1
 90
        0
176
     1
290
     0
176
     1
290
     1
176
     1
290
     1
176
     1
290
     0
176
     1
290
     0
176
     1
290
     0
176
     1
290
     0
176
     1
290
     0
176
     1
290
     0
176
     1
 90
       50
176
     1
 40
0.0
176
     1
 40
1.0
176
     1
 90
        0
176
     1
 62
    18
420
        0
176
     1
 90
       50
176
     1
 90
        3
176
     1
 62
     5
420
      255
176
     1
290
     0
176
     1
 90
       50
176
     1
 90
       50
176
     1
 90
       50
176
     1
290
     0
176
     1
 90
       50
176
     1
 62
   256
176
     0
 40
1.0
176
     0
 90
        2
176
     1
  1
strokes_ogs.tif
176
     1
290
     0
176
     1
 40
1.0
176
     1
 40
1.0
176
     1
  0
VISUALSTYLE
  5
20B
102
{ACAD_REACTORS
330
1F6
102
}
330
1F6
100
AcDbVisualStyle
  2
Sketchy
 70
    24
177
     3
291
     0
 70
    58
 90
        1
176
     1
 90
        2
176
     1
 90
        2
176
     1
 90
        0
176
     1
 40
0.6
176
     1
 40
30.0
176
     1
 62
     7
420
 16777215
176
     1
 90
        2
176
     1
 90
        2
176
     1
 62
     7
176
     1
 62
     7
176
     1
 90
        1
176
     1
 90
        1
176
     1
 40
40.0
176
     1
 90
       11
176
     1
 62
     7
176
     1
 40
1.0
176
     1
 90
        1
176
     1
 90
        6
176
     1
 90
        2
176
     1
 62
     7
176
     1
 90
        6
176
     1
 90
        0
176
     1
 90
        0
176
     1
290
     0
176
     1
 90
        1
176
     1
 40
0.0
176
     1
 90
        0
176
     1
290
     0
176
     1
290
     1
176
     1
290
     1
176
     1
290
     0
176
     1
290
     0
176
     1
290
     0
176
     1
290
     0
176
     1
290
     0
176
     1
290
     0
176
     1
 90
       50
176
     1
 40
0.0
176
     1
 40
1.0
176
     1
 90
        0
176
     1
 62
    18
420
        0
176
     1
 90
       50
176
     1
 90
        3
176
     1
 62
     5
420
      255
176
     1
290
     0
176
     1
 90
       50
176
     1
 90
       50
176
     1
 90
       50
176
     1
290
     0
176
     1
 90
       50
176
     1
 62
   256
176
     0
 40
1.0
176
     0
 90
        2
176
     1
  1
strokes_ogs.tif
176
     1
290
     0
176
     1
 40
1.0
176
     1
 40
1.0
176
     1
  0
VISUALSTYLE
  5
203
102
{ACAD_REACTORS
330
1F6
102
}
330
1F6
100
AcDbVisualStyle
  2
Thicken
 70
    13
177
     3
291
     1
 70
    58
 90
        2
176
     1
 90
        2
176
     1
 90
        0
176
     1
 90
        0
176
     1
 40
0.6
176
     1
 40
30.0
176
     1
 62
     7
420
 16777215
176
     1
 90
        1
176
     1
 90
        4
176
     1
 62
     7
176
     1
 62
   257
176
     1
 90
        1
176
     1
 90
        1
176
     1
 40
1.0
176
     1
 90
       12
176
     1
 62
     7
176
     1
 40
1.0
176
     1
 90
        1
176
     1
 90
        6
176
     1
 90
        2
176
     1
 62
     7
176
     1
 90
        5
176
     1
 90
        0
176
     1
 90
        0
176
     1
290
     0
176
     1
 90
        1
176
     1
 40
0.0
176
     1
 90
        0
176
     1
290
     0
176
     1
290
     1
176
     1
290
     1
176
     1
290
     0
176
     1
290
     0
176
     1
290
     0
176
     1
290
     0
176
     1
290
     0
176
     1
290
     0
176
     1
 90
       50
176
     1
 40
0.0
176
     1
 40
1.0
176
     1
 90
        0
176
     1
 62
    18
420
        0
176
     1
 90
       50
176
     1
 90
        3
176
     1
 62
     5
420
      255
176
     1
290
     0
176
     1
 90
       50
176
     1
 90
       50
176
     1
 90
       50
176
     1
290
     0
176
     1
 90
       50
176
     1
 62
   256
176
     0
 40
1.0
176
     0
 90
        2
176
     1
  1
strokes_ogs.tif
176
     1
290
     0
176
     1
 40
1.0
176
     1
 40
1.0
176
     1
  0
VISUALSTYLE
  5
1FC
102
{ACAD_REACTORS
330
1F6
102
}
330
1F6
100
AcDbVisualStyle
  2
Wireframe
 70
     5
177
     3
291
     0
 70
    58
 90
        0
176
     1
 90
        2
176
     1
 90
        0
176
     1
 90
        0
176
     1
 40
0.6
176
     1
 40
30.0
176
     1
 62
     7
420
 16777215
176
     1
 90
        1
176
     1
 90
        4
176
     1
 62
     7
176
     1
 62
   257
176
     1
 90
        1
176
     1
 90
        1
176
     1
 40
1.0
176
     1
 90
        0
176
     1
 62
   257
176
     1
 40
1.0
176
     1
 90
        1
176
     1
 90
        6
176
     1
 90
        2
176
     1
 62
     7
176
     1
 90
        3
176
     1
 90
        0
176
     1
 90
        0
176
     1
290
     0
176
     1
 90
        1
176
     1
 40
0.0
176
     1
 90
        0
176
     1
290
     0
176
     1
290
     1
176
     1
290
     1
176
     1
290
     0
176
     1
290
     0
176
     1
290
     0
176
     1
290
     0
176
     1
290
     0
176
     1
290
     0
176
     1
 90
       50
176
     1
 40
0.0
176
     1
 40
1.0
176
     1
 90
        0
176
     1
 62
    18
420
        0
176
     1
 90
       50
176
     1
 90
        3
176
     1
 62
     5
420
      255
176
     1
290
     0
176
     1
 90
       50
176
     1
 90
       50
176
     1
 90
       50
176
     1
290
     0
176
     1
 90
       50
176
     1
 62
   256
176
     0
 40
1.0
176
     0
 90
        2
176
     1
  1
strokes_ogs.tif
176
     1
290
     0
176
     1
 40
1.0
176
     1
 40
1.0
176
     1
  0
VISUALSTYLE
  5
20C
102
{ACAD_REACTORS
330
1F6
102
}
330
1F6
100
AcDbVisualStyle
  2
X-Ray
 70
    25
177
     3
291
     0
 70
    58
 90
        2
176
     1
 90
        2
176
     1
 90
        1
176
     1
 90
        1
176
     1
 40
0.5
176
     1
 40
30.0
176
     1
 62
     7
420
 16777215
176
     1
 90
        1
176
     1
 90
        0
176
     1
 62
     7
176
     1
 62
   257
176
     1
 90
        1
176
     1
 90
        1
176
     1
 40
1.0
176
     1
 90
        8
176
     1
 62
     7
176
     1
 40
1.0
176
     1
 90
        1
176
     1
 90
        6
176
     1
 90
        2
176
     1
 62
     7
176
     1
 90
        3
176
     1
 90
        0
176
     1
 90
        0
176
     1
290
     0
176
     1
 90
       13
176
     1
 40
0.0
176
     1
 90
        0
176
     1
290
     0
176
     1
290
     1
176
     1
290
     1
176
     1
290
     0
176
     1
290
     0
176
     1
290
     0
176
     1
290
     0
176
     1
290
     0
176
     1
290
     0
176
     1
 90
       50
176
     1
 40
0.0
176
     1
 40
1.0
176
     1
 90
        0
176
     1
 62
    18
420
        0
176
     1
 90
       50
176
     1
 90
        3
176
     1
 62
     5
420
      255
176
     1
290
     0
176
     1
 90
       50
176
     1
 90
       50
176
     1
 90
       50
176
     1
290
     0
176
     1
 90
       50
176
     1
 62
   256
176
     0
 40
1.0
176
     0
 90
        2
176
     1
  1
strokes_ogs.tif
176
     1
290
     0
176
     1
 40
1.0
176
     1
 40
1.0
176
     1
  0
DICTIONARYVAR
  5
298
102
{ACAD_REACTORS
330
297
102
}
330
297
100
DictionaryVariables
280
     0
  1
1:1
  0
DICTIONARYVAR
  5
29D
102
{ACAD_REACTORS
330
297
102
}
330
297
100
DictionaryVariables
280
     0
  1
Standard
  0
DICTIONARYVAR
  5
29C
102
{ACAD_REACTORS
330
297
102
}
330
297
100
DictionaryVariables
280
     0
  1
Standard
  0
XRECORD
  5
22D
102
{ACAD_REACTORS
330
22B
102
}
330
22B
100
AcDbXrecord
280
     1
1000
#ffffff
  0
XRECORD
  5
22E
102
{ACAD_REACTORS
330
22B
102
}
330
22B
100
AcDbXrecord
280
     1
1000
FullColor
  0
XRECORD
  5
22F
102
{ACAD_REACTORS
330
22B
102
}
330
22B
100
AcDbXrecord
280
     1
290
     1
  0
XRECORD
  5
230
102
{ACAD_REACTORS
330
22B
102
}
330
22B
100
AcDbXrecord
280
     1
290
     1
  0
XRECORD
  5
231
102
{ACAD_REACTORS
330
22B
102
}
330
22B
100
AcDbXrecord
280
     1
290
     1
  0
XRECORD
  5
232
102
{ACAD_REACTORS
330
22B
102
}
330
22B
100
AcDbXrecord
280
     1
290
     1
  0
XRECORD
  5
233
102
{ACAD_REACTORS
330
22B
102
}
330
22B
100
AcDbXrecord
280
     1
1000
auto
  0
XRECORD
  5
234
102
{ACAD_REACTORS
330
22B
102
}
330
22B
100
AcDbXrecord
280
     1
1000
auto
  0
XRECORD
  5
235
102
{ACAD_REACTORS
330
22B
102
}
330
22B
100
AcDbXrecord
280
     1
1000
auto
  0
XRECORD
  5
236
102
{ACAD_REACTORS
330
22B
102
}
330
22B
100
AcDbXrecord
280
     1
1000
auto
  0
XRECORD
  5
237
102
{ACAD_REACTORS
330
22B
102
}
330
22B
100
AcDbXrecord
280
     1
1000
auto
  0
XRECORD
  5
238
102
{ACAD_REACTORS
330
22B
102
}
330
22B
100
AcDbXrecord
280
     1
1000
auto
  0
XRECORD
  5
239
102
{ACAD_REACTORS
330
22B
102
}
330
22B
100
AcDbXrecord
280
     1
1000
auto
  0
XRECORD
  5
23A
102
{ACAD_REACTORS
330
22B
102
}
330
22B
100
AcDbXrecord
280
     1
1000
auto
  0
XRECORD
  5
23B
102
{ACAD_REACTORS
330
22B
102
}
330
22B
100
AcDbXrecord
280
     1
290
     0
  0
XRECORD
  5
23C
102
{ACAD_REACTORS
330
22B
102
}
330
22B
100
AcDbXrecord
280
     1
290
     0
  0
XRECORD
  5
23D
102
{ACAD_REACTORS
330
22B
102
}
330
22B
100
AcDbXrecord
280
     1
290
     0
  0
XRECORD
  5
23E
102
{ACAD_REACTORS
330
22B
102
}
330
22B
100
AcDbXrecord
280
     1
290
     0
  0
XRECORD
  5
23F
102
{ACAD_REACTORS
330
22B
102
}
330
22B
100
AcDbXrecord
280
     1
 90
    65537
  0
XRECORD
  5
240
102
{ACAD_REACTORS
330
22B
102
}
330
22B
100
AcDbXrecord
280
     1
 90
    65537
  0
XRECORD
  5
241
102
{ACAD_REACTORS
330
22B
102
}
330
22B
100
AcDbXrecord
280
     1
 90
    65537
  0
XRECORD
  5
242
102
{ACAD_REACTORS
330
22B
102
}
330
22B
100
AcDbXrecord
280
     1
 90
    65537
  0
XRECORD
  5
243
102
{ACAD_REACTORS
330
22B
102
}
330
22B
100
AcDbXrecord
280
     1
1000
auto
  0
XRECORD
  5
244
102
{ACAD_REACTORS
330
22B
102
}
330
22B
100
AcDbXrecord
280
     1
1000
auto
  0
XRECORD
  5
245
102
{ACAD_REACTORS
330
22B
102
}
330
22B
100
AcDbXrecord
280
     1
1000
auto
  0
XRECORD
  5
246
102
{ACAD_REACTORS
330
22B
102
}
330
22B
100
AcDbXrecord
280
     1
1000
auto
  0
XRECORD
  5
247
102
{ACAD_REACTORS
330
22B
102
}
330
22B
100
AcDbXrecord
280
     1
1000
auto
  0
XRECORD
  5
248
102
{ACAD_REACTORS
330
22B
102
}
330
22B
100
AcDbXrecord
280
     1
1000
auto
  0
XRECORD
  5
249
102
{ACAD_REACTORS
330
22B
102
}
330
22B
100
AcDbXrecord
280
     1
1000
auto
  0
XRECORD
  5
24A
102
{ACAD_REACTORS
330
22B
102
}
330
22B
100
AcDbXrecord
280
     1
1000
auto
  0
XRECORD
  5
24B
102
{ACAD_REACTORS
330
22B
102
}
330
22B
100
AcDbXrecord
280
     1
 90
        1
  0
XRECORD
  5
24C
102
{ACAD_REACTORS
330
22B
102
}
330
22B
100
AcDbXrecord
280
     1
 40
10.0
  0
XRECORD
  5
24D
102
{ACAD_REACTORS
330
22B
102
}
330
22B
100
AcDbXrecord
280
     1
 40
10.0
  0
XRECORD
  5
24E
102
{ACAD_REACTORS
330
22B
102
}
330
22B
100
AcDbXrecord
280
     1
 40
10.0
  0
XRECORD
  5
24F
102
{ACAD_REACTORS
330
22B
102
}
330
22B
100
AcDbXrecord
280
     1
 40
10.0
  0
XRECORD
  5
250
102
{ACAD_REACTORS
330
22B
102
}
330
22B
100
AcDbXrecord
280
     1
290
     0
  0
XRECORD
  5
251
102
{ACAD_REACTORS
330
22B
102
}
330
22B
100
AcDbXrecord
280
     1
 90
        1
  0
XRECORD
  5
252
102
{ACAD_REACTORS
330
22B
102
}
330
22B
100
AcDbXrecord
280
     1
 40
0.0
  0
XRECORD
  5
253
102
{ACAD_REACTORS
330
22B
102
}
330
22B
100
AcDbXrecord
280
     1
 40
0.0
  0
XRECORD
  5
254
102
{ACAD_REACTORS
330
22B
102
}
330
22B
100
AcDbXrecord
280
     1
1000
Portrait
  0
XRECORD
  5
255
102
{ACAD_REACTORS
330
22B
102
}
330
22B
100
AcDbXrecord
280
     1
 40
297.0
  0
XRECORD
  5
256
102
{ACAD_REACTORS
330
22B
102
}
330
22B
100
AcDbXrecord
280
     1
 40
210.0
  0
XRECORD
  5
257
102
{ACAD_REACTORS
330
22B
102
}
330
22B
100
AcDbXrecord
280
     1
1000
1:1
  0
XRECORD
  5
258
102
{ACAD_REACTORS
330
22B
102
}
330
22B
100
AcDbXrecord
280
     1
290
     1
  0
XRECORD
  5
259
102
{ACAD_REACTORS
330
22B
102
}
330
22B
100
AcDbXrecord
280
     1
290
     0
  0
XRECORD
  5
25A
102
{ACAD_REACTORS
330
22B
102
}
330
22B
100
AcDbXrecord
280
     1
1000
Inside
  0
XRECORD
  5
25B
102
{ACAD_REACTORS
330
22B
102
}
330
22B
100
AcDbXrecord
280
     1
1000
Arial,10,-1,5,50,0,0,0,0,0
  0
XRECORD
  5
25C
102
{ACAD_REACTORS
330
22B
102
}
330
22B
100
AcDbXrecord
280
     1
1000
TopLeft
  0
XRECORD
  5
25D
102
{ACAD_REACTORS
330
22B
102
}
330
22B
100
AcDbXrecord
280
     1
1000
3.27.6
  0
XRECORD
  5
25E
102
{ACAD_REACTORS
330
22B
102
}
330
22B
100
AcDbXrecord
280
     1
 90
        4
  0
XRECORD
  5
25F
102
{ACAD_REACTORS
330
22B
102
}
330
22B
100
AcDbXrecord
280
     1
  0
XRECORD
  5
260
102
{ACAD_REACTORS
330
22B
102
}
330
22B
100
AcDbXrecord
280
     1
 40
523.419930650064
  0
XRECORD
  5
261
102
{ACAD_REACTORS
330
22B
102
}
330
22B
100
AcDbXrecord
280
     1
 40
710.8705945192329
  0
DICTIONARY
  5
299
330
226
100
AcDbDictionary
280
     1
281
     1
  3
ACAD_ROUNDTRIP_2008_TABLESTYLE_CELLSTYLEMAP
360
29A
  0
CELLSTYLEMAP
  5
29A
102
{ACAD_REACTORS
330
299
102
}
330
299
100
AcDbCellStyleMap
 90
        3
300
CELLSTYLE
  1
TABLEFORMAT_BEGIN
 90
        5
170
     1
 91
        0
 92
    32768
 62
   257
 93
        1
300
CONTENTFORMAT
  1
CONTENTFORMAT_BEGIN
 90
        0
 91
        0
 92
        4
 93
        0
300

 40
0.0
140
1.0
 94
        5
 62
     0
340
1DE
144
0.25
309
CONTENTFORMAT_END
171
     1
301
MARGIN
  1
CELLMARGIN_BEGIN
 40
0.06
 40
0.06
 40
0.06
 40
0.06
 40
0.06
 40
0.06
309
CELLMARGIN_END
 94
        6
 95
        1
302
GRIDFORMAT
  1
GRIDFORMAT_BEGIN
 90
        0
 91
        1
 62
     0
 92
       -2
340
1E0
 93
        0
 40
0.045
309
GRIDFORMAT_END
 95
        2
302
GRIDFORMAT
  1
GRIDFORMAT_BEGIN
 90
        0
 91
        1
 62
     0
 92
       -2
340
1E0
 93
        0
 40
0.045
309
GRIDFORMAT_END
 95
        4
302
GRIDFORMAT
  1
GRIDFORMAT_BEGIN
 90
        0
 91
        1
 62
     0
 92
       -2
340
1E0
 93
        0
 40
0.045
309
GRIDFORMAT_END
 95
        8
302
GRIDFORMAT
  1
GRIDFORMAT_BEGIN
 90
        0
 91
        1
 62
     0
 92
       -2
340
1E0
 93
        0
 40
0.045
309
GRIDFORMAT_END
 95
       16
302
GRIDFORMAT
  1
GRIDFORMAT_BEGIN
 90
        0
 91
        1
 62
     0
 92
       -2
340
1E0
 93
        0
 40
0.045
309
GRIDFORMAT_END
 95
       32
302
GRIDFORMAT
  1
GRIDFORMAT_BEGIN
 90
        0
 91
        1
 62
     0
 92
       -2
340
1E0
 93
        0
 40
0.045
309
GRIDFORMAT_END
309
TABLEFORMAT_END
  1
CELLSTYLE_BEGIN
 90
        1
 91
        1
300
_TITLE
309
CELLSTYLE_END
300
CELLSTYLE
  1
TABLEFORMAT_BEGIN
 90
        5
170
     1
 91
        0
 92
        0
 62
   257
 93
        1
300
CONTENTFORMAT
  1
CONTENTFORMAT_BEGIN
 90
        0
 91
        0
 92
        4
 93
        0
300

 40
0.0
140
1.0
 94
        5
 62
     0
340
1DE
144
0.18
309
CONTENTFORMAT_END
171
     1
301
MARGIN
  1
CELLMARGIN_BEGIN
 40
0.06
 40
0.06
 40
0.06
 40
0.06
 40
0.06
 40
0.06
309
CELLMARGIN_END
 94
        6
 95
        1
302
GRIDFORMAT
  1
GRIDFORMAT_BEGIN
 90
        0
 91
        1
 62
     0
 92
       -2
340
1E0
 93
        0
 40
0.045
309
GRIDFORMAT_END
 95
        2
302
GRIDFORMAT
  1
GRIDFORMAT_BEGIN
 90
        0
 91
        1
 62
     0
 92
       -2
340
1E0
 93
        0
 40
0.045
309
GRIDFORMAT_END
 95
        4
302
GRIDFORMAT
  1
GRIDFORMAT_BEGIN
 90
        0
 91
        1
 62
     0
 92
       -2
340
1E0
 93
        0
 40
0.045
309
GRIDFORMAT_END
 95
        8
302
GRIDFORMAT
  1
GRIDFORMAT_BEGIN
 90
        0
 91
        1
 62
     0
 92
       -2
340
1E0
 93
        0
 40
0.045
309
GRIDFORMAT_END
 95
       16
302
GRIDFORMAT
  1
GRIDFORMAT_BEGIN
 90
        0
 91
        1
 62
     0
 92
       -2
340
1E0
 93
        0
 40
0.045
309
GRIDFORMAT_END
 95
       32
302
GRIDFORMAT
  1
GRIDFORMAT_BEGIN
 90
        0
 91
        1
 62
     0
 92
       -2
340
1E0
 93
        0
 40
0.045
309
GRIDFORMAT_END
309
TABLEFORMAT_END
  1
CELLSTYLE_BEGIN
 90
        2
 91
        1
300
_HEADER
309
CELLSTYLE_END
300
CELLSTYLE
  1
TABLEFORMAT_BEGIN
 90
        5
170
     1
 91
        0
 92
        0
 62
   257
 93
        1
300
CONTENTFORMAT
  1
CONTENTFORMAT_BEGIN
 90
        0
 91
        0
 92
        4
 93
        0
300

 40
0.0
140
1.0
 94
        2
 62
     0
340
1DE
144
0.18
309
CONTENTFORMAT_END
171
     1
301
MARGIN
  1
CELLMARGIN_BEGIN
 40
0.06
 40
0.06
 40
0.06
 40
0.06
 40
0.06
 40
0.06
309
CELLMARGIN_END
 94
        6
 95
        1
302
GRIDFORMAT
  1
GRIDFORMAT_BEGIN
 90
        0
 91
        1
 62
     0
 92
       -2
340
1E0
 93
        0
 40
0.045
309
GRIDFORMAT_END
 95
        2
302
GRIDFORMAT
  1
GRIDFORMAT_BEGIN
 90
        0
 91
        1
 62
     0
 92
       -2
340
1E0
 93
        0
 40
0.045
309
GRIDFORMAT_END
 95
        4
302
GRIDFORMAT
  1
GRIDFORMAT_BEGIN
 90
        0
 91
        1
 62
     0
 92
       -2
340
1E0
 93
        0
 40
0.045
309
GRIDFORMAT_END
 95
        8
302
GRIDFORMAT
  1
GRIDFORMAT_BEGIN
 90
        0
 91
        1
 62
     0
 92
       -2
340
1E0
 93
        0
 40
0.045
309
GRIDFORMAT_END
 95
       16
302
GRIDFORMAT
  1
GRIDFORMAT_BEGIN
 90
        0
 91
        1
 62
     0
 92
       -2
340
1E0
 93
        0
 40
0.045
309
GRIDFORMAT_END
 95
       32
302
GRIDFORMAT
  1
GRIDFORMAT_BEGIN
 90
        0
 91
        1
 62
     0
 92
       -2
340
1E0
 93
        0
 40
0.045
309
GRIDFORMAT_END
309
TABLEFORMAT_END
  1
CELLSTYLE_BEGIN
 90
        3
 91
        2
300
_DATA
309
CELLSTYLE_END
  0
ENDSEC
  0
EOF
